# Blender v2.82 (sub 7) OBJ File: 'motoman.blend'
# www.blender.org
mtllib arm_right_link_7_t.mtl
o arm_right_link_7_t.projected_link_b1.019
v 0.108613 -1.128999 0.008357
v 0.107374 -1.128999 0.009345
v 0.107374 -1.128999 0.016127
v 0.115761 -1.128999 0.016127
v 0.110586 -1.128999 0.005463
v 0.108613 -1.126299 0.008357
v 0.105874 -1.128999 0.010541
v 0.105874 -1.126299 0.010541
v 0.110586 -1.126299 0.005463
v 0.095707 -1.126299 0.011303
v 0.099121 -1.128999 0.012082
v 0.095707 -1.128999 0.011303
v 0.092673 -1.126299 0.009551
v 0.099121 -1.126299 0.012082
v 0.102614 -1.126299 0.011820
v 0.111618 -1.126299 0.002116
v 0.111618 -1.128999 0.002116
v 0.111749 -1.126299 0.000365
v 0.088249 -1.126299 0.000365
v 0.088771 -1.126299 0.003828
v 0.090291 -1.126299 0.006984
v 0.090291 -1.128999 0.006984
v 0.092624 -1.128999 0.009499
v 0.092624 -1.128999 0.016127
v 0.092673 -1.128999 0.009551
v 0.084238 -1.128999 0.016127
v 0.088249 -1.128999 0.000365
v 0.084238 -1.128999 -0.015397
v 0.088771 -1.128999 0.003828
v 0.084238 -1.128999 0.026602
v 0.079891 -1.128999 0.021389
v 0.067863 -1.128999 0.016127
v 0.077726 -1.128999 0.020139
v 0.078976 -1.128999 0.020474
v 0.079891 -1.139999 0.021389
v 0.078976 -1.139999 0.020474
v 0.088613 -1.139999 0.000365
v 0.077726 -1.139999 0.020139
v 0.076476 -1.128999 0.020474
v 0.060499 -1.139999 0.000365
v 0.076476 -1.139999 0.020474
v 0.075561 -1.128999 0.021389
v 0.060628 -1.139999 0.003543
v 0.075561 -1.139999 0.021389
v 0.063660 -1.139999 0.015848
v 0.061647 -1.139999 0.009818
v 0.062181 -1.139499 0.012991
v 0.060645 -1.139499 0.006761
v 0.061162 -1.139499 0.009937
v 0.060517 -1.129499 0.006781
v 0.062058 -1.129499 0.013032
v 0.062532 -1.128999 0.012873
v 0.063919 -1.128999 0.016127
v 0.063200 -1.139499 0.016044
v 0.064581 -1.129499 0.018954
v 0.064696 -1.139499 0.018894
v 0.066192 -1.139499 0.021743
v 0.068022 -1.129499 0.024395
v 0.067863 -1.128999 0.023210
v 0.065024 -1.128999 0.018721
v 0.075226 -1.128999 0.022639
v 0.068422 -1.128999 0.024094
v 0.070643 -1.128999 0.026602
v 0.075561 -1.128999 0.023889
v 0.076476 -1.128999 0.024804
v 0.075561 -1.139999 0.023889
v 0.075226 -1.139999 0.022639
v 0.070433 -1.139999 0.026558
v 0.066614 -1.139999 0.021476
v 0.068125 -1.139499 0.024317
v 0.070059 -1.139499 0.026890
v 0.070479 -1.139999 0.026602
v 0.072290 -1.129499 0.029213
v 0.072380 -1.139499 0.029119
v 0.075018 -1.139999 0.030962
v 0.074702 -1.139499 0.031349
v 0.077277 -1.129499 0.033284
v 0.077351 -1.139499 0.033178
v 0.079999 -1.139499 0.035006
v 0.080249 -1.139999 0.034573
v 0.085290 -1.139999 0.036965
v 0.088613 -1.139999 0.026602
v 0.082907 -1.139499 0.036386
v 0.082852 -1.129499 0.036503
v 0.085815 -1.139499 0.037766
v 0.085993 -1.139999 0.037298
v 0.088871 -1.129499 0.038786
v 0.088907 -1.139499 0.038661
v 0.091998 -1.139499 0.039557
v 0.088613 -1.139999 0.038057
v 0.088613 -1.139999 0.036965
v 0.092098 -1.139999 0.039067
v 0.095194 -1.139499 0.039944
v 0.098409 -1.139999 0.039833
v 0.101605 -1.139499 0.040203
v 0.098389 -1.139499 0.040332
v 0.104761 -1.139999 0.039577
v 0.104821 -1.139499 0.040073
v 0.107974 -1.139499 0.039429
v 0.110989 -1.139999 0.038305
v 0.111128 -1.139499 0.038786
v 0.111386 -1.139999 0.036965
v 0.111386 -1.139999 0.038155
v 0.114524 -1.139999 0.036965
v 0.114138 -1.139499 0.037644
v 0.114184 -1.129499 0.037766
v 0.117147 -1.139499 0.036503
v 0.116933 -1.139999 0.036051
v 0.119999 -1.129499 0.035006
v 0.119935 -1.139499 0.034894
v 0.122438 -1.139999 0.032873
v 0.122722 -1.139499 0.033284
v 0.125297 -1.129499 0.031349
v 0.125215 -1.139499 0.031249
v 0.127708 -1.139499 0.029213
v 0.127362 -1.139999 0.028852
v 0.129356 -1.139999 0.026602
v 0.111386 -1.139999 0.026602
v 0.129843 -1.139499 0.026804
v 0.129940 -1.129499 0.026890
v 0.131977 -1.139499 0.024395
v 0.133807 -1.129499 0.021743
v 0.133697 -1.139499 0.021674
v 0.131577 -1.139999 0.024094
v 0.132136 -1.139999 0.023210
v 0.124773 -1.139999 0.022639
v 0.124438 -1.139999 0.023889
v 0.124438 -1.128999 0.023889
v 0.123523 -1.139999 0.024804
v 0.124773 -1.128999 0.022639
v 0.129566 -1.128999 0.026558
v 0.133384 -1.128999 0.021476
v 0.124438 -1.128999 0.021389
v 0.124438 -1.139999 0.021389
v 0.123523 -1.128999 0.020474
v 0.136192 -1.128999 0.016127
v 0.136339 -1.128999 0.015848
v 0.122273 -1.128999 0.020139
v 0.136799 -1.129499 0.016044
v 0.135418 -1.139499 0.018954
v 0.136679 -1.139499 0.015993
v 0.137941 -1.139499 0.013032
v 0.138837 -1.129499 0.009937
v 0.138352 -1.128999 0.009818
v 0.115761 -1.128999 -0.015397
v 0.139371 -1.128999 0.003543
v 0.139499 -1.128999 0.000365
v 0.139870 -1.129499 0.003584
v 0.139481 -1.139499 0.006781
v 0.139740 -1.139499 0.003573
v 0.139999 -1.129499 0.000365
v 0.139371 -1.128999 -0.002813
v 0.139999 -1.139499 0.000365
v 0.139870 -1.129499 -0.002854
v 0.138352 -1.128999 -0.009088
v 0.139740 -1.139499 -0.002843
v 0.139481 -1.139499 -0.006052
v 0.138837 -1.129499 -0.009208
v 0.136339 -1.128999 -0.015118
v 0.138711 -1.139499 -0.009177
v 0.137941 -1.139499 -0.012302
v 0.136799 -1.129499 -0.015314
v 0.136192 -1.128999 -0.015397
v 0.136679 -1.139499 -0.015263
v 0.135418 -1.139499 -0.018224
v 0.133807 -1.129499 -0.021014
v 0.129566 -1.128999 -0.025828
v 0.133384 -1.128999 -0.020746
v 0.133697 -1.139499 -0.020944
v 0.131977 -1.139499 -0.023665
v 0.129940 -1.129499 -0.026160
v 0.129520 -1.128999 -0.025872
v 0.129843 -1.139499 -0.026074
v 0.127708 -1.139499 -0.028483
v 0.125297 -1.129499 -0.030619
v 0.119749 -1.128999 -0.033843
v 0.124981 -1.128999 -0.030232
v 0.119999 -1.129499 -0.034276
v 0.125215 -1.139499 -0.030519
v 0.122722 -1.139499 -0.032554
v 0.119935 -1.139499 -0.034164
v 0.122438 -1.139999 -0.032143
v 0.111386 -1.139999 -0.025872
v 0.116933 -1.139999 -0.035321
v 0.127362 -1.139999 -0.028123
v 0.129356 -1.139999 -0.025872
v 0.131577 -1.139999 -0.023364
v 0.124438 -1.139999 -0.023159
v 0.123523 -1.139999 -0.024074
v 0.122273 -1.139999 -0.024409
v 0.121023 -1.128999 -0.024074
v 0.122273 -1.128999 -0.024409
v 0.121023 -1.139999 -0.024074
v 0.120108 -1.128999 -0.023159
v 0.120108 -1.139999 -0.023159
v 0.119773 -1.128999 -0.021909
v 0.119773 -1.139999 -0.021909
v 0.111386 -1.139999 0.000365
v 0.120108 -1.139999 -0.020659
v 0.120108 -1.128999 -0.020659
v 0.121023 -1.128999 -0.019744
v 0.115761 -1.128999 -0.025872
v 0.107374 -1.128999 -0.015397
v 0.115761 -1.128999 -0.035735
v 0.107374 -1.128999 -0.025872
v 0.092624 -1.128999 -0.025872
v 0.092624 -1.128999 -0.015397
v 0.102598 -1.128999 -0.031835
v 0.102999 -1.128999 -0.030335
v 0.102598 -1.128999 -0.028835
v 0.099999 -1.128999 -0.027335
v 0.101499 -1.128999 -0.027737
v 0.107374 -1.128999 -0.038401
v 0.114006 -1.128999 -0.036568
v 0.107900 -1.128999 -0.038337
v 0.114184 -1.129499 -0.037036
v 0.108000 -1.129499 -0.038827
v 0.111128 -1.139499 -0.038056
v 0.107974 -1.139499 -0.038700
v 0.104821 -1.139499 -0.039343
v 0.101610 -1.129499 -0.039603
v 0.101590 -1.128999 -0.039103
v 0.099999 -1.128999 -0.033335
v 0.098499 -1.128999 -0.032933
v 0.095238 -1.128999 -0.038847
v 0.097401 -1.128999 -0.031835
v 0.095178 -1.129499 -0.039343
v 0.092624 -1.128999 -0.038313
v 0.089010 -1.128999 -0.037575
v 0.096999 -1.128999 -0.030335
v 0.088871 -1.129499 -0.038056
v 0.084238 -1.128999 -0.035766
v 0.091998 -1.139499 -0.038827
v 0.088907 -1.139499 -0.037931
v 0.085815 -1.139499 -0.037036
v 0.082852 -1.129499 -0.035773
v 0.082907 -1.139499 -0.035656
v 0.079999 -1.139499 -0.034276
v 0.077277 -1.129499 -0.032554
v 0.077561 -1.128999 -0.032143
v 0.083066 -1.128999 -0.035321
v 0.084238 -1.128999 -0.025872
v 0.079891 -1.128999 -0.023159
v 0.078976 -1.128999 -0.024074
v 0.077726 -1.128999 -0.024409
v 0.072637 -1.128999 -0.028123
v 0.070643 -1.128999 -0.025872
v 0.080226 -1.128999 -0.021909
v 0.080226 -1.139999 -0.021909
v 0.079891 -1.139999 -0.020659
v 0.079891 -1.128999 -0.020659
v 0.078976 -1.128999 -0.019744
v 0.078976 -1.139999 -0.019744
v 0.077726 -1.139999 -0.019409
v 0.076476 -1.139999 -0.019744
v 0.077726 -1.128999 -0.019409
v 0.067863 -1.128999 -0.015397
v 0.076476 -1.128999 -0.019744
v 0.075561 -1.139999 -0.020659
v 0.075561 -1.128999 -0.020659
v 0.075226 -1.128999 -0.021909
v 0.075226 -1.139999 -0.021909
v 0.067863 -1.128999 -0.022481
v 0.065024 -1.128999 -0.017992
v 0.068422 -1.128999 -0.023364
v 0.068022 -1.129499 -0.023665
v 0.072290 -1.129499 -0.028483
v 0.070059 -1.139499 -0.026160
v 0.068125 -1.139499 -0.023587
v 0.066192 -1.139499 -0.021014
v 0.064581 -1.129499 -0.018224
v 0.063919 -1.128999 -0.015397
v 0.064696 -1.139499 -0.018164
v 0.063200 -1.139499 -0.015314
v 0.062058 -1.129499 -0.012302
v 0.062181 -1.139499 -0.012261
v 0.061162 -1.139499 -0.009208
v 0.060517 -1.129499 -0.006052
v 0.061011 -1.128999 -0.005971
v 0.062532 -1.128999 -0.012144
v 0.060500 -1.128999 0.000365
v 0.061011 -1.128999 0.006701
v 0.059999 -1.129499 0.000365
v 0.060129 -1.139499 -0.002854
v 0.059999 -1.139499 0.000365
v 0.060129 -1.139499 0.003584
v 0.060628 -1.139999 -0.002813
v 0.061647 -1.139999 -0.009088
v 0.060645 -1.139499 -0.006031
v 0.063660 -1.139999 -0.015118
v 0.066614 -1.139999 -0.020746
v 0.070433 -1.139999 -0.025828
v 0.070479 -1.139999 -0.025872
v 0.075561 -1.139999 -0.023159
v 0.075561 -1.128999 -0.023159
v 0.076476 -1.139999 -0.024074
v 0.076476 -1.128999 -0.024074
v 0.077726 -1.139999 -0.024409
v 0.088613 -1.139999 -0.025872
v 0.078976 -1.139999 -0.024074
v 0.079891 -1.139999 -0.023159
v 0.096999 -1.139999 -0.030335
v 0.097401 -1.139999 -0.028835
v 0.099999 -1.139999 -0.027335
v 0.098499 -1.139999 -0.027737
v 0.097401 -1.139999 -0.031835
v 0.088613 -1.139999 -0.037327
v 0.075018 -1.139999 -0.030232
v 0.080249 -1.139999 -0.033843
v 0.085993 -1.139999 -0.036568
v 0.077351 -1.139499 -0.032448
v 0.074702 -1.139499 -0.030619
v 0.072380 -1.139499 -0.028390
v 0.098499 -1.139999 -0.032933
v 0.092098 -1.139999 -0.038337
v 0.099999 -1.139999 -0.033335
v 0.098409 -1.139999 -0.039103
v 0.095194 -1.139499 -0.039215
v 0.098389 -1.139499 -0.039603
v 0.101605 -1.139499 -0.039473
v 0.104761 -1.139999 -0.038847
v 0.110989 -1.139999 -0.037575
v 0.101499 -1.139999 -0.032933
v 0.101499 -1.128999 -0.032933
v 0.102598 -1.139999 -0.031835
v 0.111386 -1.139999 -0.037425
v 0.102999 -1.139999 -0.030335
v 0.102598 -1.139999 -0.028835
v 0.101499 -1.139999 -0.027737
v 0.114138 -1.139499 -0.036914
v 0.117147 -1.139499 -0.035773
v 0.098499 -1.128999 -0.027737
v 0.097401 -1.128999 -0.028835
v 0.092673 -1.128999 -0.008822
v 0.095707 -1.128999 -0.010573
v 0.099121 -1.128999 -0.011352
v 0.092624 -1.128999 -0.008769
v 0.090291 -1.128999 -0.006254
v 0.088771 -1.128999 -0.003098
v 0.090291 -1.126299 -0.006254
v 0.092673 -1.126299 -0.008822
v 0.111618 -1.126299 -0.001386
v 0.088771 -1.126299 -0.003098
v 0.110586 -1.128999 -0.004733
v 0.111618 -1.128999 -0.001386
v 0.111749 -1.128999 0.000365
v 0.110586 -1.126299 -0.004733
v 0.095707 -1.126299 -0.010573
v 0.108613 -1.126299 -0.007627
v 0.105874 -1.126299 -0.009811
v 0.102614 -1.126299 -0.011090
v 0.099121 -1.126299 -0.011352
v 0.102614 -1.128999 -0.011090
v 0.105874 -1.128999 -0.009811
v 0.107374 -1.128999 -0.008615
v 0.108613 -1.128999 -0.007627
v 0.121023 -1.139999 -0.019744
v 0.122273 -1.128999 -0.019409
v 0.123523 -1.128999 -0.019744
v 0.122273 -1.139999 -0.019409
v 0.123523 -1.139999 -0.019744
v 0.132136 -1.139999 0.000365
v 0.123523 -1.139999 0.020474
v 0.122273 -1.139999 0.020139
v 0.137467 -1.139999 0.012873
v 0.138988 -1.139999 0.006701
v 0.139499 -1.139999 0.000365
v 0.134975 -1.139999 0.018721
v 0.132136 -1.139999 -0.022481
v 0.134975 -1.139999 -0.017992
v 0.137467 -1.139999 -0.012144
v 0.138988 -1.139999 -0.005971
v 0.124438 -1.139999 -0.020659
v 0.124773 -1.139999 -0.021909
v 0.124773 -1.128999 -0.021909
v 0.124438 -1.128999 -0.020659
v 0.124438 -1.128999 -0.023159
v 0.123523 -1.128999 -0.024074
v 0.138711 -1.139499 0.009906
v 0.121023 -1.128999 0.020474
v 0.121023 -1.139999 0.020474
v 0.120108 -1.139999 0.021389
v 0.120108 -1.128999 0.021389
v 0.119773 -1.128999 0.022639
v 0.115761 -1.128999 0.026602
v 0.120108 -1.128999 0.023889
v 0.119773 -1.139999 0.022639
v 0.120108 -1.139999 0.023889
v 0.121023 -1.128999 0.024804
v 0.121023 -1.139999 0.024804
v 0.122273 -1.139999 0.025139
v 0.122273 -1.128999 0.025139
v 0.123523 -1.128999 0.024804
v 0.129520 -1.128999 0.026602
v 0.124981 -1.128999 0.030962
v 0.119749 -1.128999 0.034573
v 0.115761 -1.128999 0.036465
v 0.114708 -1.128999 0.036965
v 0.107374 -1.128999 0.036965
v 0.114006 -1.128999 0.037298
v 0.107374 -1.128999 0.026602
v 0.092624 -1.128999 0.026602
v 0.099999 -1.128999 0.028065
v 0.101499 -1.128999 0.028467
v 0.102999 -1.128999 0.031065
v 0.102598 -1.128999 0.029565
v 0.102598 -1.139999 0.029565
v 0.102999 -1.139999 0.031065
v 0.102598 -1.139999 0.032565
v 0.101499 -1.139999 0.033663
v 0.102598 -1.128999 0.032565
v 0.101499 -1.128999 0.033663
v 0.099999 -1.128999 0.034065
v 0.099999 -1.139999 0.034065
v 0.098499 -1.139999 0.033663
v 0.098499 -1.128999 0.033663
v 0.097401 -1.139999 0.032565
v 0.097401 -1.128999 0.032565
v 0.096999 -1.139999 0.031065
v 0.097401 -1.139999 0.029565
v 0.096999 -1.128999 0.031065
v 0.097401 -1.128999 0.029565
v 0.098499 -1.139999 0.028467
v 0.098499 -1.128999 0.028467
v 0.099999 -1.139999 0.028065
v 0.101499 -1.139999 0.028467
v 0.092624 -1.128999 0.036965
v 0.095238 -1.128999 0.039577
v 0.085475 -1.128999 0.036965
v 0.089010 -1.128999 0.038305
v 0.092624 -1.128999 0.039043
v 0.095178 -1.129499 0.040073
v 0.101590 -1.128999 0.039833
v 0.101610 -1.129499 0.040332
v 0.107374 -1.128999 0.039130
v 0.108000 -1.129499 0.039557
v 0.107900 -1.128999 0.039067
v 0.084238 -1.128999 0.036495
v 0.083066 -1.128999 0.036051
v 0.077561 -1.128999 0.032873
v 0.072637 -1.128999 0.028852
v 0.077726 -1.139999 0.025139
v 0.078976 -1.139999 0.024804
v 0.079891 -1.139999 0.023889
v 0.080226 -1.139999 0.022639
v 0.080226 -1.128999 0.022639
v 0.079891 -1.128999 0.023889
v 0.078976 -1.128999 0.024804
v 0.077726 -1.128999 0.025139
v 0.076476 -1.139999 0.024804
v 0.102614 -1.128999 0.011820
vt 0.999624 0.871844
vt 0.999625 0.872324
vt 0.998577 0.872324
vt 0.218293 0.948149
vt 0.218815 0.948472
vt 0.219137 0.951084
vt 0.215916 0.951476
vt 0.217398 0.947127
vt 0.793754 0.992401
vt 0.794798 0.992401
vt 0.794735 0.993521
vt 0.999622 0.871263
vt 0.998574 0.871263
vt 0.746859 0.066275
vt 0.745937 0.065279
vt 0.750704 0.067157
vt 0.745349 0.064054
vt 0.793691 0.993522
vt 0.998574 0.867318
vt 0.999621 0.868644
vt 0.998573 0.868644
vt 0.999622 0.867318
vt 0.998577 0.866139
vt 0.745148 0.062710
vt 0.751965 0.066660
vt 0.748032 0.066955
vt 0.749353 0.067258
vt 0.793657 0.994819
vt 0.794702 0.994819
vt 0.793653 0.995498
vt 0.745198 0.062030
vt 0.754187 0.063391
vt 0.753787 0.064690
vt 0.753024 0.065813
vt 0.998848 0.438602
vt 0.997801 0.438601
vt 0.997836 0.437595
vt 0.998825 0.439846
vt 0.998884 0.437576
vt 0.224801 0.950394
vt 0.224487 0.947841
vt 0.228021 0.950002
vt 0.224470 0.947864
vt 0.997837 0.437574
vt 0.225263 0.946763
vt 0.228517 0.954036
vt 0.225734 0.944119
vt 0.225698 0.945477
vt 0.226528 0.937860
vt 0.234309 0.949236
vt 0.229940 0.951825
vt 0.230248 0.951430
vt 0.230712 0.951242
vt 0.536137 0.994298
vt 0.535770 0.998550
vt 0.535770 0.994285
vt 0.995133 0.994375
vt 0.994648 0.998644
vt 0.994648 0.994375
vt 0.536137 0.998564
vt 0.064590 0.972445
vt 0.064925 0.964655
vt 0.064964 0.964787
vt 0.064897 0.964299
vt 0.995133 0.998644
vt 0.065490 0.972488
vt 0.995618 0.994375
vt 0.995618 0.998644
vt 0.065005 0.964659
vt 0.995972 0.994373
vt 0.995972 0.998642
vt 0.065490 0.971254
vt 0.065466 0.968818
vt 0.065035 0.964306
vt 0.065409 0.966475
vt 0.079524 0.976129
vt 0.079509 0.977326
vt 0.079322 0.977366
vt 0.079353 0.975002
vt 0.079501 0.978565
vt 0.079307 0.979813
vt 0.083377 0.978564
vt 0.083400 0.976120
vt 0.083601 0.976175
vt 0.083622 0.974895
vt 0.083438 0.973790
vt 0.079539 0.974932
vt 0.079562 0.973807
vt 0.083639 0.973875
vt 0.079585 0.972682
vt 0.083490 0.971636
vt 0.235688 0.950176
vt 0.234625 0.952432
vt 0.234645 0.951964
vt 0.235522 0.950102
vt 0.235824 0.949051
vt 0.231790 0.952088
vt 0.234472 0.952331
vt 0.231721 0.952585
vt 0.233738 0.953400
vt 0.060784 0.963323
vt 0.065047 0.963821
vt 0.060793 0.963808
vt 0.231413 0.952981
vt 0.869867 0.996564
vt 0.870223 0.992296
vt 0.870223 0.996565
vt 0.065038 0.963335
vt 0.065206 0.962307
vt 0.065322 0.964285
vt 0.079455 0.970760
vt 0.079614 0.971659
vt 0.079397 0.972780
vt 0.079643 0.970636
vt 0.083555 0.969712
vt 0.096495 0.969874
vt 0.096301 0.969712
vt 0.096495 0.969857
vt 0.096298 0.970615
vt 0.092417 0.970580
vt 0.096296 0.971518
vt 0.096490 0.971640
vt 0.092412 0.972519
vt 0.096293 0.972547
vt 0.096291 0.973577
vt 0.096486 0.973674
vt 0.096483 0.975633
vt 0.096290 0.974707
vt 0.064624 0.962262
vt 0.064744 0.958246
vt 0.064902 0.959182
vt 0.065065 0.960591
vt 0.092409 0.974686
vt 0.096288 0.975837
vt 0.096483 0.975905
vt 0.096287 0.977038
vt 0.092406 0.977024
vt 0.096286 0.978238
vt 0.096482 0.976923
vt 0.064639 0.957817
vt 0.064722 0.958115
vt 0.064637 0.958240
vt 0.064529 0.957419
vt 0.096481 0.978277
vt 0.064328 0.957112
vt 0.096286 0.979479
vt 0.096480 0.980727
vt 0.096286 0.981967
vt 0.096285 0.980719
vt 0.096481 0.983191
vt 0.064124 0.957202
vt 0.096286 0.983215
vt 0.096287 0.984439
vt 0.063923 0.957686
vt 0.096483 0.985607
vt 0.063908 0.958205
vt 0.096288 0.985662
vt 0.096483 0.985761
vt 0.063910 0.957743
vt 0.096290 0.986829
vt 0.063808 0.958200
vt 0.096484 0.986978
vt 0.092409 0.986847
vt 0.096291 0.987996
vt 0.092412 0.989102
vt 0.096486 0.987912
vt 0.096293 0.989076
vt 0.096295 0.990156
vt 0.096490 0.990045
vt 0.092417 0.991154
vt 0.096298 0.991122
vt 0.096301 0.992087
vt 0.096495 0.991952
vt 0.063386 0.961329
vt 0.063549 0.959776
vt 0.063895 0.962227
vt 0.063320 0.962199
vt 0.063111 0.962119
vt 0.063182 0.961188
vt 0.059240 0.962074
vt 0.063039 0.963051
vt 0.062981 0.964104
vt 0.059110 0.964065
vt 0.063245 0.963169
vt 0.063226 0.963511
vt 0.063461 0.963744
vt 0.063474 0.963260
vt 0.063504 0.962906
vt 0.668750 0.998541
vt 0.668750 0.994276
vt 0.669230 0.994270
vt 0.862175 0.996565
vt 0.862175 0.992296
vt 0.862529 0.992294
vt 0.669230 0.998536
vt 0.212952 0.954871
vt 0.211109 0.956139
vt 0.212764 0.954406
vt 0.209402 0.954361
vt 0.668261 0.998537
vt 0.212833 0.953909
vt 0.208070 0.952432
vt 0.668261 0.994271
vt 0.667894 0.998524
vt 0.213141 0.953513
vt 0.207819 0.952433
vt 0.208001 0.952331
vt 0.209237 0.954488
vt 0.213605 0.953326
vt 0.062922 0.965157
vt 0.059007 0.966273
vt 0.062878 0.966305
vt 0.062834 0.967452
vt 0.058933 0.968639
vt 0.206747 0.950176
vt 0.206942 0.950103
vt 0.214423 0.939335
vt 0.206254 0.947734
vt 0.206049 0.947777
vt 0.206054 0.946516
vt 0.058892 0.971104
vt 0.062776 0.969875
vt 0.062764 0.971120
vt 0.205847 0.946544
vt 0.058884 0.972353
vt 0.205952 0.945285
vt 0.205744 0.945298
vt 0.062751 0.972364
vt 0.058884 0.973602
vt 0.206047 0.942821
vt 0.205840 0.942802
vt 0.062756 0.973610
vt 0.062760 0.974855
vt 0.058909 0.976070
vt 0.062780 0.976069
vt 0.206534 0.940404
vt 0.206333 0.940355
vt 0.062801 0.977284
vt 0.058966 0.978442
vt 0.206577 0.940290
vt 0.207212 0.938020
vt 0.062838 0.978435
vt 0.062874 0.979586
vt 0.059054 0.980659
vt 0.207402 0.938098
vt 0.208628 0.935963
vt 0.208453 0.935857
vt 0.062926 0.980644
vt 0.062977 0.981703
vt 0.059172 0.982662
vt 0.063042 0.982641
vt 0.208643 0.935944
vt 0.210025 0.933922
vt 0.063108 0.983579
vt 0.354803 0.969246
vt 0.358679 0.970114
vt 0.354795 0.971051
vt 0.212018 0.932417
vt 0.210180 0.934052
vt 0.211886 0.932266
vt 0.358676 0.971083
vt 0.358672 0.972052
vt 0.354788 0.973109
vt 0.358867 0.972162
vt 0.358669 0.973135
vt 0.063313 0.983440
vt 0.063827 0.982592
vt 0.063465 0.985008
vt 0.063637 0.986250
vt 0.358861 0.974300
vt 0.358874 0.970249
vt 0.063252 0.982564
vt 0.063480 0.982007
vt 0.063184 0.981587
vt 0.063413 0.981519
vt 0.063441 0.981875
vt 0.063521 0.981879
vt 0.426859 0.994516
vt 0.426374 0.998785
vt 0.426374 0.994516
vt 0.426859 0.998785
vt 0.425889 0.998785
vt 0.427213 0.994515
vt 0.427213 0.998783
vt 0.063551 0.981525
vt 0.059309 0.981028
vt 0.059297 0.981512
vt 0.063564 0.981041
vt 0.059300 0.980542
vt 0.063861 0.972409
vt 0.063554 0.980555
vt 0.865180 0.996563
vt 0.865536 0.992296
vt 0.865536 0.996565
vt 0.212504 0.937511
vt 0.212196 0.937907
vt 0.213927 0.935300
vt 0.212574 0.937014
vt 0.217643 0.938942
vt 0.217147 0.934908
vt 0.213459 0.931501
vt 0.212386 0.936548
vt 0.211991 0.936239
vt 0.211495 0.936168
vt 0.222811 0.934218
vt 0.223307 0.938253
vt 0.219910 0.933999
vt 0.216554 0.930082
vt 0.218699 0.932388
vt 0.218616 0.932984
vt 0.218841 0.933543
vt 0.219315 0.933915
vt 0.216355 0.930132
vt 0.214094 0.931098
vt 0.213989 0.930931
vt 0.216278 0.929952
vt 0.354783 0.975367
vt 0.358661 0.976555
vt 0.354779 0.977768
vt 0.358660 0.977779
vt 0.218742 0.929541
vt 0.358659 0.979003
vt 0.354777 0.980249
vt 0.218695 0.929355
vt 0.219626 0.931689
vt 0.220221 0.931773
vt 0.354584 0.980256
vt 0.354584 0.982721
vt 0.221193 0.929343
vt 0.220694 0.932145
vt 0.354777 0.982745
vt 0.222222 0.929426
vt 0.354585 0.983735
vt 0.354779 0.985192
vt 0.354586 0.985138
vt 0.223645 0.929541
vt 0.220920 0.932704
vt 0.225563 0.930015
vt 0.223660 0.929355
vt 0.226080 0.929952
vt 0.358659 0.983979
vt 0.358660 0.985179
vt 0.358661 0.986378
vt 0.354783 0.987527
vt 0.226034 0.930132
vt 0.358664 0.987506
vt 0.358666 0.988633
vt 0.354788 0.989688
vt 0.228299 0.931098
vt 0.228373 0.930931
vt 0.226032 0.933826
vt 0.227830 0.934667
vt 0.227760 0.935165
vt 0.228138 0.934272
vt 0.228602 0.934085
vt 0.231252 0.933190
vt 0.230380 0.932416
vt 0.227948 0.935630
vt 0.308237 0.994351
vt 0.308237 0.998617
vt 0.307757 0.998622
vt 0.308727 0.994355
vt 0.307757 0.994357
vt 0.733146 0.996582
vt 0.733500 0.992311
vt 0.733500 0.996580
vt 0.228343 0.935940
vt 0.733146 0.992313
vt 0.064842 0.980617
vt 0.064873 0.980264
vt 0.064913 0.980136
vt 0.733985 0.992311
vt 0.733985 0.996579
vt 0.734471 0.992311
vt 0.064953 0.980267
vt 0.228839 0.936011
vt 0.229303 0.935823
vt 0.232816 0.937094
vt 0.734471 0.996580
vt 0.229611 0.935428
vt 0.734826 0.992313
vt 0.734826 0.996582
vt 0.060726 0.980611
vt 0.064990 0.981110
vt 0.060736 0.981097
vt 0.232481 0.934366
vt 0.229680 0.934931
vt 0.064981 0.980624
vt 0.232348 0.933922
vt 0.233783 0.935962
vt 0.232224 0.934052
vt 0.230481 0.932266
vt 0.083555 0.992091
vt 0.079643 0.991214
vt 0.083490 0.990277
vt 0.079614 0.990240
vt 0.233927 0.935857
vt 0.079585 0.989267
vt 0.083438 0.988211
vt 0.083622 0.987123
vt 0.083639 0.988115
vt 0.079562 0.988181
vt 0.083400 0.985946
vt 0.079539 0.987095
vt 0.079524 0.985924
vt 0.079509 0.984753
vt 0.083377 0.983542
vt 0.083578 0.983504
vt 0.083601 0.985879
vt 0.235017 0.938098
vt 0.235894 0.940404
vt 0.234331 0.936910
vt 0.236390 0.942821
vt 0.083570 0.981053
vt 0.236494 0.945285
vt 0.083369 0.981059
vt 0.083578 0.978589
vt 0.079493 0.979804
vt 0.079493 0.982301
vt 0.079491 0.981054
vt 0.079305 0.981048
vt 0.079307 0.982279
vt 0.065482 0.973721
vt 0.065441 0.976155
vt 0.079501 0.983527
vt 0.079322 0.984700
vt 0.065369 0.978492
vt 0.079353 0.987013
vt 0.079397 0.989158
vt 0.065267 0.980672
vt 0.079455 0.991080
vt 0.065138 0.982638
vt 0.358874 0.992341
vt 0.358679 0.992487
vt 0.358874 0.992324
vt 0.065137 0.982655
vt 0.064977 0.981594
vt 0.060723 0.981581
vt 0.935328 0.998635
vt 0.935328 0.994366
vt 0.935682 0.994365
vt 0.064947 0.981948
vt 0.935682 0.998634
vt 0.064907 0.982076
vt 0.936167 0.994364
vt 0.064556 0.982627
vt 0.064867 0.981944
vt 0.936167 0.998633
vt 0.936652 0.994365
vt 0.064839 0.981587
vt 0.309093 0.994369
vt 0.309093 0.998635
vt 0.308727 0.998621
vt 0.936652 0.998634
vt 0.064830 0.981102
vt 0.064190 0.983177
vt 0.064282 0.984346
vt 0.064267 0.984928
vt 0.064271 0.983763
vt 0.064237 0.983335
vt 0.064541 0.987073
vt 0.064626 0.986782
vt 0.064986 0.984340
vt 0.064814 0.985733
vt 0.358856 0.986309
vt 0.358855 0.985292
vt 0.358861 0.988536
vt 0.358669 0.989660
vt 0.358867 0.990564
vt 0.358672 0.990687
vt 0.354795 0.991621
vt 0.358676 0.991587
vt 0.358854 0.983940
vt 0.064230 0.985352
vt 0.064428 0.987459
vt 0.064182 0.985506
vt 0.064225 0.987747
vt 0.358658 0.982739
vt 0.358853 0.981492
vt 0.358658 0.981500
vt 0.358658 0.980251
vt 0.358854 0.979026
vt 0.358856 0.976608
vt 0.063825 0.987134
vt 0.064134 0.985347
vt 0.064022 0.987637
vt 0.395804 0.997336
vt 0.395804 0.993067
vt 0.396387 0.993068
vt 0.088314 0.997217
vt 0.088314 0.992952
vt 0.088754 0.992968
vt 0.396387 0.997337
vt 0.064101 0.984919
vt 0.063812 0.987075
vt 0.064090 0.984337
vt 0.088754 0.997233
vt 0.089341 0.992973
vt 0.064105 0.983755
vt 0.089341 0.997239
vt 0.089918 0.992966
vt 0.849111 0.995699
vt 0.849111 0.991430
vt 0.849536 0.991428
vt 0.089918 0.997232
vt 0.064141 0.983331
vt 0.849536 0.995697
vt 0.850118 0.991427
vt 0.358857 0.976454
vt 0.358664 0.975386
vt 0.358666 0.974217
vt 0.219069 0.931913
vt 0.395223 0.997337
vt 0.395223 0.993068
vt 0.394798 0.997338
vt 0.394798 0.993069
vt 0.060027 0.984333
vt 0.060013 0.984915
vt 0.850701 0.995697
vt 0.850701 0.991428
vt 0.851128 0.991430
vt 0.850118 0.995696
vt 0.851128 0.995699
vt 0.220467 0.933774
vt 0.220836 0.933300
vt 0.060017 0.983750
vt 0.229492 0.934465
vt 0.229098 0.934155
vt 0.236202 0.947734
vt 0.223621 0.940805
vt 0.223600 0.940787
vt 0.222352 0.940255
vt 0.221004 0.940114
vt 0.224636 0.941665
vt 0.998848 0.443737
vt 0.997801 0.443736
vt 0.997778 0.442531
vt 0.225369 0.942809
vt 0.997836 0.444681
vt 0.998825 0.442533
vt 0.753024 0.059610
vt 0.753787 0.060733
vt 0.745350 0.061366
vt 0.998884 0.444702
vt 0.754187 0.062032
vt 0.997770 0.441195
vt 0.998817 0.441196
vt 0.793657 0.996178
vt 0.794735 0.997478
vt 0.793691 0.997479
vt 0.794702 0.996178
vt 0.794698 0.995498
vt 0.751965 0.058762
vt 0.745937 0.060141
vt 0.746859 0.059145
vt 0.748032 0.058465
vt 0.749353 0.058163
vt 0.750704 0.058265
vt 0.998664 0.494310
vt 0.999716 0.495486
vt 0.998668 0.495487
vt 0.999712 0.494310
vt 0.998663 0.492986
vt 0.998663 0.491630
vt 0.999710 0.492985
vt 0.998664 0.490364
vt 0.999710 0.491630
vt 0.219675 0.940378
vt 0.218484 0.941024
vt 0.999712 0.490364
vt 0.999714 0.489781
vt 0.217965 0.941555
vt 0.998668 0.489300
vt 0.999716 0.489300
vt 0.217536 0.941993
vt 0.794798 0.998604
vt 0.793754 0.998605
vt 0.216915 0.943200
vt 0.216677 0.944537
vt 0.216710 0.945218
vt 0.216843 0.945886
vt 0.997837 0.444701
vt 0.865180 0.992294
vt 0.864695 0.996563
vt 0.211732 0.938094
vt 0.211236 0.938023
vt 0.864210 0.996563
vt 0.864695 0.992294
vt 0.063487 0.980067
vt 0.063197 0.972377
vt 0.063526 0.980198
vt 0.864210 0.992294
vt 0.063446 0.980195
vt 0.063538 0.964718
vt 0.063470 0.964230
vt 0.063498 0.964586
vt 0.063129 0.965249
vt 0.063042 0.967515
vt 0.062985 0.969908
vt 0.062961 0.972366
vt 0.062969 0.974826
vt 0.063416 0.980548
vt 0.063167 0.981243
vt 0.063082 0.979497
vt 0.063010 0.977223
vt 0.997785 0.393714
vt 0.997785 0.397980
vt 0.997304 0.397986
vt 0.063404 0.981033
vt 0.997304 0.393720
vt 0.863855 0.996565
vt 0.863855 0.992296
vt 0.210841 0.937714
vt 0.210654 0.937248
vt 0.998274 0.393719
vt 0.210723 0.936751
vt 0.211031 0.936356
vt 0.998640 0.393732
vt 0.998274 0.397984
vt 0.998640 0.397998
vt 0.425889 0.994516
vt 0.062805 0.968663
vt 0.477768 0.998785
vt 0.478253 0.994516
vt 0.478253 0.998785
vt 0.477768 0.994516
vt 0.478739 0.994516
vt 0.063578 0.964590
vt 0.477414 0.998786
vt 0.063609 0.964237
vt 0.477414 0.994517
vt 0.059367 0.963739
vt 0.059355 0.964224
vt 0.214684 0.954172
vt 0.214496 0.953706
vt 0.214101 0.953396
vt 0.216412 0.955511
vt 0.214614 0.954669
vt 0.059358 0.963254
vt 0.063621 0.963752
vt 0.063612 0.963266
vt 0.063584 0.962910
vt 0.863500 0.996563
vt 0.863855 0.992296
vt 0.863855 0.996565
vt 0.863500 0.992294
vt 0.863014 0.996563
vt 0.863014 0.992294
vt 0.063544 0.962778
vt 0.862529 0.996563
vt 0.213842 0.955252
vt 0.214306 0.955064
vt 0.211129 0.956154
vt 0.213346 0.955181
vt 0.210966 0.956289
vt 0.213078 0.957621
vt 0.212960 0.957790
vt 0.215258 0.958767
vt 0.215168 0.958950
vt 0.216879 0.959309
vt 0.217532 0.959741
vt 0.217307 0.959453
vt 0.220124 0.959110
vt 0.219633 0.955118
vt 0.217593 0.959548
vt 0.225297 0.954428
vt 0.222534 0.955337
vt 0.221977 0.955562
vt 0.221607 0.956036
vt 0.221524 0.956633
vt 0.953179 0.992735
vt 0.952592 0.996996
vt 0.952592 0.992730
vt 0.953179 0.997001
vt 0.953619 0.992751
vt 0.952015 0.997003
vt 0.064169 0.960508
vt 0.064180 0.961091
vt 0.064184 0.959926
vt 0.952015 0.992737
vt 0.212359 0.995885
vt 0.212359 0.991616
vt 0.212785 0.991614
vt 0.064221 0.959502
vt 0.212785 0.995883
vt 0.222223 0.957563
vt 0.221750 0.957192
vt 0.213367 0.991613
vt 0.213367 0.995882
vt 0.222818 0.957648
vt 0.213949 0.991614
vt 0.064317 0.959507
vt 0.064269 0.959348
vt 0.213949 0.995883
vt 0.214376 0.991616
vt 0.064350 0.959934
vt 0.214376 0.995885
vt 0.064361 0.960517
vt 0.060096 0.959922
vt 0.060107 0.960504
vt 0.064346 0.961099
vt 0.223828 0.956352
vt 0.223603 0.955793
vt 0.223745 0.956949
vt 0.060092 0.961086
vt 0.223129 0.955422
vt 0.252733 0.993232
vt 0.252308 0.997503
vt 0.252308 0.993234
vt 0.252733 0.997502
vt 0.251726 0.997503
vt 0.251726 0.993234
vt 0.064261 0.961677
vt 0.064310 0.961523
vt 0.251143 0.997503
vt 0.064214 0.961519
vt 0.953619 0.997017
vt 0.251143 0.993234
vt 0.223375 0.957423
vt 0.225788 0.958420
vt 0.225886 0.959220
vt 0.224908 0.959548
vt 0.228533 0.958085
vt 0.227239 0.958767
vt 0.224939 0.959741
vt 0.227300 0.958950
vt 0.092405 0.979473
vt 0.222481 0.959944
vt 0.222482 0.960142
vt 0.092405 0.981970
vt 0.220226 0.959944
vt 0.219991 0.960142
vt 0.092406 0.984449
vt 0.220021 0.959944
vt 0.228986 0.957847
vt 0.229503 0.957790
vt 0.229415 0.957621
vt 0.231378 0.956139
vt 0.231492 0.956289
vt 0.233214 0.954488
vt 0.233079 0.954360
vt 0.478739 0.998785
vt 0.667894 0.994258
vt 0.092423 0.992952
vt 0.063730 0.958551
vt 0.064887 0.963813
vt 0.064971 0.962847
vt 0.064930 0.962975
vt 0.065205 0.962290
vt 0.064900 0.963329
vt 0.535281 0.994280
vt 0.535281 0.998546
vt 0.534800 0.998552
vt 0.229870 0.952322
vt 0.230058 0.952788
vt 0.534800 0.994286
vt 0.230453 0.953098
vt 0.868542 0.996565
vt 0.868897 0.992295
vt 0.868897 0.996564
vt 0.868542 0.992296
vt 0.230949 0.953168
vt 0.869382 0.992294
vt 0.869382 0.996563
vt 0.869867 0.992295
vt 0.065010 0.962979
vt 0.060781 0.964293
vt 0.231602 0.951623
vt 0.231208 0.951313
vt 0.997778 0.439845
vt 0.223388 0.948680
vt 0.999625 0.866139
vt 0.220761 0.949202
vt 0.222114 0.949140
vt 0.998573 0.869999
vt 0.999621 0.869999
vt 0.219448 0.948862
vn 0.4408 0.7071 0.5528
vn 0.4912 0.7422 0.4558
vn 0.5408 0.6750 0.5018
vn 0.0000 1.0000 0.0000
vn 0.6037 0.7422 0.2907
vn 0.3350 0.7422 0.5803
vn 0.3689 0.6750 0.6389
vn -0.2695 0.6750 0.6868
vn 0.6647 0.6750 0.3201
vn -0.0501 0.7422 0.6682
vn -0.0551 0.6750 0.7357
vn -0.2448 0.7422 0.6238
vn -0.4600 0.6750 0.5768
vn 0.7179 0.6827 0.1358
vn 0.1642 0.6750 0.7193
vn 0.6681 0.7332 0.1264
vn 0.7232 0.6907 0.0000
vn -0.7378 0.6750 0.0000
vn -0.7050 0.6750 0.2174
vn -0.6095 0.6750 0.4156
vn -0.5537 0.7422 0.3775
vn -0.5184 0.7071 0.4809
vn -0.4178 0.7422 0.5239
vn -0.6701 0.7422 0.0000
vn -0.6403 0.7422 0.1975
vn -0.5523 0.7703 0.3188
vn -0.3188 0.7703 0.5523
vn 0.0000 0.7702 0.6377
vn -0.5523 -0.7702 0.3189
vn -0.3188 -0.7703 0.5523
vn 0.0000 -1.0000 0.0000
vn 0.0000 -0.7702 0.6377
vn -0.3910 -0.9204 0.0000
vn 0.3188 0.7703 0.5523
vn 0.3188 -0.7702 0.5523
vn 0.5523 0.7703 0.3189
vn 0.5523 -0.7702 0.3189
vn -0.3931 -0.9186 0.0399
vn -0.3876 -0.9169 0.0955
vn -0.3672 -0.9169 0.1565
vn -0.8742 -0.3879 0.2918
vn -0.8983 -0.3795 0.2214
vn -0.9097 -0.3879 0.1479
vn -0.9132 0.3796 0.1484
vn -0.8775 0.3796 0.2929
vn -0.3785 0.9169 0.1263
vn -0.3526 0.9236 0.1503
vn -0.8192 0.3796 0.4299
vn -0.8511 -0.3795 0.3627
vn -0.8161 -0.3879 0.4283
vn -0.3534 0.9169 0.1854
vn -0.7819 -0.3795 0.4945
vn -0.7396 0.3796 0.5557
vn -0.3240 0.9236 0.2049
vn 0.6377 0.7703 0.0000
vn -0.3190 0.9169 0.2397
vn 0.5523 0.7703 -0.3188
vn -0.2869 0.9236 0.2542
vn 0.6377 -0.7703 0.0000
vn 0.3188 0.7702 -0.5524
vn 0.5523 -0.7703 -0.3189
vn -0.2988 -0.9169 0.2646
vn -0.3374 -0.9169 0.2134
vn -0.7368 -0.3879 0.5537
vn -0.6925 -0.3795 0.6135
vn -0.6409 0.3796 0.6672
vn -0.2657 -0.9235 0.2766
vn -0.6385 -0.3880 0.6647
vn -0.5851 -0.3795 0.7166
vn -0.2524 -0.9169 0.3092
vn -0.5255 0.3796 0.7614
vn -0.5235 -0.3879 0.7585
vn -0.4626 -0.3795 0.8012
vn -0.1996 -0.9169 0.3457
vn -0.1643 -0.9236 0.3464
vn -0.3951 -0.3879 0.8327
vn -0.3966 0.3796 0.8358
vn -0.3281 -0.3795 0.8650
vn -0.1415 -0.9168 0.3733
vn -0.2564 -0.3879 0.8853
vn -0.2574 0.3796 0.8886
vn -0.1850 -0.3795 0.9065
vn -0.1066 -0.9236 0.3683
vn -0.0798 -0.9168 0.3912
vn -0.0161 -0.9169 0.3988
vn -0.1111 -0.3879 0.9150
vn 0.0371 -0.3879 0.9209
vn -0.0372 -0.3795 0.9244
vn 0.0481 -0.9169 0.3962
vn 0.1115 -0.3796 0.9184
vn 0.1843 -0.3880 0.9030
vn 0.1110 -0.9169 0.3834
vn 0.2574 -0.3796 0.8886
vn 0.1360 -0.9236 0.3585
vn 0.3268 -0.3879 0.8618
vn 0.1359 -0.9236 0.3585
vn 0.3281 0.3795 0.8650
vn 0.3966 -0.3795 0.8358
vn 0.4626 0.3795 0.8012
vn 0.1711 -0.9169 0.3606
vn 0.4608 -0.3879 0.7982
vn 0.5256 -0.3796 0.7614
vn 0.2268 -0.9169 0.3285
vn 0.5851 0.3795 0.7166
vn 0.5829 -0.3879 0.7140
vn 0.6409 -0.3795 0.6673
vn 0.2765 -0.9169 0.2879
vn 0.2870 -0.9236 0.2542
vn 0.6899 -0.3879 0.6112
vn 0.6925 0.3795 0.6135
vn 0.7396 -0.3795 0.5557
vn 0.7790 -0.3880 0.4925
vn 0.7819 0.3795 0.4945
vn 0.3191 -0.9169 0.2397
vn 0.3240 -0.9235 0.2051
vn -0.6377 -0.7703 0.0000
vn -0.5523 -0.7703 -0.3189
vn -0.3189 -0.7702 -0.5523
vn -0.6377 0.7703 0.0000
vn -0.5523 0.7703 -0.3189
vn 0.2988 0.9170 0.2644
vn 0.3374 0.9169 0.2133
vn 0.3395 0.9236 0.1782
vn 0.8511 0.3795 0.3626
vn 0.3672 0.9169 0.1564
vn 0.8192 -0.3795 0.4299
vn 0.8479 -0.3879 0.3613
vn 0.8775 -0.3796 0.2929
vn 0.8983 0.3795 0.2214
vn 0.3876 0.9169 0.0955
vn 0.3931 0.9186 0.0399
vn 0.9222 0.3764 0.0886
vn 0.3910 0.9204 0.0000
vn 0.9132 -0.3795 0.1484
vn 0.9199 -0.3855 0.0721
vn 0.9262 0.3769 0.0022
vn 0.3931 0.9186 -0.0399
vn 0.9210 0.3787 -0.0906
vn 0.9257 -0.3783 0.0022
vn 0.3876 0.9169 -0.0955
vn 0.8983 0.3795 -0.2214
vn 0.9187 -0.3879 -0.0742
vn 0.9132 -0.3795 -0.1484
vn 0.8949 -0.3879 -0.2206
vn 0.3672 0.9169 -0.1564
vn 0.8511 0.3795 -0.3627
vn 0.8776 -0.3795 -0.2929
vn 0.3395 0.9236 -0.1781
vn 0.7819 0.3795 -0.4945
vn 0.8479 -0.3879 -0.3612
vn 0.8192 -0.3795 -0.4299
vn 0.3374 0.9169 -0.2134
vn 0.2988 0.9169 -0.2645
vn 0.6925 0.3796 -0.6135
vn 0.7790 -0.3879 -0.4926
vn 0.7396 -0.3795 -0.5558
vn 0.6899 -0.3879 -0.6112
vn 0.2657 0.9236 -0.2764
vn 0.5851 0.3795 -0.7166
vn 0.6409 -0.3795 -0.6673
vn 0.1996 0.9169 -0.3457
vn 0.2524 0.9169 -0.3092
vn 0.4626 0.3796 -0.8012
vn 0.5829 -0.3879 -0.7140
vn 0.5256 -0.3795 -0.7614
vn 0.2267 -0.9169 -0.3285
vn 0.4608 -0.3879 -0.7982
vn 0.2765 -0.9169 -0.2879
vn 0.1711 -0.9169 -0.3606
vn 0.2870 -0.9236 -0.2542
vn 0.0000 -0.7703 0.6377
vn 0.3191 -0.9169 -0.2398
vn -0.5523 -0.7703 0.3189
vn -0.3189 -0.7702 0.5523
vn 0.3189 -0.7703 0.5523
vn 0.3189 0.7703 0.5523
vn 0.0000 0.7703 0.6377
vn 0.5523 -0.7703 0.3188
vn 0.6377 0.7703 -0.0001
vn 0.5523 0.7702 -0.3188
vn 0.5523 -0.7703 -0.3188
vn 0.3189 0.7703 -0.5522
vn 0.1643 0.9236 -0.3464
vn 0.0000 0.7703 -0.6377
vn 0.0462 0.9236 -0.3806
vn -0.5523 0.7703 0.3189
vn -0.3189 0.7702 -0.5523
vn 0.0798 0.9169 -0.3910
vn 0.1415 0.9168 -0.3732
vn 0.3280 0.3795 -0.8650
vn 0.1851 0.3796 -0.9065
vn 0.2574 -0.3796 -0.8886
vn 0.1843 -0.3879 -0.9030
vn 0.0161 0.9169 -0.3988
vn 0.1115 -0.3795 -0.9185
vn 0.0372 0.3795 -0.9244
vn 0.3189 0.7702 0.5523
vn -0.0481 0.9169 -0.3962
vn -0.1115 0.3795 -0.9184
vn -0.0767 0.9236 -0.3756
vn -0.2574 0.3796 -0.8886
vn -0.1110 0.9169 -0.3833
vn -0.1359 0.9236 -0.3585
vn -0.3966 0.3796 -0.8358
vn -0.1850 -0.3795 -0.9065
vn -0.2564 -0.3879 -0.8853
vn -0.3281 -0.3795 -0.8650
vn -0.1711 0.9169 -0.3605
vn -0.3951 -0.3879 -0.8327
vn -0.4626 -0.3796 -0.8012
vn -0.5255 0.3796 -0.7614
vn -0.2267 0.9169 -0.3284
vn -0.3189 0.7703 0.5523
vn -0.2869 0.9236 -0.2542
vn -0.2764 0.9169 -0.2878
vn -0.5523 0.7702 -0.3189
vn -0.5523 -0.7702 -0.3189
vn -0.3188 -0.7703 -0.5523
vn -0.3189 0.7703 -0.5522
vn 0.0000 -0.7703 -0.6377
vn 0.0000 0.7702 -0.6377
vn 0.3188 -0.7703 -0.5523
vn 0.5523 -0.7702 -0.3189
vn -0.3240 0.9236 -0.2048
vn -0.7396 0.3796 -0.5557
vn -0.3534 0.9169 -0.1855
vn -0.3190 0.9169 -0.2397
vn -0.6409 0.3796 -0.6672
vn -0.6925 -0.3795 -0.6135
vn -0.7368 -0.3880 -0.5537
vn -0.8191 0.3796 -0.4299
vn -0.7819 -0.3795 -0.4945
vn -0.3526 0.9236 -0.1503
vn -0.8161 -0.3879 -0.4283
vn -0.8775 0.3796 -0.2929
vn -0.8511 -0.3795 -0.3627
vn -0.8742 -0.3879 -0.2918
vn -0.8983 -0.3795 -0.2214
vn -0.9131 0.3796 -0.1484
vn -0.3939 0.9169 -0.0640
vn -0.3786 0.9169 -0.1263
vn -0.3991 0.9169 0.0000
vn -0.3939 0.9169 0.0640
vn -0.9246 0.3808 0.0000
vn -0.9210 -0.3787 0.0906
vn -0.9210 -0.3787 -0.0906
vn -0.9253 -0.3793 0.0000
vn -0.3931 -0.9186 -0.0399
vn -0.3876 -0.9169 -0.0955
vn -0.9097 -0.3879 -0.1478
vn -0.3672 -0.9169 -0.1565
vn -0.3374 -0.9169 -0.2134
vn -0.2988 -0.9169 -0.2646
vn -0.2656 -0.9236 -0.2765
vn 0.5523 0.7703 0.3188
vn 0.3188 -0.7702 -0.5524
vn -0.1066 -0.9236 -0.3683
vn -0.1415 -0.9169 -0.3732
vn -0.2524 -0.9169 -0.3092
vn -0.1996 -0.9169 -0.3456
vn -0.5236 -0.3879 -0.7585
vn -0.5851 -0.3795 -0.7166
vn -0.6385 -0.3880 -0.6647
vn -0.0798 -0.9169 -0.3911
vn -0.0161 -0.9169 -0.3988
vn -0.1111 -0.3879 -0.9150
vn -0.0373 -0.3795 -0.9244
vn 0.0371 -0.3879 -0.9210
vn 0.0481 -0.9168 -0.3963
vn 0.1110 -0.9169 -0.3833
vn -0.3189 -0.7703 0.5523
vn -0.3189 0.7702 0.5523
vn -0.5523 -0.7703 0.3188
vn 0.1359 -0.9236 -0.3585
vn 0.3268 -0.3879 -0.8618
vn 0.3966 -0.3795 -0.8358
vn 0.3189 0.7702 -0.5523
vn 0.5523 0.7703 -0.3189
vn -0.5184 0.7071 -0.4809
vn -0.4178 0.7422 -0.5239
vn -0.2448 0.7422 -0.6238
vn -0.0501 0.7422 -0.6682
vn -0.5537 0.7422 -0.3775
vn -0.6095 0.6750 -0.4156
vn -0.6403 0.7422 -0.1975
vn -0.7050 0.6750 -0.2174
vn -0.4600 0.6750 -0.5768
vn 0.7179 0.6827 -0.1358
vn 0.6037 0.7422 -0.2907
vn 0.6647 0.6750 -0.3201
vn 0.6681 0.7332 -0.1264
vn 0.6894 0.7243 0.0000
vn -0.2695 0.6750 -0.6868
vn 0.5408 0.6750 -0.5018
vn 0.3689 0.6751 -0.6389
vn 0.1642 0.6750 -0.7193
vn -0.0551 0.6750 -0.7357
vn 0.1491 0.7422 -0.6533
vn 0.3350 0.7422 -0.5803
vn 0.4408 0.7071 -0.5528
vn 0.4912 0.7422 -0.4558
vn 0.3189 -0.7703 -0.5522
vn -0.3188 0.7703 -0.5523
vn 0.0000 -0.7702 -0.6377
vn -0.3189 -0.7703 -0.5522
vn 0.3534 -0.9169 0.1855
vn 0.3786 -0.9169 0.1264
vn 0.3940 -0.9169 0.0640
vn 0.3992 -0.9169 0.0000
vn 0.3940 -0.9169 -0.0640
vn 0.3240 -0.9236 -0.2049
vn 0.3534 -0.9169 -0.1855
vn 0.3786 -0.9169 -0.1264
vn -0.5523 0.7702 -0.3188
vn 0.8949 -0.3879 0.2206
vn 0.3188 -0.7703 0.5523
vn 0.3189 -0.7703 -0.5523
vn 0.3189 0.7703 -0.5523
vn 0.2657 0.9236 0.2762
vn 0.2524 0.9169 0.3092
vn 0.1996 0.9169 0.3457
vn 0.1643 0.9236 0.3464
vn 0.1415 0.9169 0.3732
vn -0.3188 -0.7702 -0.5523
vn 0.3188 0.7703 -0.5523
vn 0.3188 -0.7702 0.5524
vn -0.0767 0.9236 0.3756
vn -0.0481 0.9169 0.3962
vn -0.1359 0.9236 0.3584
vn -0.1110 0.9169 0.3833
vn -0.1115 0.3796 0.9184
vn 0.0161 0.9169 0.3988
vn 0.0372 0.3795 0.9244
vn 0.0462 0.9236 0.3806
vn 0.1850 0.3795 0.9065
vn 0.0798 0.9169 0.3910
vn -0.1711 0.9169 0.3606
vn -0.2267 0.9169 0.3284
vn -0.2765 0.9169 0.2878
vn -0.3189 -0.7703 -0.5523
vn -0.6377 0.7703 0.0001
vn -0.5523 0.7703 -0.3188
vn -0.3189 0.7703 -0.5523
vn 0.1491 0.7422 0.6533
usemtl motoman_scan_mat
s 1
f 2/1/1 1/2/2 6/3/3
f 1/4/2 2/5/1 3/6/4
f 4/7/4 1/4/2 3/6/4
f 5/8/5 1/4/2 4/7/4
f 6/9/3 1/10/2 5/11/5
f 7/12/6 6/3/3 8/13/7
f 2/1/1 6/3/3 7/12/6
f 8/14/7 6/15/3 10/16/8
f 10/16/8 6/15/3 9/17/9
f 6/9/3 5/11/5 9/18/9
f 10/19/8 11/20/10 14/21/11
f 10/19/8 12/22/12 11/20/10
f 13/23/13 12/22/12 10/19/8
f 16/24/14 13/25/13 10/16/8
f 15/26/15 10/16/8 14/27/11
f 8/14/7 10/16/8 15/26/15
f 10/16/8 9/17/9 16/24/14
f 16/28/14 17/29/16 18/30/17
f 9/18/9 17/29/16 16/28/14
f 16/24/14 18/31/17 19/32/18
f 16/24/14 19/32/18 20/33/19
f 20/33/19 21/34/20 16/24/14
f 16/24/14 21/34/20 13/25/13
f 21/35/20 22/36/21 23/37/22
f 20/38/19 22/36/21 21/35/20
f 21/35/20 23/37/22 13/39/13
f 24/40/4 23/41/22 26/42/4
f 24/40/4 25/43/23 23/41/22
f 13/39/13 23/37/22 25/44/23
f 26/42/4 23/41/22 22/45/21
f 26/42/4 30/46/4 24/40/4
f 27/47/24 26/42/4 29/48/25
f 28/49/4 26/42/4 27/47/24
f 28/49/4 32/50/4 26/42/4
f 26/42/4 22/45/21 29/48/25
f 26/42/4 31/51/26 30/46/4
f 34/52/27 31/51/26 26/42/4
f 32/50/4 33/53/28 26/42/4
f 26/42/4 33/53/28 34/52/27
f 34/54/27 35/55/29 31/56/26
f 33/57/28 36/58/30 34/59/27
f 34/54/27 36/60/30 35/55/29
f 37/61/31 36/62/30 38/63/32
f 35/64/29 36/62/30 37/61/31
f 33/57/28 38/65/32 36/58/30
f 37/61/31 38/63/32 40/66/33
f 39/67/34 38/65/32 33/57/28
f 39/67/34 41/68/35 38/65/32
f 40/66/33 38/63/32 41/69/35
f 42/70/36 41/68/35 39/67/34
f 42/70/36 44/71/37 41/68/35
f 40/66/33 41/69/35 43/72/38
f 41/69/35 46/73/39 43/72/38
f 44/74/37 45/75/40 41/69/35
f 41/69/35 45/75/40 46/73/39
f 47/76/41 49/77/42 46/78/39
f 45/79/40 47/76/41 46/78/39
f 46/78/39 48/80/43 43/81/38
f 46/78/39 49/77/42 48/80/43
f 50/82/44 49/77/42 51/83/45
f 50/82/44 48/80/43 49/77/42
f 49/77/42 47/76/41 51/83/45
f 51/83/45 52/84/46 50/82/44
f 51/83/45 53/85/47 52/84/46
f 55/86/48 53/85/47 51/83/45
f 51/83/45 47/76/41 54/87/49
f 51/83/45 54/87/49 55/86/48
f 54/87/49 56/88/50 55/86/48
f 55/86/48 60/89/51 53/85/47
f 55/86/48 56/88/50 57/90/52
f 55/86/48 57/90/52 58/91/53
f 55/92/48 58/93/53 59/94/54
f 59/94/54 60/95/51 55/92/48
f 32/50/4 53/96/47 60/95/51
f 59/94/54 32/50/4 60/95/51
f 59/94/54 61/97/55 32/50/4
f 62/98/56 61/97/55 59/94/54
f 58/93/53 62/98/56 59/94/54
f 62/98/56 64/99/57 61/97/55
f 58/93/53 63/100/58 62/98/56
f 63/100/58 64/99/57 62/98/56
f 64/101/57 67/102/59 61/103/55
f 63/100/58 65/104/60 64/99/57
f 65/105/60 66/106/61 64/107/57
f 64/101/57 66/108/61 67/102/59
f 61/103/55 67/102/59 44/74/37
f 66/108/61 68/109/62 67/102/59
f 67/102/59 68/109/62 69/110/63
f 67/102/59 69/110/63 44/74/37
f 68/111/62 70/112/64 69/113/63
f 69/113/63 57/90/52 56/88/50
f 56/88/50 45/79/40 69/113/63
f 69/113/63 70/112/64 57/90/52
f 44/74/37 69/110/63 45/75/40
f 57/90/52 70/112/64 58/91/53
f 58/91/53 70/112/64 71/114/65
f 68/111/62 71/114/65 70/112/64
f 58/91/53 71/114/65 73/115/66
f 72/116/67 71/117/65 68/118/62
f 72/116/67 74/119/68 71/117/65
f 71/117/65 74/119/68 73/120/66
f 73/120/66 74/119/68 76/121/69
f 75/122/70 74/119/68 72/116/67
f 75/122/70 76/121/69 74/119/68
f 73/120/66 76/121/69 77/123/71
f 76/121/69 78/124/72 77/123/71
f 78/124/72 76/121/69 75/122/70
f 77/123/71 78/124/72 79/125/73
f 80/126/74 79/125/73 78/124/72
f 78/124/72 75/122/70 80/126/74
f 81/127/75 83/128/76 80/126/74
f 82/129/31 81/130/75 80/131/74
f 80/126/74 83/128/76 79/125/73
f 82/129/31 80/131/74 75/132/70
f 79/125/73 83/128/76 84/133/77
f 84/133/77 83/128/76 85/134/78
f 81/127/75 85/134/78 83/128/76
f 86/135/79 85/134/78 81/127/75
f 86/135/79 88/136/80 85/134/78
f 85/134/78 88/136/80 87/137/81
f 84/133/77 85/134/78 87/137/81
f 87/137/81 88/136/80 89/138/82
f 90/139/83 89/138/82 88/136/80
f 90/139/83 88/136/80 86/135/79
f 90/140/83 86/141/79 91/142/31
f 91/142/31 92/143/84 90/140/83
f 92/144/84 89/138/82 90/139/83
f 91/142/31 94/145/85 92/143/84
f 92/144/84 93/146/86 89/138/82
f 94/147/85 93/146/86 92/144/84
f 95/148/87 96/149/88 94/147/85
f 97/150/89 95/148/87 94/147/85
f 97/151/89 94/145/85 91/142/31
f 94/147/85 96/149/88 93/146/86
f 97/150/89 98/152/90 95/148/87
f 99/153/91 98/152/90 97/150/89
f 100/154/92 97/151/89 91/142/31
f 100/155/92 99/153/91 97/150/89
f 91/142/31 102/156/31 100/154/92
f 100/155/92 101/157/93 99/153/91
f 103/158/94 101/157/93 100/155/92
f 100/154/92 102/156/31 103/159/94
f 103/158/94 105/160/95 101/157/93
f 102/156/31 104/161/96 103/159/94
f 104/162/96 105/160/95 103/158/94
f 101/157/93 105/160/95 106/163/97
f 106/163/97 105/160/95 107/164/98
f 104/162/96 107/164/98 105/160/95
f 106/163/97 107/164/98 109/165/99
f 108/166/100 107/164/98 104/162/96
f 108/166/100 110/167/101 107/164/98
f 107/164/98 110/167/101 109/165/99
f 109/165/99 110/167/101 112/168/102
f 111/169/103 110/167/101 108/166/100
f 111/169/103 112/168/102 110/167/101
f 109/165/99 112/168/102 113/170/104
f 112/168/102 114/171/105 113/170/104
f 114/171/105 112/168/102 111/169/103
f 113/170/104 114/171/105 115/172/106
f 116/173/107 115/172/106 114/171/105
f 116/173/107 114/171/105 111/169/103
f 116/174/107 111/175/103 118/176/31
f 117/177/108 119/178/109 116/174/107
f 118/176/31 117/177/108 116/174/107
f 119/178/109 115/179/106 116/174/107
f 115/179/106 119/178/109 120/180/110
f 120/180/110 119/178/109 121/181/111
f 117/177/108 121/181/111 119/178/109
f 121/181/111 123/182/112 122/183/113
f 120/180/110 121/181/111 122/183/113
f 124/184/114 123/182/112 121/181/111
f 124/184/114 121/181/111 117/177/108
f 125/185/115 123/182/112 124/184/114
f 124/184/114 126/186/116 125/185/115
f 117/177/108 127/187/117 124/184/114
f 124/184/114 127/187/117 126/186/116
f 117/177/108 129/188/118 127/187/117
f 130/189/119 126/190/116 127/191/117
f 128/192/120 127/193/117 129/194/118
f 130/189/119 127/191/117 128/195/120
f 128/196/120 131/197/121 130/198/119
f 130/198/119 131/197/121 132/199/122
f 133/200/26 126/190/116 130/189/119
f 130/198/119 132/199/122 133/201/26
f 133/201/26 132/199/122 136/202/123
f 133/200/26 134/203/29 126/190/116
f 135/204/27 134/203/29 133/200/26
f 136/202/123 135/205/27 133/201/26
f 139/206/124 137/207/125 136/202/123
f 136/202/123 137/207/125 4/7/4
f 122/208/113 136/202/123 132/199/122
f 136/202/123 138/209/28 135/205/27
f 4/7/4 138/209/28 136/202/123
f 139/206/124 136/202/123 122/208/113
f 122/183/113 140/210/126 139/211/124
f 140/210/126 141/212/127 139/211/124
f 139/211/124 141/212/127 142/213/128
f 139/211/124 142/213/128 143/214/129
f 143/215/129 144/216/130 139/206/124
f 139/206/124 144/216/130 137/207/125
f 4/7/4 137/207/125 144/216/130
f 145/217/4 144/216/130 146/218/131
f 4/7/4 144/216/130 145/217/4
f 143/215/129 146/218/131 144/216/130
f 148/219/132 147/220/133 146/218/131
f 145/217/4 146/218/131 147/220/133
f 148/219/132 146/218/131 143/215/129
f 148/221/132 149/222/134 150/223/135
f 143/214/129 149/222/134 148/221/132
f 151/224/136 147/220/133 148/219/132
f 148/221/132 150/223/135 151/225/136
f 151/224/136 152/226/137 147/220/133
f 154/227/138 152/226/137 151/224/136
f 151/225/136 150/223/135 153/228/139
f 151/225/136 153/228/139 154/229/138
f 154/227/138 155/230/140 152/226/137
f 158/231/141 155/230/140 154/227/138
f 153/228/139 156/232/142 154/229/138
f 154/229/138 156/232/142 157/233/143
f 154/229/138 157/233/143 158/234/141
f 157/233/143 160/235/144 158/234/141
f 158/231/141 159/236/145 155/230/140
f 162/237/146 159/236/145 158/231/141
f 158/234/141 160/235/144 161/238/147
f 158/234/141 161/238/147 162/239/146
f 162/237/146 163/240/148 159/236/145
f 166/241/149 163/240/148 162/237/146
f 161/238/147 164/242/150 162/239/146
f 162/239/146 164/242/150 165/243/151
f 162/239/146 165/243/151 166/244/149
f 166/241/149 168/245/152 163/240/148
f 166/241/149 167/246/153 168/245/152
f 171/247/154 167/246/153 166/241/149
f 165/243/151 169/248/155 166/244/149
f 166/244/149 169/248/155 170/249/156
f 166/244/149 170/249/156 171/250/154
f 170/249/156 173/251/157 171/250/154
f 171/247/154 172/252/158 167/246/153
f 175/253/159 172/252/158 171/247/154
f 171/250/154 173/251/157 174/254/160
f 171/255/154 174/256/160 175/257/159
f 175/253/159 176/258/161 177/259/162
f 178/260/163 176/258/161 175/253/159
f 175/253/159 177/259/162 172/252/158
f 174/256/160 179/261/164 175/257/159
f 175/257/159 180/262/165 178/263/163
f 175/257/159 179/261/164 180/262/165
f 182/264/166 180/262/165 179/261/164
f 180/262/165 181/265/167 178/263/163
f 181/265/167 180/262/165 182/264/166
f 185/266/168 183/267/31 182/268/166
f 182/268/166 183/267/31 184/269/169
f 181/265/167 182/264/166 184/270/169
f 182/264/166 179/261/164 185/271/168
f 186/272/170 183/267/31 185/266/168
f 185/266/168 174/254/160 186/272/170
f 185/271/168 179/261/164 174/256/160
f 186/272/170 190/273/171 183/267/31
f 186/272/170 173/251/157 187/274/172
f 187/274/172 188/275/173 186/272/170
f 186/272/170 174/254/160 173/251/157
f 186/272/170 188/275/173 189/276/174
f 189/276/174 190/273/171 186/272/170
f 193/277/175 183/267/31 190/273/171
f 191/278/176 190/279/171 192/280/177
f 191/278/176 193/281/175 190/279/171
f 192/280/177 190/279/171 189/282/174
f 194/283/36 193/281/175 191/278/176
f 194/283/36 195/284/178 193/281/175
f 193/277/175 195/285/178 183/267/31
f 196/286/179 195/285/178 194/287/36
f 196/286/179 197/288/59 195/285/178
f 195/285/178 197/288/59 183/267/31
f 200/289/180 197/288/59 196/286/179
f 183/267/31 197/288/59 198/290/31
f 199/291/181 198/290/31 197/288/59
f 200/289/180 199/291/181 197/288/59
f 201/292/182 199/293/181 200/294/180
f 200/295/180 145/217/4 201/296/182
f 202/297/4 145/217/4 200/295/180
f 200/295/180 196/298/179 202/297/4
f 202/297/4 203/299/4 145/217/4
f 205/300/4 203/299/4 202/297/4
f 204/301/183 202/297/4 176/258/161
f 204/301/183 205/300/4 202/297/4
f 202/297/4 196/298/179 194/302/36
f 202/297/4 177/259/162 176/258/161
f 202/297/4 194/302/36 191/303/176
f 191/303/176 192/304/177 202/297/4
f 192/304/177 172/252/158 202/297/4
f 202/297/4 172/252/158 177/259/162
f 206/305/4 207/306/4 205/300/4
f 211/307/184 206/305/4 205/300/4
f 205/300/4 207/306/4 203/299/4
f 213/308/185 208/309/186 205/300/4
f 208/309/186 209/310/119 205/300/4
f 205/300/4 209/310/119 210/311/120
f 212/312/187 205/300/4 210/311/120
f 211/307/184 205/300/4 212/312/187
f 213/308/185 205/300/4 215/313/188
f 215/313/188 205/300/4 214/314/189
f 214/314/189 205/300/4 204/301/183
f 215/313/188 214/314/189 216/315/190
f 217/316/191 215/313/188 216/315/190
f 213/308/185 215/313/188 217/316/191
f 216/317/190 218/318/192 217/319/191
f 218/318/192 219/320/193 217/319/191
f 213/308/185 217/316/191 222/321/194
f 217/319/191 219/320/193 220/322/195
f 217/319/191 220/322/195 221/323/196
f 222/321/194 217/316/191 221/324/196
f 223/325/177 213/308/185 222/321/194
f 223/325/177 222/321/194 224/326/197
f 222/327/194 221/323/196 225/328/198
f 224/326/197 222/321/194 225/329/198
f 224/326/197 225/329/198 226/330/36
f 225/328/198 221/323/196 227/331/199
f 226/330/36 225/329/198 228/332/200
f 225/328/198 227/331/199 228/333/200
f 228/333/200 231/334/201 229/335/202
f 229/336/202 206/305/4 228/332/200
f 230/337/55 228/332/200 206/305/4
f 226/330/36 228/332/200 230/337/55
f 228/333/200 227/331/199 231/334/201
f 232/338/203 231/339/201 236/340/204
f 229/336/202 231/339/201 232/338/203
f 227/331/199 233/341/205 231/334/201
f 233/341/205 234/342/206 231/334/201
f 231/334/201 234/342/206 235/343/207
f 231/334/201 235/343/207 236/344/204
f 232/338/203 236/340/204 241/345/208
f 235/343/207 237/346/209 236/344/204
f 236/344/204 237/346/209 238/347/210
f 236/344/204 238/347/210 239/348/211
f 240/349/212 236/340/204 239/350/211
f 241/345/208 236/340/204 240/349/212
f 241/345/208 242/351/4 232/338/203
f 240/349/212 242/351/4 241/345/208
f 243/352/186 248/353/119 242/351/4
f 243/352/186 242/351/4 244/354/213
f 244/354/213 242/351/4 245/355/177
f 247/356/214 245/355/177 242/351/4
f 246/357/215 242/351/4 240/349/212
f 232/338/203 242/351/4 229/336/202
f 247/356/214 242/351/4 246/357/215
f 229/336/202 242/351/4 206/305/4
f 242/351/4 28/49/4 206/305/4
f 242/351/4 248/353/119 28/49/4
f 248/353/119 251/358/216 28/49/4
f 248/359/119 249/360/116 250/361/217
f 243/362/186 249/360/116 248/359/119
f 248/359/119 250/361/217 251/363/216
f 251/364/216 253/365/218 252/366/219
f 251/358/216 252/367/219 28/49/4
f 251/364/216 250/368/217 253/365/218
f 250/369/217 37/61/31 253/370/218
f 37/61/31 254/371/220 253/370/218
f 252/366/219 253/365/218 254/372/220
f 256/373/221 254/372/220 255/374/222
f 37/61/31 255/375/222 254/371/220
f 252/366/219 254/372/220 256/373/221
f 256/376/221 258/377/182 257/378/4
f 28/49/4 256/376/221 257/378/4
f 28/49/4 252/367/219 256/376/221
f 256/373/221 255/374/222 258/379/182
f 257/378/4 258/377/182 260/380/180
f 258/379/182 259/381/223 260/382/180
f 258/379/182 255/374/222 259/381/223
f 260/383/180 262/384/59 261/385/55
f 263/386/224 260/380/180 261/387/55
f 260/383/180 259/388/223 262/384/59
f 257/378/4 260/380/180 263/386/224
f 266/389/225 264/390/226 263/386/224
f 263/386/224 264/390/226 257/378/4
f 263/386/224 261/387/55 265/391/227
f 266/389/225 263/386/224 265/391/227
f 247/356/214 267/392/228 266/389/225
f 267/393/228 268/394/229 266/395/225
f 268/394/229 269/396/230 266/395/225
f 247/356/214 266/389/225 265/391/227
f 271/397/231 264/390/226 266/389/225
f 266/395/225 269/396/230 270/398/232
f 266/395/225 270/398/232 271/399/231
f 271/399/231 272/400/233 264/401/226
f 270/398/232 273/402/234 271/399/231
f 275/403/235 272/400/233 271/399/231
f 271/399/231 273/402/234 274/404/236
f 271/399/231 274/404/236 275/403/235
f 274/404/236 276/405/237 275/403/235
f 275/403/235 276/405/237 277/406/238
f 275/403/235 277/406/238 278/407/239
f 278/407/239 279/408/240 275/403/235
f 275/403/235 280/409/241 272/400/233
f 275/403/235 279/408/240 280/409/241
f 280/410/241 279/411/240 257/378/4
f 257/378/4 272/412/233 280/410/241
f 257/378/4 279/411/240 32/50/4
f 279/411/240 281/413/242 32/50/4
f 278/407/239 281/414/242 279/408/240
f 32/50/4 281/413/242 282/415/243
f 283/416/244 282/417/243 281/414/242
f 283/416/244 281/414/242 278/407/239
f 50/82/44 282/417/243 283/416/244
f 50/82/44 283/416/244 286/418/245
f 278/407/239 284/419/246 283/416/244
f 283/416/244 284/419/246 285/420/247
f 283/416/244 285/420/247 286/418/245
f 286/418/245 48/80/43 50/82/44
f 43/81/38 48/80/43 286/418/245
f 40/421/33 286/418/245 285/420/247
f 43/81/38 286/418/245 40/421/33
f 285/420/247 284/419/246 287/422/248
f 40/421/33 285/420/247 287/422/248
f 255/375/222 287/423/248 288/424/249
f 40/66/33 287/423/248 255/375/222
f 287/422/248 289/425/250 288/426/249
f 287/422/248 284/419/246 289/425/250
f 288/426/249 289/425/250 277/406/238
f 277/406/238 289/425/250 278/407/239
f 278/407/239 289/425/250 284/419/246
f 255/375/222 288/424/249 259/388/223
f 259/388/223 288/424/249 290/427/251
f 276/405/237 290/428/251 288/426/249
f 288/426/249 277/406/238 276/405/237
f 290/428/251 274/404/236 273/402/234
f 276/405/237 274/404/236 290/428/251
f 259/388/223 290/427/251 262/384/59
f 290/428/251 273/402/234 291/429/252
f 262/384/59 290/427/251 291/430/252
f 291/429/252 269/396/230 292/431/253
f 291/429/252 270/398/232 269/396/230
f 273/402/234 270/398/232 291/429/252
f 262/384/59 291/430/252 292/432/253
f 292/433/253 268/434/229 293/435/254
f 292/431/253 269/396/230 268/394/229
f 293/436/254 294/437/178 292/432/253
f 292/432/253 294/437/178 262/384/59
f 261/385/55 294/437/178 295/438/255
f 261/385/55 262/384/59 294/437/178
f 295/439/255 294/440/178 296/441/35
f 293/436/254 296/442/35 294/437/178
f 295/439/255 296/441/35 297/443/176
f 293/436/254 298/444/171 296/442/35
f 297/443/176 296/441/35 298/445/171
f 299/446/31 298/444/171 293/436/254
f 299/446/31 300/447/174 298/444/171
f 245/448/177 298/445/171 300/449/174
f 297/443/176 298/445/171 245/448/177
f 301/450/29 300/447/174 299/446/31
f 244/451/213 300/452/174 301/453/29
f 245/448/177 300/449/174 244/454/213
f 243/362/186 301/453/29 249/360/116
f 244/451/213 301/453/29 243/362/186
f 249/455/116 301/450/29 299/446/31
f 299/446/31 37/61/31 250/369/217
f 299/446/31 198/290/31 37/61/31
f 183/267/31 198/290/31 299/446/31
f 304/456/220 183/267/31 299/446/31
f 302/457/59 299/446/31 306/458/37
f 299/446/31 302/457/59 303/459/223
f 305/460/256 299/446/31 303/459/223
f 304/456/220 299/446/31 305/460/256
f 306/458/37 299/446/31 307/461/257
f 299/446/31 310/462/258 307/461/257
f 299/446/31 293/436/254 308/463/259
f 308/463/259 309/464/260 299/446/31
f 299/446/31 309/464/260 310/462/258
f 249/455/116 299/446/31 250/369/217
f 310/465/258 235/343/207 307/466/257
f 310/465/258 237/346/209 235/343/207
f 309/467/260 237/346/209 310/465/258
f 309/467/260 238/347/210 237/346/209
f 311/468/261 238/347/210 309/467/260
f 308/469/259 311/468/261 309/467/260
f 238/347/210 311/468/261 239/348/211
f 239/348/211 311/468/261 312/470/262
f 308/469/259 312/470/262 311/468/261
f 239/348/211 312/470/262 267/471/228
f 312/470/262 313/472/263 267/471/228
f 313/472/263 312/470/262 308/469/259
f 267/471/228 313/472/263 268/434/229
f 293/435/254 268/434/229 313/472/263
f 293/435/254 313/472/263 308/469/259
f 307/466/257 234/342/206 315/473/264
f 307/466/257 235/343/207 234/342/206
f 306/458/37 307/461/257 314/474/35
f 314/474/35 307/461/257 315/475/264
f 234/342/206 233/341/205 315/473/264
f 314/474/35 315/475/264 316/476/171
f 316/476/171 315/475/264 317/477/265
f 315/473/264 318/478/266 317/479/265
f 315/473/264 233/341/205 318/478/266
f 317/479/265 318/478/266 319/480/267
f 319/480/267 318/478/266 227/331/199
f 227/331/199 318/478/266 233/341/205
f 221/323/196 319/480/267 227/331/199
f 221/323/196 320/481/268 319/480/267
f 317/479/265 319/480/267 320/481/268
f 320/481/268 220/322/195 321/482/269
f 220/322/195 320/481/268 221/323/196
f 320/481/268 321/482/269 317/479/265
f 321/482/269 220/322/195 219/320/193
f 321/482/269 219/320/193 322/483/270
f 322/484/270 323/485/271 321/486/269
f 321/486/269 323/485/271 317/477/265
f 223/487/177 316/488/171 323/489/271
f 316/476/171 317/477/265 323/485/271
f 324/490/272 323/491/271 325/492/273
f 223/487/177 323/489/271 324/493/272
f 322/484/270 325/494/273 323/485/271
f 326/495/274 325/494/273 322/484/270
f 326/495/274 327/496/116 325/494/273
f 208/497/186 325/492/273 327/498/116
f 324/490/272 325/492/273 208/497/186
f 183/267/31 327/496/116 326/495/274
f 183/267/31 328/499/217 327/496/116
f 208/497/186 327/498/116 209/500/119
f 209/500/119 327/498/116 328/501/217
f 210/502/120 328/503/217 329/504/118
f 209/500/119 328/501/217 210/505/120
f 329/506/118 328/499/217 183/267/31
f 210/502/120 329/504/118 212/507/187
f 329/506/118 183/267/31 304/456/220
f 212/507/187 329/504/118 304/508/220
f 322/483/270 218/318/192 326/509/274
f 184/269/169 183/267/31 326/495/274
f 326/509/274 330/510/275 184/270/169
f 326/509/274 218/318/192 330/510/275
f 184/270/169 330/510/275 331/511/276
f 331/511/276 330/510/275 216/317/190
f 216/317/190 330/510/275 218/318/192
f 178/263/163 331/511/276 216/317/190
f 178/263/163 181/265/167 331/511/276
f 184/270/169 331/511/276 181/265/167
f 324/512/272 208/309/186 213/308/185
f 324/512/272 213/308/185 223/325/177
f 322/483/270 219/320/193 218/318/192
f 224/513/197 316/488/171 223/487/177
f 224/513/197 314/514/35 316/488/171
f 226/515/36 306/516/37 314/514/35
f 226/515/36 314/514/35 224/513/197
f 230/517/55 306/458/37 226/518/36
f 230/517/55 302/457/59 306/458/37
f 332/519/277 305/520/256 303/521/223
f 211/522/184 305/520/256 332/519/277
f 211/522/184 304/508/220 305/520/256
f 332/519/277 303/521/223 333/523/278
f 332/524/277 206/305/4 211/307/184
f 333/525/278 206/305/4 332/524/277
f 230/337/55 206/305/4 333/525/278
f 333/526/278 302/457/59 230/517/55
f 333/526/278 303/459/223 302/457/59
f 212/507/187 304/508/220 211/522/184
f 247/356/214 295/527/255 297/528/176
f 297/528/176 245/355/177 247/356/214
f 265/391/227 261/387/55 295/527/255
f 265/391/227 295/527/255 247/356/214
f 282/415/243 52/529/46 32/50/4
f 50/82/44 52/84/46 282/417/243
f 257/378/4 264/390/226 272/412/233
f 246/357/215 267/392/228 247/356/214
f 246/357/215 239/350/211 267/392/228
f 257/378/4 32/50/4 28/49/4
f 40/66/33 255/375/222 37/61/31
f 240/349/212 239/350/211 246/357/215
f 216/315/190 204/301/183 178/260/163
f 216/315/190 214/314/189 204/301/183
f 207/306/4 337/530/279 334/531/280
f 334/531/280 335/532/281 207/306/4
f 207/306/4 335/532/281 336/533/282
f 207/306/4 336/533/282 203/299/4
f 207/306/4 338/534/283 337/530/279
f 206/305/4 28/49/4 207/306/4
f 28/49/4 338/534/283 207/306/4
f 340/535/284 338/536/283 339/537/285
f 28/49/4 339/538/285 338/534/283
f 337/539/279 338/536/283 340/535/284
f 340/535/284 339/537/285 343/540/286
f 341/541/287 340/542/284 342/543/288
f 341/544/287 337/539/279 340/535/284
f 343/545/286 342/543/288 340/542/284
f 343/540/286 27/546/24 19/547/18
f 343/540/286 339/537/285 27/546/24
f 19/32/18 342/543/288 343/545/286
f 342/548/288 344/549/289 347/550/290
f 342/548/288 345/551/291 344/549/289
f 346/552/292 345/551/291 342/548/288
f 19/32/18 18/31/17 342/543/288
f 18/30/17 346/552/292 342/548/288
f 348/553/293 342/543/288 347/554/290
f 341/541/287 342/543/288 348/553/293
f 348/553/293 347/554/290 349/555/294
f 349/555/294 350/556/295 348/553/293
f 348/553/293 350/556/295 351/557/296
f 348/553/293 351/557/296 352/558/297
f 348/559/293 334/560/280 341/561/287
f 348/559/293 335/562/281 334/560/280
f 352/563/297 335/562/281 348/559/293
f 351/564/296 336/565/282 352/563/297
f 352/563/297 336/565/282 335/562/281
f 350/566/295 353/567/298 351/564/296
f 351/564/296 353/567/298 336/565/282
f 203/299/4 336/533/282 353/568/298
f 353/568/298 354/569/299 203/299/4
f 350/566/295 354/570/299 353/567/298
f 355/571/300 354/570/299 350/566/295
f 203/299/4 354/569/299 355/572/300
f 349/573/294 355/571/300 350/566/295
f 349/573/294 356/574/301 355/571/300
f 145/217/4 355/572/300 356/575/301
f 203/299/4 355/572/300 145/217/4
f 347/550/290 356/576/301 349/577/294
f 347/550/290 344/549/289 356/576/301
f 145/217/4 356/575/301 344/578/289
f 145/217/4 345/579/291 346/580/292
f 145/217/4 346/580/292 4/7/4
f 4/7/4 346/580/292 17/581/16
f 18/30/17 17/29/16 346/552/292
f 344/578/289 345/579/291 145/217/4
f 341/544/287 334/582/280 337/539/279
f 27/47/24 339/538/285 28/49/4
f 178/260/163 204/301/183 176/258/161
f 201/292/182 357/583/302 199/293/181
f 358/584/221 357/583/302 201/292/182
f 145/217/4 358/585/221 201/296/182
f 163/240/148 358/585/221 145/217/4
f 163/240/148 359/586/303 358/585/221
f 359/587/303 360/588/304 358/584/221
f 358/584/221 360/588/304 357/583/302
f 360/589/304 362/590/31 357/591/302
f 359/587/303 361/592/305 360/588/304
f 360/589/304 361/593/305 362/590/31
f 357/591/302 362/590/31 198/290/31
f 362/590/31 364/594/32 198/290/31
f 125/185/115 126/186/116 362/590/31
f 126/186/116 134/595/29 362/590/31
f 134/595/29 363/596/30 362/590/31
f 362/590/31 363/596/30 364/594/32
f 368/597/306 362/590/31 365/598/307
f 365/598/307 362/590/31 366/599/308
f 366/599/308 362/590/31 367/600/309
f 362/590/31 372/601/310 367/600/309
f 125/185/115 362/590/31 368/597/306
f 362/590/31 373/602/217 369/603/311
f 362/590/31 369/603/311 370/604/312
f 370/604/312 371/605/313 362/590/31
f 362/590/31 371/605/313 372/601/310
f 362/590/31 361/593/305 373/602/217
f 375/606/119 374/607/116 373/608/217
f 369/603/311 373/602/217 374/609/116
f 375/606/119 373/608/217 376/610/314
f 376/611/314 373/612/217 361/592/305
f 376/613/314 359/586/303 163/240/148
f 375/614/119 376/613/314 163/240/148
f 376/611/314 361/592/305 359/587/303
f 168/245/152 375/614/119 163/240/148
f 377/615/186 374/607/116 375/606/119
f 167/246/153 377/616/186 375/614/119
f 167/246/153 375/614/119 168/245/152
f 172/252/158 377/616/186 167/246/153
f 172/252/158 378/617/272 377/616/186
f 378/618/272 188/619/173 377/615/186
f 377/615/186 188/619/173 374/607/116
f 192/304/177 378/617/272 172/252/158
f 378/618/272 189/620/174 188/619/173
f 192/280/177 189/282/174 378/621/272
f 187/274/172 374/609/116 188/275/173
f 369/603/311 374/609/116 187/274/172
f 372/601/310 157/233/143 156/232/142
f 160/235/144 157/233/143 372/601/310
f 160/235/144 372/601/310 371/605/313
f 372/601/310 156/232/142 367/600/309
f 371/605/313 161/238/147 160/235/144
f 371/605/313 164/242/150 161/238/147
f 370/604/312 164/242/150 371/605/313
f 169/248/155 165/243/151 370/604/312
f 369/603/311 169/248/155 370/604/312
f 370/604/312 165/243/151 164/242/150
f 369/603/311 170/249/156 169/248/155
f 187/274/172 170/249/156 369/603/311
f 368/597/306 140/210/126 125/185/115
f 365/598/307 141/212/127 368/597/306
f 368/597/306 141/212/127 140/210/126
f 367/600/309 153/228/139 150/223/135
f 366/599/308 367/600/309 150/223/135
f 367/600/309 156/232/142 153/228/139
f 366/599/308 379/622/315 365/598/307
f 366/599/308 149/222/134 379/622/315
f 150/223/135 149/222/134 366/599/308
f 143/214/129 379/622/315 149/222/134
f 379/622/315 142/213/128 365/598/307
f 142/213/128 379/622/315 143/214/129
f 365/598/307 142/213/128 141/212/127
f 380/623/34 364/624/32 138/625/28
f 380/623/34 381/626/316 364/624/32
f 138/625/28 364/624/32 363/627/30
f 198/290/31 364/594/32 381/628/316
f 383/629/36 381/626/316 380/623/34
f 198/290/31 381/628/316 382/630/178
f 383/629/36 382/631/178 381/626/316
f 384/632/55 382/630/178 383/633/36
f 4/7/4 384/634/55 383/635/36
f 383/635/36 380/636/34 4/7/4
f 4/7/4 385/637/4 384/634/55
f 385/637/4 386/638/278 384/634/55
f 386/639/278 387/640/59 384/632/55
f 384/632/55 387/640/59 382/630/178
f 118/176/31 387/640/59 388/641/181
f 118/176/31 382/630/178 387/640/59
f 386/639/278 388/641/181 387/640/59
f 118/176/31 388/641/181 390/642/317
f 389/643/318 388/644/181 386/645/278
f 389/643/318 390/646/317 388/644/181
f 392/647/184 391/648/220 390/646/317
f 390/642/317 391/649/220 118/176/31
f 392/647/184 390/646/317 389/643/318
f 393/650/187 391/648/220 392/647/184
f 392/651/184 389/652/318 385/637/4
f 394/653/319 392/651/184 385/637/4
f 393/654/187 392/651/184 394/653/319
f 393/654/187 394/653/319 128/196/120
f 128/196/120 394/653/319 131/197/121
f 120/655/110 131/197/121 394/653/319
f 394/653/319 385/637/4 395/656/320
f 113/657/104 394/653/319 395/656/320
f 120/655/110 394/653/319 113/657/104
f 395/656/320 385/637/4 396/658/321
f 109/659/99 395/656/320 396/658/321
f 113/657/104 395/656/320 109/659/99
f 385/637/4 397/660/322 396/658/321
f 106/661/97 396/658/321 397/660/322
f 109/659/99 396/658/321 106/661/97
f 106/661/97 397/660/322 398/662/322
f 398/662/322 397/660/322 385/637/4
f 399/663/4 398/662/322 401/664/4
f 399/663/4 400/665/323 398/662/322
f 398/662/322 400/665/323 106/661/97
f 401/664/4 398/662/322 385/637/4
f 401/664/4 3/6/4 402/666/4
f 4/7/4 3/6/4 401/664/4
f 401/664/4 402/666/4 403/667/28
f 403/667/28 404/668/27 401/664/4
f 406/669/186 401/664/4 404/668/27
f 405/670/119 401/664/4 406/669/186
f 405/670/119 399/663/4 401/664/4
f 401/664/4 385/637/4 4/7/4
f 406/671/186 408/672/116 405/673/119
f 406/671/186 407/674/29 408/672/116
f 404/675/27 407/674/29 406/671/186
f 405/673/119 408/672/116 409/676/217
f 118/176/31 408/677/116 407/678/29
f 118/176/31 409/679/217 408/677/116
f 405/673/119 409/676/217 411/680/120
f 411/681/120 409/682/217 410/683/324
f 102/156/31 410/684/324 409/679/217
f 102/156/31 409/679/217 118/176/31
f 411/681/120 410/683/324 412/685/303
f 412/686/303 399/663/4 411/687/120
f 411/687/120 399/663/4 405/670/119
f 412/685/303 414/688/304 413/689/221
f 413/690/221 399/663/4 412/686/303
f 412/685/303 410/683/324 414/688/304
f 413/689/221 414/688/304 415/691/256
f 415/692/256 414/693/304 91/142/31
f 414/693/304 410/684/324 102/156/31
f 91/142/31 414/693/304 102/156/31
f 416/694/325 415/691/256 417/695/61
f 413/689/221 415/691/256 416/694/325
f 91/142/31 417/696/61 415/692/256
f 416/694/325 417/695/61 418/697/278
f 91/142/31 419/698/59 417/696/61
f 418/699/278 417/696/61 419/698/59
f 82/129/31 419/698/59 91/142/31
f 418/699/278 419/698/59 421/700/55
f 421/700/55 419/698/59 420/701/178
f 82/129/31 420/701/178 419/698/59
f 402/666/4 421/702/55 422/703/255
f 418/704/278 421/702/55 402/666/4
f 421/700/55 420/701/178 422/705/255
f 402/666/4 422/703/255 424/706/34
f 422/707/255 423/708/326 424/709/34
f 422/707/255 420/710/178 423/708/326
f 424/709/34 425/711/32 403/712/28
f 424/709/34 423/708/326 425/711/32
f 403/667/28 402/666/4 424/706/34
f 425/713/32 423/714/326 82/129/31
f 403/712/28 425/711/32 426/715/30
f 426/716/30 425/713/32 118/176/31
f 118/176/31 425/713/32 82/129/31
f 407/678/29 426/716/30 118/176/31
f 404/675/27 426/717/30 407/674/29
f 403/712/28 426/715/30 404/718/27
f 423/714/326 420/701/178 82/129/31
f 416/719/325 418/704/278 427/720/4
f 427/720/4 418/704/278 402/666/4
f 427/720/4 431/721/327 428/722/328
f 427/720/4 428/722/328 399/663/4
f 427/720/4 402/666/4 429/723/329
f 429/723/329 430/724/330 427/720/4
f 427/720/4 430/724/330 431/721/327
f 416/719/325 427/720/4 413/690/221
f 413/690/221 427/720/4 399/663/4
f 432/725/331 428/722/328 431/721/327
f 87/726/81 431/721/327 430/724/330
f 432/725/331 431/721/327 87/726/81
f 87/137/81 89/138/82 432/727/331
f 432/725/331 433/728/332 428/722/328
f 89/138/82 93/146/86 432/727/331
f 434/729/333 433/728/332 432/725/331
f 432/727/331 93/146/86 96/149/88
f 432/727/331 96/149/88 434/730/333
f 434/729/333 435/731/334 433/728/332
f 436/732/335 435/731/334 434/729/333
f 96/149/88 95/148/87 434/730/333
f 434/730/333 95/148/87 98/152/90
f 434/730/333 98/152/90 436/733/335
f 436/732/335 437/734/336 435/731/334
f 98/152/90 99/153/91 436/733/335
f 400/665/323 437/734/336 436/732/335
f 436/733/335 99/153/91 101/157/93
f 436/733/335 101/157/93 106/163/97
f 106/661/97 400/665/323 436/732/335
f 399/663/4 435/731/334 437/734/336
f 437/734/336 400/665/323 399/663/4
f 399/663/4 433/728/332 435/731/334
f 399/663/4 428/722/328 433/728/332
f 87/726/81 430/724/330 429/723/329
f 429/723/329 30/46/4 438/735/329
f 429/723/329 402/666/4 30/46/4
f 429/723/329 438/735/329 84/736/77
f 429/723/329 84/736/77 87/726/81
f 84/736/77 438/735/329 439/737/337
f 438/735/329 30/46/4 439/737/337
f 30/46/4 440/738/338 439/737/337
f 77/739/71 439/737/337 440/738/338
f 84/736/77 439/737/337 77/739/71
f 73/740/66 440/738/338 441/741/339
f 30/46/4 441/741/339 440/738/338
f 77/739/71 440/738/338 73/740/66
f 73/740/66 441/741/339 63/100/58
f 63/100/58 441/741/339 30/46/4
f 24/40/4 402/666/4 3/6/4
f 24/40/4 30/46/4 402/666/4
f 393/650/187 129/194/118 391/648/220
f 128/192/120 129/194/118 393/650/187
f 391/649/220 129/188/118 117/177/108
f 118/176/31 391/649/220 117/177/108
f 385/637/4 389/652/318 386/638/278
f 198/290/31 382/630/178 118/176/31
f 4/7/4 380/636/34 138/209/28
f 138/625/28 363/627/30 135/742/27
f 135/204/27 363/743/30 134/203/29
f 357/591/302 198/290/31 199/291/181
f 37/61/31 198/290/31 118/176/31
f 187/274/172 173/251/157 170/249/156
f 145/217/4 159/236/145 163/240/148
f 145/217/4 155/230/140 159/236/145
f 152/226/137 155/230/140 145/217/4
f 145/217/4 147/220/133 152/226/137
f 122/183/113 123/182/112 140/210/126
f 125/185/115 140/210/126 123/182/112
f 120/655/110 132/199/122 131/197/121
f 122/208/113 132/199/122 120/655/110
f 113/170/104 115/172/106 120/744/110
f 118/176/31 82/129/31 37/61/31
f 118/176/31 111/175/103 108/745/100
f 118/176/31 108/745/100 102/156/31
f 102/156/31 108/745/100 104/161/96
f 91/142/31 86/141/79 81/130/75
f 91/142/31 81/130/75 82/129/31
f 77/123/71 79/125/73 84/133/77
f 37/61/31 82/129/31 445/746/116
f 442/747/220 443/748/340 82/129/31
f 72/749/67 442/747/220 82/129/31
f 72/749/67 82/129/31 75/132/70
f 82/129/31 443/748/340 444/750/117
f 82/129/31 444/750/117 445/746/116
f 37/61/31 445/746/116 35/64/29
f 446/751/341 445/752/116 444/753/117
f 31/56/26 35/55/29 445/752/116
f 31/56/26 445/752/116 446/751/341
f 30/46/4 446/754/341 447/755/342
f 31/51/26 446/754/341 30/46/4
f 446/751/341 444/753/117 447/756/342
f 447/755/342 448/757/343 30/46/4
f 447/758/342 443/759/340 448/760/343
f 447/758/342 444/761/117 443/759/340
f 30/46/4 448/757/343 449/762/184
f 448/760/343 442/763/220 449/764/184
f 448/760/343 443/759/340 442/763/220
f 449/762/184 65/104/60 63/100/58
f 30/46/4 449/762/184 63/100/58
f 449/764/184 450/765/317 65/105/60
f 449/764/184 442/763/220 450/765/317
f 65/105/60 450/765/317 66/106/61
f 450/766/317 442/747/220 72/749/67
f 450/766/317 72/749/67 66/108/61
f 73/740/66 63/100/58 58/93/53
f 66/108/61 72/749/67 68/109/62
f 61/103/55 44/74/37 42/767/36
f 61/97/55 42/768/36 32/50/4
f 56/88/50 54/87/49 45/79/40
f 45/79/40 54/87/49 47/76/41
f 32/50/4 52/529/46 53/96/47
f 42/768/36 39/769/34 32/50/4
f 32/50/4 39/769/34 33/53/28
f 20/38/19 29/770/25 22/36/21
f 19/547/18 29/770/25 20/38/19
f 19/547/18 27/546/24 29/770/25
f 12/771/12 25/43/23 24/40/4
f 13/23/13 25/772/23 12/22/12
f 24/40/4 451/773/344 11/774/10
f 3/6/4 451/773/344 24/40/4
f 24/40/4 11/774/10 12/771/12
f 15/775/15 451/776/344 7/12/6
f 3/6/4 7/777/6 451/773/344
f 14/21/11 451/776/344 15/775/15
f 14/21/11 11/20/10 451/776/344
f 9/18/9 5/11/5 17/29/16
f 4/7/4 17/581/16 5/8/5
f 7/12/6 8/13/7 15/775/15
f 2/5/1 7/777/6 3/6/4
