# Blender v2.82 (sub 7) OBJ File: 'motoman.blend'
# www.blender.org
mtllib arm_left_link_7_t.mtl
o arm_left_link_7_t.projected_link_b1.031
v 0.091387 1.128999 0.008357
v 0.092625 1.128999 0.009345
v 0.092625 1.128999 0.016127
v 0.084238 1.128999 0.016127
v 0.089414 1.128999 0.005463
v 0.091387 1.126299 0.008357
v 0.094125 1.128999 0.010541
v 0.094125 1.126299 0.010541
v 0.089414 1.126299 0.005463
v 0.104293 1.126299 0.011303
v 0.100878 1.128999 0.012082
v 0.104293 1.128999 0.011303
v 0.107326 1.126299 0.009551
v 0.100878 1.126299 0.012082
v 0.097386 1.126299 0.011820
v 0.088382 1.126299 0.002116
v 0.088382 1.128999 0.002116
v 0.088250 1.126299 0.000365
v 0.111750 1.126299 0.000365
v 0.111228 1.126299 0.003828
v 0.109709 1.126299 0.006984
v 0.109709 1.128999 0.006984
v 0.107375 1.128999 0.009499
v 0.107375 1.128999 0.016127
v 0.107326 1.128999 0.009551
v 0.115762 1.128999 0.016127
v 0.111750 1.128999 0.000365
v 0.115762 1.128999 -0.015397
v 0.111228 1.128999 0.003828
v 0.115762 1.128999 0.026602
v 0.120109 1.128999 0.021389
v 0.132137 1.128999 0.016127
v 0.122274 1.128999 0.020139
v 0.121024 1.128999 0.020474
v 0.120109 1.139999 0.021389
v 0.121024 1.139999 0.020474
v 0.111387 1.139999 0.000365
v 0.122274 1.139999 0.020139
v 0.123524 1.128999 0.020474
v 0.139500 1.139999 0.000365
v 0.123524 1.139999 0.020474
v 0.124439 1.128999 0.021389
v 0.139372 1.139999 0.003543
v 0.124439 1.139999 0.021389
v 0.136340 1.139999 0.015848
v 0.138353 1.139999 0.009818
v 0.137819 1.139499 0.012991
v 0.139354 1.139499 0.006761
v 0.138838 1.139499 0.009937
v 0.139482 1.129499 0.006781
v 0.137942 1.129499 0.013032
v 0.137468 1.128999 0.012873
v 0.136081 1.128999 0.016127
v 0.136800 1.139499 0.016044
v 0.135419 1.129499 0.018954
v 0.135304 1.139499 0.018894
v 0.133808 1.139499 0.021743
v 0.131978 1.129499 0.024395
v 0.132137 1.128999 0.023210
v 0.134976 1.128999 0.018721
v 0.124774 1.128999 0.022639
v 0.131578 1.128999 0.024094
v 0.129357 1.128999 0.026602
v 0.124439 1.128999 0.023889
v 0.123524 1.128999 0.024804
v 0.124439 1.139999 0.023889
v 0.124774 1.139999 0.022639
v 0.129567 1.139999 0.026558
v 0.133385 1.139999 0.021476
v 0.131874 1.139499 0.024317
v 0.129941 1.139499 0.026890
v 0.129521 1.139999 0.026602
v 0.127709 1.129499 0.029213
v 0.127619 1.139499 0.029119
v 0.124982 1.139999 0.030962
v 0.125298 1.139499 0.031349
v 0.122723 1.129499 0.033284
v 0.122649 1.139499 0.033178
v 0.120000 1.139499 0.035006
v 0.119750 1.139999 0.034573
v 0.114709 1.139999 0.036965
v 0.111387 1.139999 0.026602
v 0.117092 1.139499 0.036386
v 0.117148 1.129499 0.036503
v 0.114185 1.139499 0.037766
v 0.114007 1.139999 0.037298
v 0.111129 1.129499 0.038786
v 0.111093 1.139499 0.038661
v 0.108001 1.139499 0.039557
v 0.111387 1.139999 0.038057
v 0.111387 1.139999 0.036965
v 0.107901 1.139999 0.039067
v 0.104806 1.139499 0.039944
v 0.101591 1.139999 0.039833
v 0.098395 1.139499 0.040203
v 0.101611 1.139499 0.040332
v 0.095239 1.139999 0.039577
v 0.095179 1.139499 0.040073
v 0.092025 1.139499 0.039429
v 0.089011 1.139999 0.038305
v 0.088872 1.139499 0.038786
v 0.088613 1.139999 0.036965
v 0.088613 1.139999 0.038155
v 0.085476 1.139999 0.036965
v 0.085862 1.139499 0.037644
v 0.085816 1.129499 0.037766
v 0.082853 1.139499 0.036503
v 0.083067 1.139999 0.036051
v 0.080000 1.129499 0.035006
v 0.080065 1.139499 0.034894
v 0.077562 1.139999 0.032873
v 0.077278 1.139499 0.033284
v 0.074703 1.129499 0.031349
v 0.074785 1.139499 0.031249
v 0.072291 1.139499 0.029213
v 0.072638 1.139999 0.028852
v 0.070644 1.139999 0.026602
v 0.088613 1.139999 0.026602
v 0.070157 1.139499 0.026804
v 0.070060 1.129499 0.026890
v 0.068023 1.139499 0.024395
v 0.066193 1.129499 0.021743
v 0.066302 1.139499 0.021674
v 0.068422 1.139999 0.024094
v 0.067863 1.139999 0.023210
v 0.075227 1.139999 0.022639
v 0.075561 1.139999 0.023889
v 0.075561 1.128999 0.023889
v 0.076477 1.139999 0.024804
v 0.075227 1.128999 0.022639
v 0.070434 1.128999 0.026558
v 0.066615 1.128999 0.021476
v 0.075561 1.128999 0.021389
v 0.075561 1.139999 0.021389
v 0.076477 1.128999 0.020474
v 0.063808 1.128999 0.016127
v 0.063661 1.128999 0.015848
v 0.077727 1.128999 0.020139
v 0.063201 1.129499 0.016044
v 0.064582 1.139499 0.018954
v 0.063321 1.139499 0.015993
v 0.062059 1.139499 0.013032
v 0.061163 1.129499 0.009937
v 0.061648 1.128999 0.009818
v 0.084238 1.128999 -0.015397
v 0.060629 1.128999 0.003543
v 0.060500 1.128999 0.000365
v 0.060130 1.129499 0.003584
v 0.060518 1.139499 0.006781
v 0.060259 1.139499 0.003573
v 0.060000 1.129499 0.000365
v 0.060629 1.128999 -0.002813
v 0.060000 1.139499 0.000365
v 0.060130 1.129499 -0.002854
v 0.061648 1.128999 -0.009088
v 0.060259 1.139499 -0.002843
v 0.060518 1.139499 -0.006052
v 0.061163 1.129499 -0.009208
v 0.063661 1.128999 -0.015118
v 0.061289 1.139499 -0.009177
v 0.062059 1.139499 -0.012302
v 0.063201 1.129499 -0.015314
v 0.063808 1.128999 -0.015397
v 0.063321 1.139499 -0.015263
v 0.064582 1.139499 -0.018224
v 0.066193 1.129499 -0.021014
v 0.070434 1.128999 -0.025828
v 0.066615 1.128999 -0.020746
v 0.066302 1.139499 -0.020944
v 0.068023 1.139499 -0.023665
v 0.070060 1.129499 -0.026160
v 0.070480 1.128999 -0.025872
v 0.070157 1.139499 -0.026074
v 0.072291 1.139499 -0.028483
v 0.074703 1.129499 -0.030619
v 0.080250 1.128999 -0.033843
v 0.075019 1.128999 -0.030232
v 0.080000 1.129499 -0.034276
v 0.074785 1.139499 -0.030519
v 0.077278 1.139499 -0.032554
v 0.080065 1.139499 -0.034164
v 0.077562 1.139999 -0.032143
v 0.088613 1.139999 -0.025872
v 0.083067 1.139999 -0.035321
v 0.072638 1.139999 -0.028123
v 0.070644 1.139999 -0.025872
v 0.068422 1.139999 -0.023364
v 0.075561 1.139999 -0.023159
v 0.076477 1.139999 -0.024074
v 0.077727 1.139999 -0.024409
v 0.078977 1.128999 -0.024074
v 0.077727 1.128999 -0.024409
v 0.078977 1.139999 -0.024074
v 0.079892 1.128999 -0.023159
v 0.079892 1.139999 -0.023159
v 0.080227 1.128999 -0.021909
v 0.080227 1.139999 -0.021909
v 0.088613 1.139999 0.000365
v 0.079892 1.139999 -0.020659
v 0.079892 1.128999 -0.020659
v 0.078977 1.128999 -0.019744
v 0.084238 1.128999 -0.025872
v 0.092625 1.128999 -0.015397
v 0.084238 1.128999 -0.035735
v 0.092625 1.128999 -0.025872
v 0.107375 1.128999 -0.025872
v 0.107375 1.128999 -0.015397
v 0.097402 1.128999 -0.031835
v 0.097000 1.128999 -0.030335
v 0.097402 1.128999 -0.028835
v 0.100000 1.128999 -0.027335
v 0.098500 1.128999 -0.027737
v 0.092625 1.128999 -0.038401
v 0.085993 1.128999 -0.036568
v 0.092099 1.128999 -0.038337
v 0.085816 1.129499 -0.037036
v 0.091999 1.129499 -0.038827
v 0.088872 1.139499 -0.038056
v 0.092025 1.139499 -0.038700
v 0.095179 1.139499 -0.039343
v 0.098390 1.129499 -0.039603
v 0.098410 1.128999 -0.039103
v 0.100000 1.128999 -0.033335
v 0.101500 1.128999 -0.032933
v 0.104762 1.128999 -0.038847
v 0.102598 1.128999 -0.031835
v 0.104822 1.129499 -0.039343
v 0.107375 1.128999 -0.038313
v 0.110990 1.128999 -0.037575
v 0.103000 1.128999 -0.030335
v 0.111129 1.129499 -0.038056
v 0.115762 1.128999 -0.035766
v 0.108001 1.139499 -0.038827
v 0.111093 1.139499 -0.037931
v 0.114185 1.139499 -0.037036
v 0.117148 1.129499 -0.035773
v 0.117092 1.139499 -0.035656
v 0.120000 1.139499 -0.034276
v 0.122723 1.129499 -0.032554
v 0.122439 1.128999 -0.032143
v 0.116934 1.128999 -0.035321
v 0.115762 1.128999 -0.025872
v 0.120109 1.128999 -0.023159
v 0.121024 1.128999 -0.024074
v 0.122274 1.128999 -0.024409
v 0.127363 1.128999 -0.028123
v 0.129357 1.128999 -0.025872
v 0.119774 1.128999 -0.021909
v 0.119774 1.139999 -0.021909
v 0.120109 1.139999 -0.020659
v 0.120109 1.128999 -0.020659
v 0.121024 1.128999 -0.019744
v 0.121024 1.139999 -0.019744
v 0.122274 1.139999 -0.019409
v 0.123524 1.139999 -0.019744
v 0.122274 1.128999 -0.019409
v 0.132137 1.128999 -0.015397
v 0.123524 1.128999 -0.019744
v 0.124439 1.139999 -0.020659
v 0.124439 1.128999 -0.020659
v 0.124774 1.128999 -0.021909
v 0.124774 1.139999 -0.021909
v 0.132137 1.128999 -0.022481
v 0.134976 1.128999 -0.017992
v 0.131578 1.128999 -0.023364
v 0.131978 1.129499 -0.023665
v 0.127709 1.129499 -0.028483
v 0.129941 1.139499 -0.026160
v 0.131874 1.139499 -0.023587
v 0.133808 1.139499 -0.021014
v 0.135419 1.129499 -0.018224
v 0.136081 1.128999 -0.015397
v 0.135304 1.139499 -0.018164
v 0.136800 1.139499 -0.015314
v 0.137942 1.129499 -0.012302
v 0.137819 1.139499 -0.012261
v 0.138838 1.139499 -0.009208
v 0.139482 1.129499 -0.006052
v 0.138989 1.128999 -0.005971
v 0.137468 1.128999 -0.012144
v 0.139500 1.128999 0.000365
v 0.138989 1.128999 0.006701
v 0.140000 1.129499 0.000365
v 0.139871 1.139499 -0.002854
v 0.140000 1.139499 0.000365
v 0.139871 1.139499 0.003584
v 0.139372 1.139999 -0.002813
v 0.138353 1.139999 -0.009088
v 0.139354 1.139499 -0.006031
v 0.136340 1.139999 -0.015118
v 0.133385 1.139999 -0.020746
v 0.129567 1.139999 -0.025828
v 0.129521 1.139999 -0.025872
v 0.124439 1.139999 -0.023159
v 0.124439 1.128999 -0.023159
v 0.123524 1.139999 -0.024074
v 0.123524 1.128999 -0.024074
v 0.122274 1.139999 -0.024409
v 0.111387 1.139999 -0.025872
v 0.121024 1.139999 -0.024074
v 0.120109 1.139999 -0.023159
v 0.103000 1.139999 -0.030335
v 0.102598 1.139999 -0.028835
v 0.100000 1.139999 -0.027335
v 0.101500 1.139999 -0.027737
v 0.102598 1.139999 -0.031835
v 0.111387 1.139999 -0.037327
v 0.124982 1.139999 -0.030232
v 0.119750 1.139999 -0.033843
v 0.114007 1.139999 -0.036568
v 0.122649 1.139499 -0.032448
v 0.125298 1.139499 -0.030619
v 0.127619 1.139499 -0.028390
v 0.101500 1.139999 -0.032933
v 0.107901 1.139999 -0.038337
v 0.100000 1.139999 -0.033335
v 0.101591 1.139999 -0.039103
v 0.104806 1.139499 -0.039215
v 0.101611 1.139499 -0.039603
v 0.098395 1.139499 -0.039473
v 0.095239 1.139999 -0.038847
v 0.089011 1.139999 -0.037575
v 0.098500 1.139999 -0.032933
v 0.098500 1.128999 -0.032933
v 0.097402 1.139999 -0.031835
v 0.088613 1.139999 -0.037425
v 0.097000 1.139999 -0.030335
v 0.097402 1.139999 -0.028835
v 0.098500 1.139999 -0.027737
v 0.085862 1.139499 -0.036914
v 0.082853 1.139499 -0.035773
v 0.101500 1.128999 -0.027737
v 0.102598 1.128999 -0.028835
v 0.107326 1.128999 -0.008822
v 0.104293 1.128999 -0.010573
v 0.100878 1.128999 -0.011352
v 0.107375 1.128999 -0.008769
v 0.109709 1.128999 -0.006254
v 0.111228 1.128999 -0.003098
v 0.109709 1.126299 -0.006254
v 0.107326 1.126299 -0.008822
v 0.088382 1.126299 -0.001386
v 0.111228 1.126299 -0.003098
v 0.089414 1.128999 -0.004733
v 0.088382 1.128999 -0.001386
v 0.088250 1.128999 0.000365
v 0.089414 1.126299 -0.004733
v 0.104293 1.126299 -0.010573
v 0.091387 1.126299 -0.007627
v 0.094125 1.126299 -0.009811
v 0.097386 1.126299 -0.011090
v 0.100878 1.126299 -0.011352
v 0.097386 1.128999 -0.011090
v 0.094125 1.128999 -0.009811
v 0.092625 1.128999 -0.008615
v 0.091387 1.128999 -0.007627
v 0.078977 1.139999 -0.019744
v 0.077727 1.128999 -0.019409
v 0.076477 1.128999 -0.019744
v 0.077727 1.139999 -0.019409
v 0.076477 1.139999 -0.019744
v 0.067863 1.139999 0.000365
v 0.076477 1.139999 0.020474
v 0.077727 1.139999 0.020139
v 0.062533 1.139999 0.012873
v 0.061012 1.139999 0.006701
v 0.060500 1.139999 0.000365
v 0.065025 1.139999 0.018721
v 0.067863 1.139999 -0.022481
v 0.065025 1.139999 -0.017992
v 0.062533 1.139999 -0.012144
v 0.061012 1.139999 -0.005971
v 0.075561 1.139999 -0.020659
v 0.075227 1.139999 -0.021909
v 0.075227 1.128999 -0.021909
v 0.075561 1.128999 -0.020659
v 0.075561 1.128999 -0.023159
v 0.076477 1.128999 -0.024074
v 0.061289 1.139499 0.009906
v 0.078977 1.128999 0.020474
v 0.078977 1.139999 0.020474
v 0.079892 1.139999 0.021389
v 0.079892 1.128999 0.021389
v 0.080227 1.128999 0.022639
v 0.084238 1.128999 0.026602
v 0.079892 1.128999 0.023889
v 0.080227 1.139999 0.022639
v 0.079892 1.139999 0.023889
v 0.078977 1.128999 0.024804
v 0.078977 1.139999 0.024804
v 0.077727 1.139999 0.025139
v 0.077727 1.128999 0.025139
v 0.076477 1.128999 0.024804
v 0.070480 1.128999 0.026602
v 0.075019 1.128999 0.030962
v 0.080250 1.128999 0.034573
v 0.084238 1.128999 0.036465
v 0.085291 1.128999 0.036965
v 0.092625 1.128999 0.036965
v 0.085993 1.128999 0.037298
v 0.092625 1.128999 0.026602
v 0.107375 1.128999 0.026602
v 0.100000 1.128999 0.028065
v 0.098500 1.128999 0.028467
v 0.097000 1.128999 0.031065
v 0.097402 1.128999 0.029565
v 0.097402 1.139999 0.029565
v 0.097000 1.139999 0.031065
v 0.097402 1.139999 0.032565
v 0.098500 1.139999 0.033663
v 0.097402 1.128999 0.032565
v 0.098500 1.128999 0.033663
v 0.100000 1.128999 0.034065
v 0.100000 1.139999 0.034065
v 0.101500 1.139999 0.033663
v 0.101500 1.128999 0.033663
v 0.102598 1.139999 0.032565
v 0.102598 1.128999 0.032565
v 0.103000 1.139999 0.031065
v 0.102598 1.139999 0.029565
v 0.103000 1.128999 0.031065
v 0.102598 1.128999 0.029565
v 0.101500 1.139999 0.028467
v 0.101500 1.128999 0.028467
v 0.100000 1.139999 0.028065
v 0.098500 1.139999 0.028467
v 0.107375 1.128999 0.036965
v 0.104762 1.128999 0.039577
v 0.114524 1.128999 0.036965
v 0.110990 1.128999 0.038305
v 0.107375 1.128999 0.039043
v 0.104822 1.129499 0.040073
v 0.098410 1.128999 0.039833
v 0.098390 1.129499 0.040332
v 0.092625 1.128999 0.039130
v 0.091999 1.129499 0.039557
v 0.092099 1.128999 0.039067
v 0.115762 1.128999 0.036495
v 0.116934 1.128999 0.036051
v 0.122439 1.128999 0.032873
v 0.127363 1.128999 0.028852
v 0.122274 1.139999 0.025139
v 0.121024 1.139999 0.024804
v 0.120109 1.139999 0.023889
v 0.119774 1.139999 0.022639
v 0.119774 1.128999 0.022639
v 0.120109 1.128999 0.023889
v 0.121024 1.128999 0.024804
v 0.122274 1.128999 0.025139
v 0.123524 1.139999 0.024804
v 0.097386 1.128999 0.011820
vt 0.998576 0.860433
vt 0.998577 0.859952
vt 0.999625 0.859952
vt 0.837566 0.975179
vt 0.837604 0.975564
vt 0.837595 0.978197
vt 0.837327 0.978184
vt 0.837506 0.974053
vt 0.901480 0.993001
vt 0.902527 0.993002
vt 0.902497 0.994150
vt 0.998574 0.861017
vt 0.999622 0.861017
vt 0.836606 0.976028
vt 0.836521 0.975176
vt 0.836931 0.976339
vt 0.836462 0.974050
vt 0.901450 0.994149
vt 0.999622 0.864963
vt 0.998573 0.863639
vt 0.999621 0.863639
vt 0.998574 0.864963
vt 0.999625 0.866139
vt 0.836433 0.972749
vt 0.837030 0.975664
vt 0.836709 0.976529
vt 0.836821 0.976636
vt 0.901435 0.995460
vt 0.902482 0.995462
vt 0.901433 0.996141
vt 0.836432 0.972069
vt 0.837184 0.972106
vt 0.837163 0.973449
vt 0.837110 0.974671
vt 0.838154 0.974675
vt 0.838076 0.975647
vt 0.838068 0.978219
vt 0.838336 0.978232
vt 0.838075 0.975667
vt 0.838323 0.982298
vt 0.838228 0.972109
vt 0.838207 0.973452
vt 0.838377 0.965998
vt 0.838860 0.978258
vt 0.838468 0.980281
vt 0.838499 0.979927
vt 0.838539 0.979799
vt 0.344636 0.998846
vt 0.344990 0.994576
vt 0.344990 0.998845
vt 0.344151 0.998846
vt 0.344636 0.994577
vt 0.939928 0.168522
vt 0.937180 0.176718
vt 0.936684 0.176648
vt 0.937575 0.177028
vt 0.344151 0.994577
vt 0.929132 0.169837
vt 0.343666 0.998846
vt 0.343666 0.994577
vt 0.936220 0.176835
vt 0.307390 0.998621
vt 0.307757 0.994369
vt 0.307757 0.998634
vt 0.307390 0.994355
vt 0.929332 0.171055
vt 0.930021 0.173424
vt 0.935912 0.177230
vt 0.931080 0.175653
vt 0.930361 0.174626
vt 0.929825 0.173498
vt 0.929476 0.172298
vt 0.839301 0.974643
vt 0.843144 0.975878
vt 0.839244 0.977066
vt 0.843165 0.974646
vt 0.843107 0.977062
vt 0.839035 0.977003
vt 0.838987 0.978264
vt 0.839155 0.979360
vt 0.843071 0.978245
vt 0.843019 0.979349
vt 0.838948 0.979269
vt 0.842968 0.980452
vt 0.839038 0.981467
vt 0.838851 0.981007
vt 0.838616 0.980773
vt 0.838832 0.981349
vt 0.838604 0.981258
vt 0.838758 0.982319
vt 0.306421 0.998622
vt 0.306901 0.994351
vt 0.306901 0.998617
vt 0.838573 0.981612
vt 0.731820 0.992311
vt 0.731465 0.996582
vt 0.731465 0.992313
vt 0.306421 0.994357
vt 0.936030 0.178193
vt 0.934188 0.179461
vt 0.935842 0.177727
vt 0.932481 0.177682
vt 0.933180 0.178710
vt 0.932316 0.177810
vt 0.931607 0.176782
vt 0.842902 0.981448
vt 0.842837 0.982444
vt 0.934045 0.179611
vt 0.838895 0.983330
vt 0.934207 0.179476
vt 0.935042 0.180361
vt 0.088333 0.992952
vt 0.088330 0.992053
vt 0.092210 0.992087
vt 0.088327 0.991154
vt 0.936157 0.180943
vt 0.936039 0.181111
vt 0.092205 0.990156
vt 0.088324 0.990128
vt 0.937142 0.181692
vt 0.088322 0.989102
vt 0.938337 0.182089
vt 0.938246 0.182272
vt 0.940386 0.182774
vt 0.939428 0.182668
vt 0.941171 0.178628
vt 0.088320 0.987974
vt 0.092201 0.987996
vt 0.088318 0.986847
vt 0.940610 0.183063
vt 0.940671 0.182870
vt 0.941840 0.183263
vt 0.088317 0.985648
vt 0.092197 0.985662
vt 0.088316 0.984449
vt 0.941713 0.183040
vt 0.943070 0.183464
vt 0.941662 0.182619
vt 0.943100 0.183265
vt 0.945559 0.183266
vt 0.944315 0.183464
vt 0.946789 0.183263
vt 0.945560 0.183464
vt 0.947986 0.182870
vt 0.948018 0.183063
vt 0.949198 0.182667
vt 0.950318 0.182089
vt 0.950407 0.181554
vt 0.950379 0.182272
vt 0.950463 0.182012
vt 0.951480 0.181692
vt 0.951612 0.181407
vt 0.088316 0.977024
vt 0.088317 0.975855
vt 0.092198 0.975837
vt 0.088318 0.974686
vt 0.952582 0.181111
vt 0.092201 0.973577
vt 0.952493 0.180943
vt 0.953576 0.180361
vt 0.088320 0.973603
vt 0.088322 0.972519
vt 0.954457 0.179461
vt 0.954570 0.179611
vt 0.092205 0.971518
vt 0.088324 0.971550
vt 0.955431 0.178710
vt 0.088327 0.970580
vt 0.956157 0.177682
vt 0.956292 0.177810
vt 0.949916 0.177563
vt 0.956816 0.176722
vt 0.956998 0.176782
vt 0.371990 0.969246
vt 0.371958 0.970208
vt 0.368078 0.970171
vt 0.371925 0.971170
vt 0.957703 0.175754
vt 0.371899 0.972248
vt 0.368020 0.972217
vt 0.957551 0.175652
vt 0.958235 0.174626
vt 0.957723 0.175286
vt 0.954869 0.175410
vt 0.954799 0.175907
vt 0.954491 0.176302
vt 0.837030 0.980697
vt 0.841284 0.980710
vt 0.841293 0.981195
vt 0.828990 0.992312
vt 0.828990 0.996581
vt 0.828634 0.996580
vt 0.837039 0.981182
vt 0.836871 0.982210
vt 0.836756 0.980232
vt 0.837042 0.980212
vt 0.836673 0.978152
vt 0.841296 0.980225
vt 0.425534 0.998785
vt 0.425889 0.994515
vt 0.425889 0.998784
vt 0.837073 0.979858
vt 0.367975 0.974466
vt 0.367788 0.974536
vt 0.367790 0.974426
vt 0.836668 0.978043
vt 0.367832 0.972315
vt 0.837113 0.979730
vt 0.371873 0.973325
vt 0.371854 0.974490
vt 0.371835 0.975654
vt 0.367944 0.976861
vt 0.367757 0.976901
vt 0.836612 0.975700
vt 0.837368 0.965949
vt 0.836587 0.973263
vt 0.367742 0.979348
vt 0.367928 0.979339
vt 0.367740 0.980582
vt 0.836587 0.972030
vt 0.371812 0.978099
vt 0.371808 0.979346
vt 0.367926 0.980589
vt 0.367742 0.981814
vt 0.367928 0.981836
vt 0.371804 0.980594
vt 0.367757 0.984234
vt 0.367944 0.984287
vt 0.371808 0.981835
vt 0.371812 0.983076
vt 0.371823 0.984279
vt 0.367788 0.986547
vt 0.367975 0.986629
vt 0.371835 0.985481
vt 0.367790 0.986654
vt 0.368020 0.988802
vt 0.371854 0.986613
vt 0.371873 0.987746
vt 0.367832 0.988693
vt 0.367890 0.990615
vt 0.368078 0.990748
vt 0.371899 0.988779
vt 0.371925 0.989812
vt 0.371958 0.990719
vt 0.982152 0.991700
vt 0.982347 0.991537
vt 0.982347 0.991555
vt 0.982144 0.989901
vt 0.371990 0.991626
vt 0.978267 0.990835
vt 0.982333 0.987750
vt 0.982339 0.989778
vt 0.982138 0.987847
vt 0.978264 0.989868
vt 0.978260 0.988902
vt 0.951377 0.154420
vt 0.951452 0.154253
vt 0.952506 0.154920
vt 0.978258 0.987821
vt 0.950305 0.153764
vt 0.953459 0.155738
vt 0.947430 0.157352
vt 0.949113 0.153453
vt 0.954331 0.156512
vt 0.953559 0.155588
vt 0.951680 0.157407
vt 0.954493 0.156416
vt 0.955303 0.157374
vt 0.952571 0.157787
vt 0.952176 0.157477
vt 0.951216 0.157594
vt 0.344990 0.998846
vt 0.345476 0.994577
vt 0.345476 0.998846
vt 0.344990 0.994577
vt 0.345961 0.994577
vt 0.341189 0.998621
vt 0.341556 0.994368
vt 0.341556 0.998634
vt 0.341189 0.994355
vt 0.950908 0.157989
vt 0.340700 0.998616
vt 0.340700 0.994350
vt 0.950839 0.158486
vt 0.340219 0.998622
vt 0.948673 0.167457
vt 0.951027 0.158952
vt 0.340219 0.994356
vt 0.867216 0.992295
vt 0.866862 0.996565
vt 0.866862 0.992296
vt 0.837235 0.963901
vt 0.837205 0.964254
vt 0.837381 0.961884
vt 0.837248 0.963416
vt 0.837636 0.965962
vt 0.837650 0.961897
vt 0.837394 0.958056
vt 0.837264 0.958784
vt 0.837239 0.962930
vt 0.837092 0.960178
vt 0.837211 0.962574
vt 0.837171 0.962442
vt 0.836941 0.961863
vt 0.838122 0.961920
vt 0.838109 0.965985
vt 0.837888 0.961341
vt 0.837666 0.957035
vt 0.837811 0.959590
vt 0.837796 0.960172
vt 0.837807 0.960755
vt 0.837840 0.961182
vt 0.837649 0.957059
vt 0.837451 0.957736
vt 0.982326 0.983154
vt 0.982329 0.985523
vt 0.982134 0.985592
vt 0.982131 0.983193
vt 0.982326 0.982950
vt 0.978252 0.984406
vt 0.978251 0.983182
vt 0.982325 0.980705
vt 0.978250 0.981959
vt 0.982130 0.980713
vt 0.837896 0.959012
vt 0.837852 0.956771
vt 0.837943 0.959170
vt 0.982326 0.978240
vt 0.838055 0.956880
vt 0.837977 0.959598
vt 0.982131 0.978217
vt 0.838138 0.957092
vt 0.982327 0.977225
vt 0.982134 0.975768
vt 0.982329 0.975822
vt 0.838253 0.957384
vt 0.837988 0.960181
vt 0.982332 0.973969
vt 0.982138 0.973431
vt 0.978252 0.976982
vt 0.978253 0.975782
vt 0.978255 0.974581
vt 0.982333 0.973514
vt 0.978258 0.973452
vt 0.978261 0.972323
vt 0.982144 0.971266
vt 0.982339 0.971376
vt 0.838440 0.958268
vt 0.838391 0.961933
vt 0.838403 0.958093
vt 0.838612 0.959510
vt 0.838526 0.962993
vt 0.838514 0.963477
vt 0.838557 0.962639
vt 0.838597 0.962511
vt 0.838826 0.961954
vt 0.838765 0.961077
vt 0.838523 0.963963
vt 0.842768 0.963490
vt 0.842777 0.963976
vt 0.047514 0.992460
vt 0.047158 0.996728
vt 0.047158 0.992459
vt 0.838551 0.964319
vt 0.047514 0.996729
vt 0.935583 0.160833
vt 0.935275 0.161228
vt 0.934811 0.161416
vt 0.046673 0.996727
vt 0.046673 0.992458
vt 0.046188 0.996728
vt 0.934315 0.161345
vt 0.838591 0.964451
vt 0.838631 0.964323
vt 0.838901 0.966024
vt 0.046188 0.992459
vt 0.838662 0.963969
vt 0.045834 0.996729
vt 0.045834 0.992461
vt 0.819424 0.994357
vt 0.818944 0.998629
vt 0.818944 0.994363
vt 0.838910 0.963274
vt 0.838674 0.963485
vt 0.819424 0.998623
vt 0.839100 0.962815
vt 0.838996 0.965021
vt 0.838894 0.962931
vt 0.838970 0.960939
vt 0.842906 0.961855
vt 0.842964 0.962857
vt 0.839203 0.964932
vt 0.843023 0.963859
vt 0.839028 0.966030
vt 0.843067 0.964967
vt 0.839276 0.967234
vt 0.843111 0.966075
vt 0.843140 0.967262
vt 0.843169 0.968448
vt 0.839318 0.969662
vt 0.839108 0.969692
vt 0.839068 0.967294
vt 0.839117 0.972152
vt 0.839092 0.974610
vt 0.839326 0.972153
vt 0.843185 0.973414
vt 0.843194 0.970916
vt 0.843194 0.972165
vt 0.929128 0.171099
vt 0.928925 0.169865
vt 0.928823 0.168620
vt 0.929031 0.168607
vt 0.929125 0.166143
vt 0.928870 0.167372
vt 0.928918 0.166124
vt 0.843181 0.969682
vt 0.933920 0.161036
vt 0.929613 0.163726
vt 0.929165 0.164901
vt 0.929412 0.163677
vt 0.929851 0.162509
vt 0.933732 0.160570
vt 0.930481 0.161420
vt 0.930911 0.160260
vt 0.931706 0.159284
vt 0.930291 0.161342
vt 0.931532 0.159179
vt 0.931722 0.159265
vt 0.933802 0.160073
vt 0.818455 0.998624
vt 0.818455 0.994359
vt 0.818088 0.998611
vt 0.934110 0.159677
vt 0.818088 0.994345
vt 0.934574 0.159490
vt 0.349355 0.994583
vt 0.349355 0.998852
vt 0.348870 0.998852
vt 0.938685 0.158417
vt 0.935070 0.159560
vt 0.348870 0.994583
vt 0.348385 0.998852
vt 0.935464 0.159870
vt 0.348385 0.994583
vt 0.348031 0.998854
vt 0.842781 0.963005
vt 0.348031 0.994585
vt 0.935652 0.160336
vt 0.942989 0.157321
vt 0.941694 0.156306
vt 0.941778 0.155710
vt 0.941920 0.156865
vt 0.942393 0.157237
vt 0.938143 0.154005
vt 0.937172 0.154420
vt 0.933258 0.157374
vt 0.935096 0.155738
vt 0.937067 0.154253
vt 0.936016 0.154921
vt 0.934965 0.155588
vt 0.934034 0.156416
vt 0.978264 0.971293
vt 0.978267 0.970264
vt 0.933103 0.157244
vt 0.982152 0.969328
vt 0.978271 0.969362
vt 0.932318 0.158211
vt 0.978275 0.968460
vt 0.938212 0.153764
vt 0.939433 0.153453
vt 0.942147 0.155235
vt 0.939357 0.153274
vt 0.942704 0.155010
vt 0.941820 0.152863
vt 0.940565 0.152975
vt 0.941774 0.152676
vt 0.978250 0.979462
vt 0.978251 0.978222
vt 0.978250 0.980710
vt 0.978057 0.979470
vt 0.978057 0.981935
vt 0.978058 0.984351
vt 0.946723 0.152863
vt 0.943299 0.155095
vt 0.944272 0.152665
vt 0.755147 0.997397
vt 0.755147 0.993128
vt 0.755729 0.993127
vt 0.755729 0.997396
vt 0.756154 0.993126
vt 0.943773 0.155467
vt 0.946883 0.152903
vt 0.943998 0.156025
vt 0.842065 0.959603
vt 0.842050 0.960185
vt 0.756154 0.997395
vt 0.943915 0.156622
vt 0.842061 0.960767
vt 0.207761 0.991618
vt 0.207761 0.995887
vt 0.207334 0.995885
vt 0.943545 0.157096
vt 0.207334 0.991616
vt 0.206751 0.995885
vt 0.946739 0.152676
vt 0.947949 0.152975
vt 0.949159 0.153274
vt 0.978255 0.986740
vt 0.978253 0.985573
vt 0.837847 0.959166
vt 0.754564 0.997396
vt 0.754564 0.993127
vt 0.092685 0.997223
vt 0.092685 0.992957
vt 0.093125 0.992973
vt 0.093125 0.997239
vt 0.092098 0.997217
vt 0.092098 0.992952
vt 0.206170 0.991616
vt 0.206170 0.995885
vt 0.205744 0.995887
vt 0.206752 0.991616
vt 0.205744 0.991618
vt 0.837936 0.961187
vt 0.837973 0.960763
vt 0.091522 0.997224
vt 0.091522 0.992958
vt 0.838665 0.962999
vt 0.838637 0.962643
vt 0.982347 0.969462
vt 0.982330 0.986203
vt 0.838100 0.968558
vt 0.838098 0.968537
vt 0.838004 0.967853
vt 0.837895 0.967545
vt 0.838171 0.969537
vt 0.837127 0.969534
vt 0.838216 0.970764
vt 0.837172 0.970761
vt 0.837054 0.968534
vt 0.836438 0.971390
vt 0.901435 0.996819
vt 0.902497 0.998105
vt 0.901450 0.998104
vt 0.902482 0.996820
vt 0.902480 0.996143
vt 0.836959 0.967849
vt 0.836475 0.970093
vt 0.836542 0.968973
vt 0.836633 0.968129
vt 0.836739 0.967638
vt 0.836851 0.967542
vt 0.999669 0.664187
vt 0.998624 0.663009
vt 0.999672 0.663009
vt 0.998621 0.664187
vt 0.999667 0.665513
vt 0.999667 0.666868
vt 0.998619 0.665513
vt 0.999669 0.668133
vt 0.998619 0.666868
vt 0.837783 0.967641
vt 0.837677 0.968133
vt 0.998621 0.668133
vt 0.998623 0.668714
vt 0.837627 0.968594
vt 0.999672 0.669195
vt 0.998624 0.669194
vt 0.837587 0.968976
vt 0.902527 0.999202
vt 0.901480 0.999201
vt 0.837520 0.970096
vt 0.837482 0.971393
vt 0.837476 0.972073
vt 0.837478 0.972753
vt 0.867216 0.996564
vt 0.867701 0.992294
vt 0.837165 0.964382
vt 0.836714 0.965918
vt 0.837125 0.964250
vt 0.868186 0.992295
vt 0.867701 0.996563
vt 0.951917 0.159332
vt 0.956641 0.166487
vt 0.951421 0.159262
vt 0.868187 0.996564
vt 0.952381 0.159145
vt 0.953790 0.174564
vt 0.954681 0.174944
vt 0.954286 0.174635
vt 0.958601 0.173424
vt 0.959281 0.171055
vt 0.959572 0.168607
vt 0.959469 0.166143
vt 0.958972 0.163726
vt 0.952689 0.158750
vt 0.955559 0.157688
vt 0.956862 0.159284
vt 0.958096 0.161420
vt 0.837088 0.963408
vt 0.841342 0.963421
vt 0.841351 0.963907
vt 0.952759 0.158253
vt 0.837097 0.963894
vt 0.868542 0.992296
vt 0.868542 0.996565
vt 0.836810 0.963846
vt 0.837100 0.962924
vt 0.836939 0.961880
vt 0.837130 0.962570
vt 0.345961 0.998846
vt 0.346315 0.994576
vt 0.346315 0.998845
vt 0.841354 0.962937
vt 0.372013 0.983039
vt 0.372036 0.985414
vt 0.372005 0.980588
vt 0.372074 0.987650
vt 0.956216 0.158211
vt 0.957006 0.159179
vt 0.955427 0.157244
vt 0.958767 0.173498
vt 0.372036 0.975710
vt 0.372074 0.973410
vt 0.372013 0.978124
vt 0.371823 0.976877
vt 0.424564 0.998785
vt 0.425050 0.994516
vt 0.425050 0.998785
vt 0.424564 0.994516
vt 0.425534 0.994516
vt 0.953326 0.174752
vt 0.666924 0.994271
vt 0.666558 0.998524
vt 0.666558 0.994258
vt 0.953018 0.175147
vt 0.666924 0.998537
vt 0.667413 0.994276
vt 0.837190 0.980704
vt 0.837181 0.980219
vt 0.837153 0.979862
vt 0.837313 0.982249
vt 0.837178 0.981189
vt 0.667894 0.994270
vt 0.667413 0.998541
vt 0.952949 0.175644
vt 0.953137 0.176110
vt 0.667894 0.998536
vt 0.953531 0.176419
vt 0.827664 0.992311
vt 0.827309 0.996581
vt 0.827309 0.992312
vt 0.827664 0.996580
vt 0.828149 0.992310
vt 0.828149 0.996579
vt 0.954027 0.176490
vt 0.828634 0.992311
vt 0.837107 0.981671
vt 0.837147 0.981543
vt 0.836873 0.982227
vt 0.837067 0.981539
vt 0.092210 0.969712
vt 0.092405 0.969857
vt 0.092405 0.969874
vt 0.837013 0.983927
vt 0.092399 0.971640
vt 0.837175 0.985336
vt 0.092395 0.973674
vt 0.837301 0.986077
vt 0.092393 0.975223
vt 0.092392 0.975633
vt 0.837334 0.986272
vt 0.837568 0.986284
vt 0.837582 0.982262
vt 0.837356 0.986403
vt 0.092392 0.975905
vt 0.838054 0.982285
vt 0.837816 0.982841
vt 0.837768 0.982995
vt 0.837731 0.983419
vt 0.837716 0.984001
vt 0.841970 0.984013
vt 0.841985 0.983432
vt 0.821339 0.997605
vt 0.821764 0.993334
vt 0.821764 0.997603
vt 0.841981 0.984596
vt 0.946907 0.179674
vt 0.946681 0.179115
vt 0.946823 0.180270
vt 0.837727 0.984583
vt 0.995404 0.136240
vt 0.995404 0.140509
vt 0.994978 0.140507
vt 0.946454 0.180745
vt 0.994978 0.136239
vt 0.837761 0.985011
vt 0.994395 0.140507
vt 0.994395 0.136238
vt 0.837808 0.985169
vt 0.993813 0.140508
vt 0.945302 0.180885
vt 0.945897 0.180970
vt 0.993813 0.136239
vt 0.993388 0.140509
vt 0.944828 0.180513
vt 0.993388 0.136240
vt 0.944603 0.179954
vt 0.089918 0.997224
vt 0.089918 0.992958
vt 0.090494 0.992952
vt 0.090494 0.997217
vt 0.091081 0.992957
vt 0.944686 0.179358
vt 0.837908 0.984010
vt 0.837897 0.983427
vt 0.837893 0.984591
vt 0.091081 0.997223
vt 0.837864 0.982999
vt 0.091522 0.992973
vt 0.091522 0.997239
vt 0.820174 0.997605
vt 0.820757 0.993336
vt 0.820757 0.997605
vt 0.820174 0.993336
vt 0.945613 0.178659
vt 0.945056 0.178884
vt 0.821339 0.993336
vt 0.946208 0.178743
vt 0.837857 0.985016
vt 0.838041 0.986306
vt 0.838038 0.987113
vt 0.837954 0.987316
vt 0.838270 0.986317
vt 0.838155 0.986832
vt 0.092196 0.983215
vt 0.092390 0.983191
vt 0.092391 0.984205
vt 0.092392 0.985607
vt 0.092390 0.980727
vt 0.088315 0.983209
vt 0.092195 0.980719
vt 0.088314 0.981970
vt 0.092390 0.978481
vt 0.092195 0.978238
vt 0.088314 0.980722
vt 0.088314 0.979473
vt 0.092390 0.978277
vt 0.088315 0.978249
vt 0.837566 0.987124
vt 0.837549 0.987098
vt 0.837750 0.987406
vt 0.092394 0.986978
vt 0.838310 0.986137
vt 0.092395 0.987458
vt 0.092395 0.987912
vt 0.838348 0.985967
vt 0.838528 0.984742
vt 0.092399 0.990045
vt 0.092405 0.991952
vt 0.838691 0.983189
vt 0.836709 0.966026
vt 0.836636 0.968363
vt 0.836596 0.970796
vt 0.367890 0.970295
vt 0.937762 0.177494
vt 0.936921 0.178573
vt 0.937385 0.178386
vt 0.937693 0.177991
vt 0.838456 0.980766
vt 0.842710 0.980779
vt 0.842720 0.981264
vt 0.842723 0.980294
vt 0.838465 0.981251
vt 0.838493 0.981608
vt 0.733146 0.992313
vt 0.732790 0.996580
vt 0.732790 0.992311
vt 0.733146 0.996582
vt 0.838533 0.981740
vt 0.732305 0.996579
vt 0.732305 0.992311
vt 0.731820 0.996580
vt 0.936425 0.178503
vt 0.838607 0.980288
vt 0.930897 0.175754
vt 0.838579 0.979931
vt 0.837975 0.976342
vt 0.998577 0.866139
vt 0.837753 0.976533
vt 0.837865 0.976640
vt 0.999621 0.862283
vt 0.998573 0.862283
vt 0.837651 0.976031
vn -0.4408 -0.7071 0.5528
vn -0.4912 -0.7422 0.4558
vn -0.5408 -0.6750 0.5018
vn 0.0000 -1.0000 0.0000
vn -0.6037 -0.7422 0.2907
vn -0.3350 -0.7422 0.5803
vn -0.3689 -0.6751 0.6389
vn 0.2695 -0.6750 0.6868
vn -0.6647 -0.6750 0.3201
vn 0.0501 -0.7422 0.6682
vn 0.0551 -0.6750 0.7357
vn 0.2448 -0.7422 0.6238
vn 0.4600 -0.6750 0.5768
vn -0.7179 -0.6827 0.1358
vn -0.1642 -0.6750 0.7193
vn -0.6681 -0.7332 0.1264
vn -0.7232 -0.6907 0.0000
vn 0.7378 -0.6750 0.0000
vn 0.7050 -0.6750 0.2174
vn 0.6095 -0.6750 0.4156
vn 0.5537 -0.7422 0.3775
vn 0.5184 -0.7071 0.4809
vn 0.4178 -0.7422 0.5239
vn 0.6701 -0.7422 0.0000
vn 0.6403 -0.7422 0.1975
vn 0.5523 -0.7703 0.3188
vn 0.3188 -0.7703 0.5523
vn 0.0000 -0.7702 0.6377
vn 0.5523 0.7702 0.3189
vn 0.3188 0.7703 0.5523
vn 0.0000 1.0000 0.0000
vn 0.0000 0.7702 0.6377
vn 0.3909 0.9204 0.0000
vn -0.3188 -0.7703 0.5523
vn -0.3188 0.7703 0.5523
vn -0.5523 -0.7703 0.3189
vn -0.5523 0.7703 0.3189
vn 0.3931 0.9186 0.0400
vn 0.3876 0.9169 0.0955
vn 0.3672 0.9169 0.1565
vn 0.8742 0.3879 0.2918
vn 0.8983 0.3795 0.2214
vn 0.9097 0.3880 0.1478
vn 0.9132 -0.3796 0.1484
vn 0.8775 -0.3796 0.2929
vn 0.3786 -0.9169 0.1263
vn 0.3526 -0.9236 0.1503
vn 0.8192 -0.3796 0.4299
vn 0.8511 0.3795 0.3627
vn 0.8161 0.3879 0.4283
vn 0.3534 -0.9169 0.1854
vn 0.7819 0.3795 0.4945
vn 0.7396 -0.3796 0.5557
vn 0.3240 -0.9236 0.2049
vn -0.6377 -0.7703 0.0000
vn 0.3190 -0.9169 0.2397
vn -0.5523 -0.7703 -0.3188
vn 0.2869 -0.9236 0.2542
vn -0.6377 0.7703 0.0000
vn -0.3189 -0.7702 -0.5524
vn -0.5523 0.7703 -0.3189
vn 0.2989 0.9169 0.2644
vn 0.3374 0.9168 0.2134
vn 0.7368 0.3879 0.5537
vn 0.6925 0.3795 0.6135
vn 0.6409 -0.3796 0.6672
vn 0.2657 0.9236 0.2763
vn 0.6385 0.3880 0.6647
vn 0.5851 0.3796 0.7166
vn 0.2524 0.9169 0.3092
vn 0.5255 -0.3796 0.7613
vn 0.5235 0.3879 0.7585
vn 0.4626 0.3795 0.8012
vn 0.1996 0.9169 0.3457
vn 0.1643 0.9236 0.3464
vn 0.3951 0.3879 0.8327
vn 0.3966 -0.3796 0.8358
vn 0.3281 0.3795 0.8650
vn 0.1415 0.9168 0.3733
vn 0.2564 0.3879 0.8853
vn 0.2574 -0.3796 0.8886
vn 0.1850 0.3795 0.9065
vn 0.1066 0.9236 0.3683
vn 0.0798 0.9168 0.3912
vn 0.0161 0.9169 0.3988
vn 0.1111 0.3879 0.9150
vn -0.0371 0.3879 0.9209
vn 0.0372 0.3796 0.9244
vn -0.0481 0.9169 0.3962
vn -0.1115 0.3796 0.9184
vn -0.1843 0.3880 0.9030
vn -0.1110 0.9169 0.3834
vn -0.2574 0.3796 0.8886
vn -0.1360 0.9236 0.3585
vn -0.3268 0.3879 0.8618
vn -0.1359 0.9236 0.3585
vn -0.3281 -0.3795 0.8650
vn -0.3966 0.3795 0.8358
vn -0.4626 -0.3795 0.8012
vn -0.1711 0.9169 0.3606
vn -0.4608 0.3879 0.7982
vn -0.5256 0.3796 0.7614
vn -0.2268 0.9169 0.3284
vn -0.5851 -0.3795 0.7166
vn -0.5829 0.3880 0.7139
vn -0.6409 0.3795 0.6673
vn -0.2765 0.9168 0.2879
vn -0.2870 0.9236 0.2543
vn -0.6899 0.3879 0.6112
vn -0.6925 -0.3795 0.6135
vn -0.7396 0.3796 0.5557
vn -0.7790 0.3879 0.4927
vn -0.7819 -0.3795 0.4944
vn -0.3191 0.9169 0.2397
vn -0.3240 0.9235 0.2051
vn 0.6377 0.7703 0.0000
vn 0.5523 0.7703 -0.3189
vn 0.3189 0.7703 -0.5523
vn 0.6377 -0.7703 0.0000
vn 0.5523 -0.7703 -0.3189
vn -0.2987 -0.9169 0.2647
vn -0.3374 -0.9169 0.2133
vn -0.3395 -0.9236 0.1782
vn -0.8511 -0.3795 0.3626
vn -0.3672 -0.9169 0.1564
vn -0.8192 0.3795 0.4299
vn -0.8479 0.3880 0.3612
vn -0.8775 0.3795 0.2930
vn -0.8983 -0.3795 0.2214
vn -0.3876 -0.9169 0.0955
vn -0.3931 -0.9186 0.0399
vn -0.9222 -0.3764 0.0886
vn -0.3910 -0.9204 0.0000
vn -0.9132 0.3795 0.1484
vn -0.9199 0.3855 0.0721
vn -0.9262 -0.3769 0.0022
vn -0.3931 -0.9186 -0.0399
vn -0.9210 -0.3787 -0.0906
vn -0.9257 0.3783 0.0022
vn -0.3876 -0.9169 -0.0955
vn -0.8983 -0.3795 -0.2214
vn -0.9187 0.3879 -0.0742
vn -0.9132 0.3795 -0.1484
vn -0.8949 0.3879 -0.2206
vn -0.3672 -0.9168 -0.1565
vn -0.8511 -0.3795 -0.3627
vn -0.8775 0.3795 -0.2930
vn -0.3394 -0.9236 -0.1783
vn -0.7819 -0.3795 -0.4945
vn -0.8479 0.3879 -0.3612
vn -0.8192 0.3795 -0.4299
vn -0.3374 -0.9169 -0.2134
vn -0.2987 -0.9169 -0.2647
vn -0.6925 -0.3796 -0.6135
vn -0.7790 0.3879 -0.4926
vn -0.7396 0.3795 -0.5558
vn -0.6899 0.3879 -0.6111
vn -0.2656 -0.9235 -0.2767
vn -0.5851 -0.3795 -0.7166
vn -0.6409 0.3795 -0.6673
vn -0.1996 -0.9169 -0.3457
vn -0.2524 -0.9169 -0.3092
vn -0.4626 -0.3795 -0.8012
vn -0.5829 0.3880 -0.7139
vn -0.5256 0.3795 -0.7614
vn -0.2267 0.9169 -0.3285
vn -0.4608 0.3879 -0.7982
vn -0.2765 0.9168 -0.2879
vn -0.1711 0.9169 -0.3606
vn -0.2870 0.9236 -0.2542
vn 0.0000 0.7703 0.6377
vn -0.3191 0.9169 -0.2398
vn 0.5523 0.7703 0.3189
vn 0.3189 0.7703 0.5523
vn -0.3189 0.7703 0.5523
vn -0.3189 -0.7703 0.5523
vn 0.0000 -0.7703 0.6377
vn -0.6377 -0.7703 -0.0001
vn -0.5523 -0.7702 -0.3188
vn -0.5523 0.7702 -0.3188
vn -0.3189 -0.7703 -0.5522
vn -0.1643 -0.9236 -0.3464
vn 0.0000 -0.7703 -0.6377
vn -0.0462 -0.9236 -0.3806
vn 0.5523 -0.7703 0.3189
vn 0.3189 -0.7702 -0.5523
vn -0.0798 -0.9169 -0.3911
vn -0.1415 -0.9168 -0.3732
vn -0.3280 -0.3795 -0.8650
vn -0.1850 -0.3795 -0.9065
vn -0.2574 0.3796 -0.8886
vn -0.1843 0.3879 -0.9031
vn -0.0161 -0.9169 -0.3988
vn -0.1115 0.3794 -0.9185
vn -0.0372 -0.3795 -0.9244
vn -0.3189 -0.7702 0.5523
vn 0.0481 -0.9169 -0.3962
vn 0.1115 -0.3795 -0.9184
vn 0.0767 -0.9236 -0.3756
vn 0.2574 -0.3797 -0.8886
vn 0.1110 -0.9169 -0.3832
vn 0.1359 -0.9236 -0.3585
vn 0.3966 -0.3796 -0.8358
vn 0.1850 0.3795 -0.9065
vn 0.2564 0.3879 -0.8853
vn 0.3281 0.3795 -0.8650
vn 0.1711 -0.9169 -0.3605
vn 0.3951 0.3879 -0.8327
vn 0.4626 0.3795 -0.8012
vn 0.5255 -0.3796 -0.7614
vn 0.2267 -0.9169 -0.3284
vn 0.3189 -0.7703 0.5523
vn 0.2869 -0.9236 -0.2542
vn 0.2765 -0.9169 -0.2878
vn 0.5523 -0.7702 -0.3189
vn 0.5523 0.7702 -0.3189
vn 0.3188 0.7703 -0.5523
vn 0.3189 -0.7703 -0.5522
vn 0.0000 0.7703 -0.6377
vn 0.0000 -0.7702 -0.6377
vn -0.3188 0.7703 -0.5523
vn -0.5523 0.7702 -0.3189
vn 0.3240 -0.9236 -0.2048
vn 0.7396 -0.3796 -0.5557
vn 0.3534 -0.9169 -0.1855
vn 0.3191 -0.9169 -0.2397
vn 0.6409 -0.3796 -0.6672
vn 0.6925 0.3795 -0.6135
vn 0.7368 0.3879 -0.5537
vn 0.8191 -0.3796 -0.4299
vn 0.7819 0.3795 -0.4945
vn 0.3526 -0.9236 -0.1503
vn 0.8161 0.3879 -0.4283
vn 0.8775 -0.3796 -0.2929
vn 0.8511 0.3795 -0.3627
vn 0.8742 0.3879 -0.2918
vn 0.8983 0.3795 -0.2214
vn 0.9131 -0.3796 -0.1484
vn 0.3939 -0.9169 -0.0640
vn 0.3786 -0.9169 -0.1263
vn 0.3991 -0.9169 0.0000
vn 0.3939 -0.9169 0.0640
vn 0.9246 -0.3808 0.0000
vn 0.9210 0.3787 0.0906
vn 0.9210 0.3787 -0.0906
vn 0.9253 0.3793 0.0000
vn 0.3931 0.9186 -0.0399
vn 0.3876 0.9169 -0.0955
vn 0.9097 0.3879 -0.1478
vn 0.3672 0.9169 -0.1565
vn 0.3373 0.9169 -0.2134
vn 0.2989 0.9169 -0.2644
vn 0.2657 0.9236 -0.2763
vn -0.5523 0.7703 0.3188
vn -0.5523 -0.7703 0.3188
vn -0.3189 0.7702 0.5523
vn -0.3188 -0.7701 0.5524
vn 0.3189 0.7702 0.5523
vn -0.5523 0.7702 0.3189
vn -0.3188 0.7702 -0.5524
vn 0.1066 0.9236 -0.3683
vn 0.1415 0.9169 -0.3732
vn 0.2524 0.9169 -0.3092
vn 0.1996 0.9169 -0.3457
vn 0.5236 0.3879 -0.7585
vn 0.5851 0.3795 -0.7166
vn 0.6385 0.3880 -0.6647
vn 0.0798 0.9169 -0.3911
vn -0.3188 0.7702 0.5523
vn 0.0161 0.9169 -0.3988
vn 0.1111 0.3879 -0.9150
vn 0.0373 0.3795 -0.9244
vn -0.0371 0.3879 -0.9210
vn -0.0481 0.9168 -0.3963
vn -0.1110 0.9169 -0.3833
vn 0.3189 -0.7702 0.5523
vn 0.5523 0.7703 0.3188
vn -0.1359 0.9236 -0.3585
vn 0.3189 0.7702 -0.5523
vn -0.3268 0.3879 -0.8618
vn -0.3966 0.3795 -0.8358
vn -0.3189 -0.7702 -0.5523
vn -0.5523 -0.7703 -0.3189
vn 0.5184 -0.7071 -0.4809
vn 0.4178 -0.7422 -0.5239
vn 0.2448 -0.7422 -0.6238
vn 0.0501 -0.7422 -0.6682
vn 0.5537 -0.7422 -0.3775
vn 0.6095 -0.6750 -0.4156
vn 0.6403 -0.7422 -0.1975
vn 0.7050 -0.6750 -0.2174
vn 0.4600 -0.6750 -0.5768
vn -0.7179 -0.6827 -0.1358
vn -0.6037 -0.7422 -0.2907
vn -0.6647 -0.6750 -0.3201
vn -0.6681 -0.7332 -0.1264
vn -0.6894 -0.7243 0.0000
vn 0.2695 -0.6750 -0.6867
vn -0.5408 -0.6750 -0.5018
vn -0.3689 -0.6751 -0.6389
vn -0.1642 -0.6750 -0.7192
vn 0.0551 -0.6750 -0.7357
vn -0.1491 -0.7422 -0.6533
vn -0.3350 -0.7422 -0.5803
vn -0.4408 -0.7071 -0.5528
vn -0.4912 -0.7422 -0.4558
vn 0.3188 -0.7703 -0.5523
vn 0.0000 0.7702 -0.6377
vn 0.3189 0.7703 -0.5522
vn -0.3534 0.9169 0.1855
vn -0.3786 0.9169 0.1264
vn -0.3940 0.9169 0.0640
vn -0.3992 0.9169 0.0000
vn -0.3940 0.9169 -0.0640
vn -0.3240 0.9236 -0.2049
vn -0.3534 0.9169 -0.1855
vn -0.3786 0.9169 -0.1264
vn 0.5523 -0.7702 -0.3188
vn -0.8949 0.3879 0.2206
vn -0.5523 0.7703 -0.3188
vn -0.3189 0.7703 -0.5523
vn -0.3189 -0.7703 -0.5523
vn 0.3189 -0.7703 -0.5523
vn -0.2656 -0.9236 0.2765
vn -0.2524 -0.9169 0.3092
vn -0.1996 -0.9169 0.3457
vn -0.1644 -0.9236 0.3463
vn -0.1643 -0.9236 0.3463
vn -0.1415 -0.9169 0.3732
vn 0.3188 0.7702 -0.5523
vn -0.3188 -0.7703 -0.5523
vn -0.3188 0.7702 0.5524
vn 0.0767 -0.9236 0.3757
vn 0.0481 -0.9169 0.3962
vn 0.1359 -0.9236 0.3584
vn 0.1110 -0.9169 0.3833
vn 0.1115 -0.3796 0.9184
vn -0.0161 -0.9169 0.3988
vn -0.0372 -0.3795 0.9244
vn -0.0462 -0.9236 0.3806
vn -0.1850 -0.3795 0.9065
vn -0.0798 -0.9169 0.3910
vn 0.1711 -0.9169 0.3606
vn 0.2267 -0.9169 0.3284
vn 0.2765 -0.9169 0.2878
vn 0.6377 -0.7703 0.0001
vn 0.5523 -0.7703 -0.3188
vn -0.1491 -0.7422 0.6533
usemtl motoman_scan_mat
s 1
f 2/1/1 1/2/2 6/3/3
f 1/4/2 2/5/1 3/6/4
f 4/7/4 1/4/2 3/6/4
f 5/8/5 1/4/2 4/7/4
f 6/9/3 1/10/2 5/11/5
f 7/12/6 6/3/3 8/13/7
f 2/1/1 6/3/3 7/12/6
f 8/14/7 6/15/3 10/16/8
f 10/16/8 6/15/3 9/17/9
f 6/9/3 5/11/5 9/18/9
f 10/19/8 11/20/10 14/21/11
f 10/19/8 12/22/12 11/20/10
f 13/23/13 12/22/12 10/19/8
f 16/24/14 13/25/13 10/16/8
f 15/26/15 10/16/8 14/27/11
f 8/14/7 10/16/8 15/26/15
f 10/16/8 9/17/9 16/24/14
f 16/28/14 17/29/16 18/30/17
f 9/18/9 17/29/16 16/28/14
f 16/24/14 18/31/17 19/32/18
f 16/24/14 19/32/18 20/33/19
f 20/33/19 21/34/20 16/24/14
f 16/24/14 21/34/20 13/25/13
f 21/34/20 22/35/21 23/36/22
f 20/33/19 22/35/21 21/34/20
f 21/34/20 23/36/22 13/25/13
f 24/37/4 23/36/22 26/38/4
f 24/37/4 25/39/23 23/36/22
f 13/25/13 23/36/22 25/39/23
f 26/38/4 23/36/22 22/35/21
f 26/38/4 30/40/4 24/37/4
f 27/41/24 26/38/4 29/42/25
f 28/43/4 26/38/4 27/41/24
f 28/43/4 32/44/4 26/38/4
f 26/38/4 22/35/21 29/42/25
f 26/38/4 31/45/26 30/40/4
f 34/46/27 31/45/26 26/38/4
f 32/44/4 33/47/28 26/38/4
f 26/38/4 33/47/28 34/46/27
f 34/48/27 35/49/29 31/50/26
f 33/51/28 36/52/30 34/48/27
f 34/48/27 36/52/30 35/49/29
f 37/53/31 36/54/30 38/55/32
f 35/56/29 36/54/30 37/53/31
f 33/51/28 38/57/32 36/52/30
f 37/53/31 38/55/32 40/58/33
f 39/59/34 38/57/32 33/51/28
f 39/59/34 41/60/35 38/57/32
f 40/58/33 38/55/32 41/61/35
f 42/62/36 41/63/35 39/64/34
f 42/62/36 44/65/37 41/63/35
f 40/58/33 41/61/35 43/66/38
f 41/61/35 46/67/39 43/66/38
f 44/68/37 45/69/40 41/61/35
f 41/61/35 45/69/40 46/67/39
f 47/70/41 49/71/42 46/67/39
f 45/69/40 47/70/41 46/67/39
f 46/67/39 48/72/43 43/66/38
f 46/67/39 49/71/42 48/72/43
f 50/73/44 49/74/42 51/75/45
f 50/73/44 48/76/43 49/74/42
f 49/74/42 47/77/41 51/75/45
f 51/75/45 52/78/46 50/73/44
f 51/75/45 53/79/47 52/78/46
f 55/80/48 53/79/47 51/75/45
f 51/75/45 47/77/41 54/81/49
f 51/75/45 54/81/49 55/80/48
f 54/81/49 56/82/50 55/80/48
f 55/80/48 60/83/51 53/79/47
f 55/80/48 56/82/50 57/84/52
f 55/80/48 57/84/52 58/85/53
f 55/80/48 58/85/53 59/86/54
f 59/86/54 60/83/51 55/80/48
f 32/44/4 53/79/47 60/83/51
f 59/86/54 32/44/4 60/83/51
f 59/86/54 61/87/55 32/44/4
f 62/88/56 61/87/55 59/86/54
f 58/85/53 62/88/56 59/86/54
f 62/88/56 64/89/57 61/87/55
f 58/85/53 63/90/58 62/88/56
f 63/90/58 64/89/57 62/88/56
f 64/91/57 67/92/59 61/93/55
f 63/90/58 65/94/60 64/89/57
f 65/95/60 66/96/61 64/97/57
f 64/91/57 66/98/61 67/92/59
f 61/93/55 67/92/59 44/65/37
f 66/99/61 68/100/62 67/101/59
f 67/101/59 68/100/62 69/102/63
f 67/101/59 69/102/63 44/68/37
f 68/100/62 70/103/64 69/102/63
f 69/102/63 57/104/52 56/105/50
f 56/105/50 45/69/40 69/102/63
f 69/102/63 70/103/64 57/104/52
f 44/68/37 69/102/63 45/69/40
f 57/84/52 70/106/64 58/85/53
f 58/85/53 70/106/64 71/107/65
f 68/100/62 71/108/65 70/103/64
f 58/85/53 71/107/65 73/109/66
f 72/110/67 71/108/65 68/100/62
f 72/110/67 74/111/68 71/108/65
f 71/112/65 74/113/68 73/114/66
f 73/114/66 74/113/68 76/115/69
f 75/116/70 74/111/68 72/110/67
f 75/116/70 76/117/69 74/111/68
f 73/114/66 76/115/69 77/118/71
f 76/115/69 78/119/72 77/118/71
f 78/120/72 76/117/69 75/116/70
f 77/118/71 78/119/72 79/121/73
f 80/122/74 79/123/73 78/120/72
f 78/120/72 75/116/70 80/122/74
f 81/124/75 83/125/76 80/122/74
f 82/126/31 81/124/75 80/122/74
f 80/122/74 83/125/76 79/123/73
f 82/126/31 80/122/74 75/116/70
f 79/121/73 83/127/76 84/128/77
f 84/128/77 83/127/76 85/129/78
f 81/124/75 85/130/78 83/125/76
f 86/131/79 85/130/78 81/124/75
f 86/131/79 88/132/80 85/130/78
f 85/129/78 88/133/80 87/134/81
f 84/128/77 85/129/78 87/134/81
f 87/134/81 88/133/80 89/135/82
f 90/136/83 89/137/82 88/132/80
f 90/136/83 88/132/80 86/131/79
f 90/136/83 86/131/79 91/138/31
f 91/138/31 92/139/84 90/136/83
f 92/139/84 89/137/82 90/136/83
f 91/138/31 94/140/85 92/139/84
f 92/139/84 93/141/86 89/137/82
f 94/140/85 93/141/86 92/139/84
f 95/142/87 96/143/88 94/140/85
f 97/144/89 95/142/87 94/140/85
f 97/144/89 94/140/85 91/138/31
f 94/140/85 96/143/88 93/141/86
f 97/144/89 98/145/90 95/142/87
f 99/146/91 98/145/90 97/144/89
f 100/147/92 97/144/89 91/138/31
f 100/147/92 99/146/91 97/144/89
f 91/138/31 102/148/31 100/147/92
f 100/147/92 101/149/93 99/146/91
f 103/150/94 101/149/93 100/147/92
f 100/147/92 102/148/31 103/150/94
f 103/150/94 105/151/95 101/149/93
f 102/148/31 104/152/96 103/150/94
f 104/152/96 105/151/95 103/150/94
f 101/153/93 105/154/95 106/155/97
f 106/155/97 105/154/95 107/156/98
f 104/152/96 107/157/98 105/151/95
f 106/155/97 107/156/98 109/158/99
f 108/159/100 107/157/98 104/152/96
f 108/159/100 110/160/101 107/157/98
f 107/156/98 110/161/101 109/158/99
f 109/158/99 110/161/101 112/162/102
f 111/163/103 110/160/101 108/159/100
f 111/163/103 112/164/102 110/160/101
f 109/158/99 112/162/102 113/165/104
f 112/162/102 114/166/105 113/165/104
f 114/167/105 112/164/102 111/163/103
f 113/165/104 114/166/105 115/168/106
f 116/169/107 115/170/106 114/167/105
f 116/169/107 114/167/105 111/163/103
f 116/169/107 111/163/103 118/171/31
f 117/172/108 119/173/109 116/169/107
f 118/171/31 117/172/108 116/169/107
f 119/173/109 115/170/106 116/169/107
f 115/174/106 119/175/109 120/176/110
f 120/176/110 119/175/109 121/177/111
f 117/172/108 121/178/111 119/173/109
f 121/177/111 123/179/112 122/180/113
f 120/176/110 121/177/111 122/180/113
f 124/181/114 123/182/112 121/178/111
f 124/181/114 121/178/111 117/172/108
f 125/183/115 123/182/112 124/181/114
f 124/181/114 126/184/116 125/183/115
f 117/172/108 127/185/117 124/181/114
f 124/181/114 127/185/117 126/184/116
f 117/172/108 129/186/118 127/185/117
f 130/187/119 126/188/116 127/189/117
f 128/190/120 127/191/117 129/192/118
f 130/187/119 127/189/117 128/193/120
f 128/193/120 131/194/121 130/187/119
f 130/187/119 131/194/121 132/195/122
f 133/196/26 126/188/116 130/187/119
f 130/187/119 132/195/122 133/196/26
f 133/196/26 132/195/122 136/197/123
f 133/196/26 134/198/29 126/188/116
f 135/199/27 134/200/29 133/201/26
f 136/197/123 135/202/27 133/196/26
f 139/203/124 137/204/125 136/205/123
f 136/197/123 137/206/125 4/7/4
f 122/180/113 136/205/123 132/207/122
f 136/197/123 138/208/28 135/202/27
f 4/7/4 138/208/28 136/197/123
f 139/203/124 136/205/123 122/180/113
f 122/180/113 140/209/126 139/203/124
f 140/209/126 141/210/127 139/203/124
f 139/203/124 141/210/127 142/211/128
f 139/203/124 142/211/128 143/212/129
f 143/212/129 144/213/130 139/203/124
f 139/203/124 144/213/130 137/204/125
f 4/7/4 137/206/125 144/214/130
f 145/215/4 144/214/130 146/216/131
f 4/7/4 144/214/130 145/215/4
f 143/212/129 146/217/131 144/213/130
f 148/218/132 147/219/133 146/217/131
f 145/215/4 146/216/131 147/220/133
f 148/218/132 146/217/131 143/212/129
f 148/218/132 149/221/134 150/222/135
f 143/212/129 149/221/134 148/218/132
f 151/223/136 147/219/133 148/218/132
f 148/218/132 150/222/135 151/223/136
f 151/223/136 152/224/137 147/219/133
f 154/225/138 152/224/137 151/223/136
f 151/223/136 150/222/135 153/226/139
f 151/223/136 153/226/139 154/225/138
f 154/225/138 155/227/140 152/224/137
f 158/228/141 155/227/140 154/225/138
f 153/226/139 156/229/142 154/225/138
f 154/225/138 156/229/142 157/230/143
f 154/225/138 157/230/143 158/228/141
f 157/230/143 160/231/144 158/228/141
f 158/228/141 159/232/145 155/227/140
f 162/233/146 159/232/145 158/228/141
f 158/228/141 160/231/144 161/234/147
f 158/228/141 161/234/147 162/233/146
f 162/233/146 163/235/148 159/232/145
f 166/236/149 163/235/148 162/233/146
f 161/234/147 164/237/150 162/233/146
f 162/233/146 164/237/150 165/238/151
f 162/233/146 165/238/151 166/236/149
f 166/236/149 168/239/152 163/235/148
f 166/236/149 167/240/153 168/239/152
f 171/241/154 167/240/153 166/236/149
f 165/238/151 169/242/155 166/236/149
f 166/236/149 169/242/155 170/243/156
f 166/236/149 170/243/156 171/241/154
f 170/243/156 173/244/157 171/241/154
f 171/245/154 172/246/158 167/247/153
f 175/248/159 172/246/158 171/245/154
f 171/241/154 173/244/157 174/249/160
f 171/245/154 174/250/160 175/248/159
f 175/248/159 176/251/161 177/252/162
f 178/253/163 176/251/161 175/248/159
f 175/248/159 177/252/162 172/246/158
f 174/250/160 179/254/164 175/248/159
f 175/248/159 180/255/165 178/253/163
f 175/248/159 179/254/164 180/255/165
f 182/256/166 180/257/165 179/258/164
f 180/255/165 181/259/167 178/253/163
f 181/260/167 180/257/165 182/256/166
f 185/261/168 183/262/31 182/256/166
f 182/256/166 183/262/31 184/263/169
f 181/260/167 182/256/166 184/263/169
f 182/256/166 179/258/164 185/261/168
f 186/264/170 183/262/31 185/261/168
f 185/261/168 174/265/160 186/264/170
f 185/261/168 179/258/164 174/265/160
f 186/264/170 190/266/171 183/262/31
f 186/264/170 173/267/157 187/268/172
f 187/268/172 188/269/173 186/264/170
f 186/264/170 174/265/160 173/267/157
f 186/264/170 188/269/173 189/270/174
f 189/270/174 190/266/171 186/264/170
f 193/271/175 183/262/31 190/266/171
f 191/272/176 190/273/171 192/274/177
f 191/272/176 193/275/175 190/273/171
f 192/274/177 190/273/171 189/276/174
f 194/277/36 193/278/175 191/279/176
f 194/277/36 195/280/37 193/278/175
f 193/271/175 195/281/37 183/262/31
f 196/282/178 195/280/37 194/277/36
f 196/282/178 197/283/59 195/280/37
f 195/281/37 197/284/59 183/262/31
f 200/285/179 197/283/59 196/282/178
f 183/262/31 197/284/59 198/286/31
f 199/287/180 198/286/31 197/284/59
f 200/285/179 199/288/180 197/283/59
f 201/289/181 199/290/180 200/291/179
f 200/292/179 145/215/4 201/293/181
f 202/294/4 145/215/4 200/292/179
f 200/292/179 196/295/178 202/294/4
f 202/294/4 203/296/4 145/215/4
f 205/297/4 203/296/4 202/294/4
f 204/298/182 202/294/4 176/299/161
f 204/298/182 205/297/4 202/294/4
f 202/294/4 196/295/178 194/300/36
f 202/294/4 177/301/162 176/299/161
f 202/294/4 194/300/36 191/302/176
f 191/302/176 192/303/177 202/294/4
f 192/303/177 172/304/158 202/294/4
f 202/294/4 172/304/158 177/301/162
f 206/305/4 207/306/4 205/297/4
f 211/307/183 206/305/4 205/297/4
f 205/297/4 207/306/4 203/296/4
f 213/308/184 208/309/185 205/297/4
f 208/309/185 209/310/119 205/297/4
f 205/297/4 209/310/119 210/311/120
f 212/312/186 205/297/4 210/311/120
f 211/307/183 205/297/4 212/312/186
f 213/308/184 205/297/4 215/313/187
f 215/313/187 205/297/4 214/314/188
f 214/314/188 205/297/4 204/298/182
f 215/315/187 214/316/188 216/317/189
f 217/318/190 215/315/187 216/317/189
f 213/319/184 215/315/187 217/318/190
f 216/317/189 218/320/191 217/318/190
f 218/320/191 219/321/192 217/318/190
f 213/319/184 217/318/190 222/322/193
f 217/318/190 219/321/192 220/323/194
f 217/318/190 220/323/194 221/324/195
f 222/322/193 217/318/190 221/324/195
f 223/325/177 213/308/184 222/326/193
f 223/325/177 222/326/193 224/327/196
f 222/322/193 221/324/195 225/328/197
f 224/327/196 222/326/193 225/329/197
f 224/327/196 225/329/197 226/330/36
f 225/328/197 221/324/195 227/331/198
f 226/330/36 225/329/197 228/332/199
f 225/328/197 227/331/198 228/333/199
f 228/333/199 231/334/200 229/335/201
f 229/336/201 206/305/4 228/332/199
f 230/337/55 228/332/199 206/305/4
f 226/330/36 228/332/199 230/337/55
f 228/333/199 227/331/198 231/334/200
f 232/338/202 231/334/200 236/339/203
f 229/335/201 231/334/200 232/338/202
f 227/331/198 233/340/204 231/334/200
f 233/340/204 234/341/205 231/334/200
f 231/334/200 234/341/205 235/342/206
f 231/334/200 235/342/206 236/339/203
f 232/338/202 236/339/203 241/343/207
f 235/342/206 237/344/208 236/339/203
f 236/339/203 237/344/208 238/345/209
f 236/339/203 238/345/209 239/346/210
f 240/347/211 236/339/203 239/346/210
f 241/343/207 236/339/203 240/347/211
f 241/348/207 242/349/4 232/350/202
f 240/351/211 242/349/4 241/348/207
f 243/352/185 248/353/119 242/349/4
f 243/352/185 242/349/4 244/354/212
f 244/354/212 242/349/4 245/355/28
f 247/356/213 245/355/28 242/349/4
f 246/357/214 242/349/4 240/351/211
f 232/350/202 242/349/4 229/336/201
f 247/356/213 242/349/4 246/357/214
f 229/336/201 242/349/4 206/305/4
f 242/349/4 28/43/4 206/305/4
f 242/349/4 248/353/119 28/43/4
f 248/353/119 251/358/215 28/43/4
f 248/353/119 249/359/116 250/360/216
f 243/352/185 249/359/116 248/353/119
f 248/353/119 250/360/216 251/358/215
f 251/361/215 253/362/217 252/363/218
f 251/358/215 252/364/218 28/43/4
f 251/361/215 250/365/216 253/362/217
f 250/366/216 37/53/31 253/367/217
f 37/53/31 254/368/219 253/367/217
f 252/363/218 253/362/217 254/369/219
f 256/370/220 254/369/219 255/371/221
f 37/53/31 255/372/221 254/368/219
f 252/363/218 254/369/219 256/370/220
f 256/373/220 258/374/181 257/375/4
f 28/43/4 256/373/220 257/375/4
f 28/43/4 252/364/218 256/373/220
f 256/370/220 255/371/221 258/376/181
f 257/375/4 258/374/181 260/377/179
f 258/376/181 259/378/222 260/379/179
f 258/376/181 255/371/221 259/378/222
f 260/380/179 262/381/59 261/382/55
f 263/383/223 260/377/179 261/384/55
f 260/380/179 259/385/222 262/381/59
f 257/375/4 260/377/179 263/383/223
f 266/386/224 264/387/225 263/383/223
f 263/383/223 264/387/225 257/375/4
f 263/383/223 261/384/55 265/388/226
f 266/386/224 263/383/223 265/388/226
f 247/356/213 267/389/227 266/386/224
f 267/389/227 268/390/228 266/386/224
f 268/390/228 269/391/229 266/386/224
f 247/356/213 266/386/224 265/388/226
f 271/392/230 264/387/225 266/386/224
f 266/386/224 269/391/229 270/393/231
f 266/386/224 270/393/231 271/392/230
f 271/392/230 272/394/232 264/387/225
f 270/393/231 273/395/233 271/392/230
f 275/396/234 272/394/232 271/392/230
f 271/392/230 273/395/233 274/397/235
f 271/392/230 274/397/235 275/396/234
f 274/397/235 276/398/236 275/396/234
f 275/396/234 276/398/236 277/399/237
f 275/396/234 277/399/237 278/400/238
f 278/400/238 279/401/239 275/396/234
f 275/396/234 280/402/240 272/394/232
f 275/396/234 279/401/239 280/402/240
f 280/402/240 279/401/239 257/375/4
f 257/375/4 272/394/232 280/402/240
f 257/375/4 279/401/239 32/44/4
f 279/401/239 281/403/241 32/44/4
f 278/400/238 281/403/241 279/401/239
f 32/44/4 281/403/241 282/404/242
f 283/405/243 282/404/242 281/403/241
f 283/405/243 281/403/241 278/400/238
f 50/73/44 282/404/242 283/405/243
f 50/73/44 283/405/243 286/406/244
f 278/400/238 284/407/245 283/405/243
f 283/405/243 284/407/245 285/408/246
f 283/405/243 285/408/246 286/406/244
f 286/406/244 48/76/43 50/73/44
f 43/66/38 48/72/43 286/409/244
f 40/58/33 286/409/244 285/410/246
f 43/66/38 286/409/244 40/58/33
f 285/410/246 284/411/245 287/412/247
f 40/58/33 285/410/246 287/412/247
f 255/372/221 287/412/247 288/413/248
f 40/58/33 287/412/247 255/372/221
f 287/412/247 289/414/249 288/413/248
f 287/412/247 284/411/245 289/414/249
f 288/413/248 289/414/249 277/415/237
f 277/399/237 289/416/249 278/400/238
f 278/400/238 289/416/249 284/407/245
f 255/372/221 288/413/248 259/417/222
f 259/417/222 288/413/248 290/418/250
f 276/419/236 290/418/250 288/413/248
f 288/413/248 277/415/237 276/419/236
f 290/418/250 274/420/235 273/421/233
f 276/419/236 274/420/235 290/418/250
f 259/417/222 290/418/250 262/422/59
f 290/418/250 273/421/233 291/423/251
f 262/422/59 290/418/250 291/423/251
f 291/423/251 269/424/229 292/425/252
f 291/423/251 270/426/231 269/424/229
f 273/421/233 270/426/231 291/423/251
f 262/422/59 291/423/251 292/425/252
f 292/425/252 268/427/228 293/428/253
f 292/425/252 269/424/229 268/427/228
f 293/428/253 294/429/254 292/425/252
f 292/425/252 294/429/254 262/422/59
f 261/382/55 294/430/254 295/431/255
f 261/382/55 262/381/59 294/430/254
f 295/431/255 294/430/254 296/432/256
f 293/428/253 296/433/256 294/429/254
f 295/431/255 296/432/256 297/434/257
f 293/428/253 298/435/171 296/433/256
f 297/436/257 296/437/256 298/438/171
f 299/439/31 298/435/171 293/428/253
f 299/439/31 300/440/258 298/435/171
f 245/441/28 298/438/171 300/442/258
f 297/436/257 298/438/171 245/441/28
f 301/443/29 300/440/258 299/439/31
f 244/444/212 300/442/258 301/445/29
f 245/441/28 300/442/258 244/444/212
f 243/352/185 301/446/29 249/359/116
f 244/444/212 301/445/29 243/447/185
f 249/448/116 301/443/29 299/439/31
f 299/439/31 37/53/31 250/366/216
f 299/439/31 198/286/31 37/53/31
f 183/262/31 198/286/31 299/439/31
f 304/449/219 183/262/31 299/439/31
f 302/450/59 299/439/31 306/451/259
f 299/439/31 302/450/59 303/452/222
f 305/453/260 299/439/31 303/452/222
f 304/449/219 299/439/31 305/453/260
f 306/451/259 299/439/31 307/454/261
f 299/439/31 310/455/262 307/454/261
f 299/439/31 293/428/253 308/456/263
f 308/456/263 309/457/264 299/439/31
f 299/439/31 309/457/264 310/455/262
f 249/448/116 299/439/31 250/366/216
f 310/455/262 235/458/206 307/454/261
f 310/455/262 237/459/208 235/458/206
f 309/457/264 237/459/208 310/455/262
f 309/457/264 238/460/209 237/459/208
f 311/461/265 238/460/209 309/457/264
f 308/456/263 311/461/265 309/457/264
f 238/345/209 311/462/265 239/346/210
f 239/346/210 311/462/265 312/463/266
f 308/456/263 312/464/266 311/461/265
f 239/346/210 312/463/266 267/465/227
f 312/463/266 313/466/267 267/465/227
f 313/467/267 312/464/266 308/456/263
f 267/465/227 313/466/267 268/468/228
f 293/428/253 268/427/228 313/467/267
f 293/428/253 313/467/267 308/456/263
f 307/454/261 234/469/205 315/470/268
f 307/454/261 235/458/206 234/469/205
f 306/451/259 307/454/261 314/471/269
f 314/471/269 307/454/261 315/470/268
f 234/469/205 233/472/204 315/470/268
f 314/471/269 315/470/268 316/473/171
f 316/473/171 315/470/268 317/474/270
f 315/470/268 318/475/271 317/474/270
f 315/470/268 233/472/204 318/475/271
f 317/474/270 318/475/271 319/476/272
f 319/477/272 318/478/271 227/331/198
f 227/331/198 318/478/271 233/340/204
f 221/324/195 319/477/272 227/331/198
f 221/324/195 320/479/273 319/477/272
f 317/480/270 319/477/272 320/479/273
f 320/479/273 220/323/194 321/481/274
f 220/323/194 320/479/273 221/324/195
f 320/479/273 321/481/274 317/480/270
f 321/481/274 220/323/194 219/321/192
f 321/481/274 219/321/192 322/482/275
f 322/483/275 323/484/174 321/485/274
f 321/485/274 323/484/174 317/474/270
f 223/486/177 316/487/171 323/488/174
f 316/473/171 317/474/270 323/484/174
f 324/489/276 323/488/174 325/490/277
f 223/486/177 323/488/174 324/489/276
f 322/483/275 325/491/277 323/484/174
f 326/492/278 325/491/277 322/483/275
f 326/492/278 327/493/116 325/491/277
f 208/309/185 325/494/277 327/495/116
f 324/489/276 325/490/277 208/496/185
f 183/262/31 327/493/116 326/492/278
f 183/262/31 328/497/216 327/493/116
f 208/309/185 327/495/116 209/310/119
f 209/310/119 327/495/116 328/498/216
f 210/499/120 328/500/216 329/501/279
f 209/310/119 328/498/216 210/311/120
f 329/502/279 328/497/216 183/262/31
f 210/499/120 329/501/279 212/503/186
f 329/502/279 183/262/31 304/449/219
f 212/503/186 329/501/279 304/504/219
f 322/483/275 218/505/191 326/492/278
f 184/263/169 183/262/31 326/492/278
f 326/492/278 330/506/280 184/263/169
f 326/492/278 218/505/191 330/506/280
f 184/263/169 330/506/280 331/507/281
f 331/508/281 330/509/280 216/317/189
f 216/317/189 330/509/280 218/320/191
f 178/253/163 331/508/281 216/317/189
f 178/253/163 181/259/167 331/508/281
f 184/263/169 331/507/281 181/260/167
f 324/510/276 208/309/185 213/308/184
f 324/510/276 213/308/184 223/325/177
f 322/482/275 219/321/192 218/320/191
f 224/511/196 316/487/171 223/486/177
f 224/511/196 314/512/269 316/487/171
f 226/513/36 306/514/259 314/515/269
f 226/513/36 314/515/269 224/516/196
f 230/517/55 306/514/259 226/513/36
f 230/517/55 302/518/59 306/514/259
f 332/519/282 305/520/260 303/521/222
f 211/522/183 305/520/260 332/519/282
f 211/522/183 304/504/219 305/520/260
f 332/519/282 303/521/222 333/523/283
f 332/524/282 206/305/4 211/307/183
f 333/525/283 206/305/4 332/524/282
f 230/337/55 206/305/4 333/525/283
f 333/526/283 302/518/59 230/517/55
f 333/526/283 303/527/222 302/518/59
f 212/503/186 304/504/219 211/522/183
f 247/356/213 295/528/255 297/529/257
f 297/529/257 245/355/28 247/356/213
f 265/388/226 261/384/55 295/528/255
f 265/388/226 295/528/255 247/356/213
f 282/404/242 52/78/46 32/44/4
f 50/73/44 52/78/46 282/404/242
f 257/375/4 264/387/225 272/394/232
f 246/357/214 267/389/227 247/356/213
f 246/530/214 239/346/210 267/465/227
f 257/375/4 32/44/4 28/43/4
f 40/58/33 255/372/221 37/53/31
f 240/347/211 239/346/210 246/530/214
f 216/317/189 204/531/182 178/253/163
f 216/317/189 214/316/188 204/531/182
f 207/306/4 337/532/284 334/533/285
f 334/533/285 335/534/286 207/306/4
f 207/306/4 335/534/286 336/535/287
f 207/306/4 336/535/287 203/296/4
f 207/306/4 338/536/288 337/532/284
f 206/305/4 28/43/4 207/306/4
f 28/43/4 338/536/288 207/306/4
f 340/537/289 338/536/288 339/538/290
f 28/43/4 339/538/290 338/536/288
f 337/532/284 338/536/288 340/537/289
f 340/537/289 339/538/290 343/539/291
f 341/540/292 340/537/289 342/541/293
f 341/540/292 337/532/284 340/537/289
f 343/539/291 342/541/293 340/537/289
f 343/539/291 27/41/24 19/32/18
f 343/539/291 339/538/290 27/41/24
f 19/32/18 342/541/293 343/539/291
f 342/542/293 344/543/294 347/544/295
f 342/542/293 345/545/296 344/543/294
f 346/546/297 345/545/296 342/542/293
f 19/32/18 18/31/17 342/541/293
f 18/30/17 346/546/297 342/542/293
f 348/547/298 342/541/293 347/548/295
f 341/540/292 342/541/293 348/547/298
f 348/547/298 347/548/295 349/549/299
f 349/549/299 350/550/300 348/547/298
f 348/547/298 350/550/300 351/551/301
f 348/547/298 351/551/301 352/552/302
f 348/553/298 334/554/285 341/555/292
f 348/553/298 335/556/286 334/554/285
f 352/557/302 335/556/286 348/553/298
f 351/558/301 336/559/287 352/557/302
f 352/557/302 336/559/287 335/556/286
f 350/560/300 353/561/303 351/558/301
f 351/558/301 353/561/303 336/559/287
f 203/296/4 336/535/287 353/562/303
f 353/562/303 354/563/304 203/296/4
f 350/560/300 354/564/304 353/561/303
f 355/565/305 354/564/304 350/560/300
f 203/296/4 354/563/304 355/566/305
f 349/567/299 355/565/305 350/560/300
f 349/567/299 356/568/306 355/565/305
f 145/215/4 355/566/305 356/569/306
f 203/296/4 355/566/305 145/215/4
f 347/544/295 356/570/306 349/571/299
f 347/544/295 344/543/294 356/570/306
f 145/215/4 356/569/306 344/572/294
f 145/215/4 345/573/296 346/574/297
f 145/215/4 346/574/297 4/7/4
f 4/7/4 346/574/297 17/575/16
f 18/30/17 17/29/16 346/546/297
f 344/572/294 345/573/296 145/215/4
f 341/540/292 334/533/285 337/532/284
f 27/41/24 339/538/290 28/43/4
f 178/253/163 204/531/182 176/251/161
f 201/289/181 357/576/221 199/290/180
f 358/577/220 357/576/221 201/289/181
f 145/215/4 358/578/220 201/293/181
f 163/579/148 358/578/220 145/215/4
f 163/579/148 359/580/307 358/578/220
f 359/581/307 360/582/308 358/577/220
f 358/577/220 360/582/308 357/576/221
f 360/583/308 362/584/31 357/585/221
f 359/581/307 361/586/309 360/582/308
f 360/583/308 361/587/309 362/584/31
f 357/585/221 362/584/31 198/286/31
f 362/584/31 364/588/32 198/286/31
f 125/183/115 126/184/116 362/584/31
f 126/184/116 134/589/29 362/584/31
f 134/589/29 363/590/30 362/584/31
f 362/584/31 363/590/30 364/588/32
f 368/591/310 362/584/31 365/592/311
f 365/592/311 362/584/31 366/593/312
f 366/593/312 362/584/31 367/594/313
f 362/584/31 372/595/314 367/594/313
f 125/183/115 362/584/31 368/591/310
f 362/584/31 373/596/216 369/597/315
f 362/584/31 369/597/315 370/598/316
f 370/598/316 371/599/317 362/584/31
f 362/584/31 371/599/317 372/595/314
f 362/584/31 361/587/309 373/596/216
f 375/600/119 374/601/116 373/602/216
f 369/597/315 373/596/216 374/603/116
f 375/600/119 373/602/216 376/604/318
f 376/605/318 373/606/216 361/586/309
f 376/604/318 359/580/307 163/579/148
f 375/600/119 376/604/318 163/579/148
f 376/605/318 361/586/309 359/581/307
f 168/607/152 375/600/119 163/579/148
f 377/608/185 374/601/116 375/600/119
f 167/609/153 377/608/185 375/600/119
f 167/609/153 375/600/119 168/607/152
f 172/304/158 377/608/185 167/609/153
f 172/304/158 378/610/276 377/608/185
f 378/611/276 188/612/173 377/613/185
f 377/608/185 188/614/173 374/601/116
f 192/303/177 378/610/276 172/304/158
f 378/611/276 189/276/174 188/612/173
f 192/274/177 189/276/174 378/611/276
f 187/268/172 374/603/116 188/269/173
f 369/597/315 374/603/116 187/268/172
f 372/615/314 157/230/143 156/229/142
f 160/231/144 157/230/143 372/615/314
f 160/231/144 372/615/314 371/616/317
f 372/615/314 156/229/142 367/617/313
f 371/616/317 161/234/147 160/231/144
f 371/616/317 164/237/150 161/234/147
f 370/618/316 164/237/150 371/616/317
f 169/619/155 165/620/151 370/598/316
f 369/597/315 169/619/155 370/598/316
f 370/618/316 165/238/151 164/237/150
f 369/597/315 170/621/156 169/619/155
f 187/268/172 170/621/156 369/597/315
f 368/591/310 140/622/126 125/183/115
f 365/623/311 141/210/127 368/624/310
f 368/624/310 141/210/127 140/209/126
f 367/617/313 153/226/139 150/222/135
f 366/625/312 367/617/313 150/222/135
f 367/617/313 156/229/142 153/226/139
f 366/625/312 379/626/319 365/623/311
f 366/625/312 149/221/134 379/626/319
f 150/222/135 149/221/134 366/625/312
f 143/212/129 379/626/319 149/221/134
f 379/626/319 142/211/128 365/623/311
f 142/211/128 379/626/319 143/212/129
f 365/623/311 142/211/128 141/210/127
f 380/627/34 364/628/32 138/629/28
f 380/627/34 381/630/35 364/628/32
f 138/629/28 364/628/32 363/631/30
f 198/286/31 364/588/32 381/632/35
f 383/633/36 381/634/35 380/635/34
f 198/286/31 381/632/35 382/636/254
f 383/633/36 382/637/254 381/634/35
f 384/638/55 382/637/254 383/633/36
f 4/7/4 384/639/55 383/640/36
f 383/640/36 380/641/34 4/7/4
f 4/7/4 385/642/4 384/639/55
f 385/642/4 386/643/283 384/639/55
f 386/644/283 387/645/59 384/638/55
f 384/638/55 387/645/59 382/637/254
f 118/171/31 387/646/59 388/647/320
f 118/171/31 382/636/254 387/646/59
f 386/644/283 388/648/320 387/645/59
f 118/171/31 388/647/320 390/649/321
f 389/650/322 388/651/320 386/652/283
f 389/650/322 390/653/321 388/651/320
f 392/654/183 391/655/219 390/653/321
f 390/649/321 391/656/219 118/171/31
f 392/654/183 390/653/321 389/650/322
f 393/657/323 391/655/219 392/654/183
f 392/658/183 389/659/322 385/642/4
f 394/660/324 392/658/183 385/642/4
f 393/661/323 392/658/183 394/660/324
f 393/661/323 394/660/324 128/193/120
f 128/193/120 394/660/324 131/194/121
f 120/662/110 131/663/121 394/664/324
f 394/660/324 385/642/4 395/665/325
f 113/165/104 394/664/324 395/666/325
f 120/662/110 394/664/324 113/165/104
f 395/665/325 385/642/4 396/667/326
f 109/158/99 395/666/325 396/668/326
f 113/165/104 395/666/325 109/158/99
f 385/642/4 397/669/327 396/667/326
f 106/155/97 396/668/326 397/670/327
f 109/158/99 396/668/326 106/155/97
f 106/155/97 397/670/327 398/671/328
f 398/672/328 397/669/327 385/642/4
f 399/673/4 398/672/328 401/674/4
f 399/673/4 400/675/329 398/672/328
f 398/671/328 400/676/329 106/155/97
f 401/674/4 398/672/328 385/642/4
f 401/674/4 3/6/4 402/677/4
f 4/7/4 3/6/4 401/674/4
f 401/674/4 402/677/4 403/678/28
f 403/678/28 404/679/27 401/674/4
f 406/680/26 401/674/4 404/679/27
f 405/681/119 401/674/4 406/680/26
f 405/681/119 399/673/4 401/674/4
f 401/674/4 385/642/4 4/7/4
f 406/680/26 408/682/116 405/681/119
f 406/680/26 407/683/29 408/682/116
f 404/684/27 407/685/29 406/686/26
f 405/681/119 408/682/116 409/687/216
f 118/171/31 408/688/116 407/689/29
f 118/171/31 409/690/216 408/688/116
f 405/681/119 409/687/216 411/691/120
f 411/692/120 409/693/216 410/694/330
f 102/148/31 410/695/330 409/690/216
f 102/148/31 409/690/216 118/171/31
f 411/692/120 410/694/330 412/696/307
f 412/697/307 399/673/4 411/691/120
f 411/691/120 399/673/4 405/681/119
f 412/696/307 414/698/308 413/699/220
f 413/700/220 399/673/4 412/697/307
f 412/696/307 410/694/330 414/698/308
f 413/699/220 414/698/308 415/701/260
f 415/702/260 414/703/308 91/138/31
f 414/703/308 410/695/330 102/148/31
f 91/138/31 414/703/308 102/148/31
f 416/704/331 415/701/260 417/705/61
f 413/699/220 415/701/260 416/704/331
f 91/138/31 417/706/61 415/702/260
f 416/704/331 417/705/61 418/707/283
f 91/138/31 419/708/59 417/706/61
f 418/709/283 417/710/61 419/711/59
f 82/126/31 419/708/59 91/138/31
f 418/709/283 419/711/59 421/712/55
f 421/712/55 419/711/59 420/713/254
f 82/126/31 420/714/254 419/708/59
f 402/677/4 421/715/55 422/716/255
f 418/717/283 421/715/55 402/677/4
f 421/712/55 420/713/254 422/718/255
f 402/677/4 422/716/255 424/719/34
f 422/718/255 423/720/332 424/721/34
f 422/718/255 420/713/254 423/720/332
f 424/722/34 425/723/32 403/724/28
f 424/722/34 423/725/332 425/723/32
f 403/678/28 402/677/4 424/719/34
f 425/726/32 423/727/332 82/126/31
f 403/724/28 425/723/32 426/728/30
f 426/729/30 425/726/32 118/171/31
f 118/171/31 425/726/32 82/126/31
f 407/689/29 426/729/30 118/171/31
f 404/684/27 426/728/30 407/685/29
f 403/724/28 426/728/30 404/684/27
f 423/727/332 420/714/254 82/126/31
f 416/730/331 418/717/283 427/731/4
f 427/731/4 418/717/283 402/677/4
f 427/731/4 431/732/333 428/733/334
f 427/731/4 428/733/334 399/673/4
f 427/731/4 402/677/4 429/734/335
f 429/734/335 430/735/336 427/731/4
f 427/731/4 430/735/336 431/732/333
f 416/730/331 427/731/4 413/700/220
f 413/700/220 427/731/4 399/673/4
f 432/736/337 428/737/334 431/738/333
f 87/134/81 431/738/333 430/739/336
f 432/736/337 431/738/333 87/134/81
f 87/134/81 89/135/82 432/736/337
f 432/736/337 433/740/338 428/737/334
f 89/135/82 93/741/86 432/736/337
f 434/742/339 433/740/338 432/736/337
f 432/736/337 93/741/86 96/743/88
f 432/736/337 96/743/88 434/742/339
f 434/742/339 435/744/340 433/740/338
f 436/745/341 435/744/340 434/742/339
f 96/743/88 95/746/87 434/742/339
f 434/742/339 95/746/87 98/747/90
f 434/742/339 98/747/90 436/745/341
f 436/745/341 437/748/342 435/744/340
f 98/747/90 99/749/91 436/745/341
f 400/676/329 437/748/342 436/745/341
f 436/745/341 99/749/91 101/153/93
f 436/745/341 101/153/93 106/155/97
f 106/155/97 400/676/329 436/745/341
f 399/673/4 435/750/340 437/751/342
f 437/751/342 400/675/329 399/673/4
f 399/673/4 433/752/338 435/750/340
f 399/673/4 428/733/334 433/752/338
f 87/134/81 430/739/336 429/753/335
f 429/734/335 30/40/4 438/754/335
f 429/734/335 402/677/4 30/40/4
f 429/753/335 438/755/335 84/128/77
f 429/753/335 84/128/77 87/134/81
f 84/128/77 438/755/335 439/756/343
f 438/754/335 30/40/4 439/757/343
f 30/40/4 440/758/344 439/757/343
f 77/118/71 439/756/343 440/759/344
f 84/128/77 439/756/343 77/118/71
f 73/114/66 440/759/344 441/760/345
f 30/40/4 441/761/345 440/758/344
f 77/118/71 440/759/344 73/114/66
f 73/109/66 441/761/345 63/90/58
f 63/90/58 441/761/345 30/40/4
f 24/37/4 402/677/4 3/6/4
f 24/37/4 30/40/4 402/677/4
f 393/657/323 129/192/118 391/655/219
f 128/190/120 129/192/118 393/657/323
f 391/656/219 129/186/118 117/172/108
f 118/171/31 391/656/219 117/172/108
f 385/642/4 389/659/322 386/643/283
f 198/286/31 382/636/254 118/171/31
f 4/7/4 380/641/34 138/208/28
f 138/629/28 363/631/30 135/199/27
f 135/199/27 363/631/30 134/200/29
f 357/585/221 198/286/31 199/287/180
f 37/53/31 198/286/31 118/171/31
f 187/268/172 173/267/157 170/621/156
f 145/215/4 159/762/145 163/579/148
f 145/215/4 155/763/140 159/762/145
f 152/764/137 155/763/140 145/215/4
f 145/215/4 147/220/133 152/764/137
f 122/180/113 123/179/112 140/209/126
f 125/183/115 140/622/126 123/182/112
f 120/176/110 132/207/122 131/765/121
f 122/180/113 132/207/122 120/176/110
f 113/165/104 115/168/106 120/662/110
f 118/171/31 82/126/31 37/53/31
f 118/171/31 111/163/103 108/159/100
f 118/171/31 108/159/100 102/148/31
f 102/148/31 108/159/100 104/152/96
f 91/138/31 86/131/79 81/124/75
f 91/138/31 81/124/75 82/126/31
f 77/118/71 79/121/73 84/128/77
f 37/53/31 82/126/31 445/766/116
f 442/767/219 443/768/118 82/126/31
f 72/110/67 442/767/219 82/126/31
f 72/110/67 82/126/31 75/116/70
f 82/126/31 443/768/118 444/769/117
f 82/126/31 444/769/117 445/766/116
f 37/53/31 445/766/116 35/56/29
f 446/770/346 445/771/116 444/772/117
f 31/45/26 35/773/29 445/771/116
f 31/45/26 445/771/116 446/770/346
f 30/40/4 446/770/346 447/774/347
f 31/45/26 446/770/346 30/40/4
f 446/770/346 444/772/117 447/774/347
f 447/774/347 448/775/323 30/40/4
f 447/776/347 443/777/118 448/778/323
f 447/776/347 444/779/117 443/777/118
f 30/40/4 448/775/323 449/780/183
f 448/778/323 442/781/219 449/782/183
f 448/778/323 443/777/118 442/781/219
f 449/780/183 65/94/60 63/90/58
f 30/40/4 449/780/183 63/90/58
f 449/782/183 450/783/321 65/95/60
f 449/782/183 442/781/219 450/783/321
f 65/95/60 450/783/321 66/96/61
f 450/784/321 442/767/219 72/110/67
f 450/784/321 72/110/67 66/99/61
f 73/109/66 63/90/58 58/85/53
f 66/99/61 72/110/67 68/100/62
f 61/93/55 44/65/37 42/62/36
f 61/87/55 42/785/36 32/44/4
f 56/105/50 54/786/49 45/69/40
f 45/69/40 54/786/49 47/70/41
f 32/44/4 52/78/46 53/79/47
f 42/785/36 39/787/34 32/44/4
f 32/44/4 39/787/34 33/47/28
f 20/33/19 29/42/25 22/35/21
f 19/32/18 29/42/25 20/33/19
f 19/32/18 27/41/24 29/42/25
f 12/788/12 25/39/23 24/37/4
f 13/23/13 25/789/23 12/22/12
f 24/37/4 451/790/348 11/791/10
f 3/6/4 451/790/348 24/37/4
f 24/37/4 11/791/10 12/788/12
f 15/792/15 451/793/348 7/12/6
f 3/6/4 7/794/6 451/790/348
f 14/21/11 451/793/348 15/792/15
f 14/21/11 11/20/10 451/793/348
f 9/18/9 5/11/5 17/29/16
f 4/7/4 17/575/16 5/8/5
f 7/12/6 8/13/7 15/792/15
f 2/5/1 7/794/6 3/6/4
